<svg xmlns="http://www.w3.org/2000/svg" viewBox="0 0 2000 1700" width="2000" height="1700"><path fill="#FFF" d="M0 0h2000v1700H0z"/><g transform="translate(67.0 158.0) rotate(0.0 682.5 678.5) scale(0.9441466366937575 0.9442036195631753)"><svg width="1445.75" height="1437.19" viewBox="0 0 1445.75 1437.19"><path d="M1215.98 1437.189c-23.507 0-47.506-3.208-71.33-9.535-35.855-9.523-70.919-26.036-104.218-49.081-32.559-22.534-62.786-50.866-89.843-84.207-55.801-68.765-95.254-155.101-114.093-249.674-8.869-44.528-34.64-76.62-76.596-95.385-68.786-30.767-168.445-19.905-247.988 27.027-3.433 2.025-7.97 4.79-12.772 7.717-39.28 23.935-121.005 73.73-208.007 97.315-51.017 13.83-97.036 16.677-136.782 8.459-50.187-10.377-90.469-37.925-119.73-81.879-37.288-56.009-44.848-143.767-20.739-240.771C40.669 659.391 103.948 546.024 196.88 439.33 307.835 311.942 457.514 196.767 641.758 97.005 747.184 39.921 849.178 6.696 936.715.921c42.229-2.787 80.734.754 114.447 10.524 34.614 10.029 63.553 26.388 86.013 48.621 31.81 31.49 49.192 73.79 50.271 122.327 1.066 48.067-13.453 100.938-43.155 157.141-3.932 7.439-10.524 12.902-18.565 15.382-8.038 2.48-16.564 1.681-24.002-2.25-15.356-8.116-21.248-27.212-13.132-42.568 24.628-46.603 36.696-89.099 35.87-126.307-.718-32.337-11.353-58.9-31.608-78.952-31.192-30.88-85.167-45.464-151.992-41.055-78.548 5.182-171.603 35.826-269.104 88.621C212.699 400.969 101.517 675.763 75.021 782.372c-19.556 78.687-15.055 149.964 12.041 190.665 37.335 56.08 98.695 71.625 187.587 47.526 78.364-21.243 154.919-67.891 191.709-90.309 5.287-3.222 9.786-5.962 13.539-8.177 46.529-27.455 99.698-45.04 153.758-50.855 55.873-6.014 108.42 1.101 151.967 20.577 28.937 12.942 53.183 31.006 72.066 53.691 20.312 24.402 33.97 53.638 40.596 86.897 33.293 167.139 138.799 301.515 262.537 334.379 84.447 22.425 163.861-5.712 229.66-81.369 5.521-6.349 13.185-10.167 21.578-10.753 8.384-.585 16.513 2.133 22.861 7.655 6.35 5.521 10.168 13.185 10.753 21.579s-2.134 16.513-7.655 22.861c-41.61 47.845-89.04 80.658-140.973 97.527-26.397 8.574-53.671 12.922-81.065 12.923zM671.166 926.995c32.884 0 64.088 5.812 90.776 17.75 43.521 19.465 70.254 52.764 79.459 98.973 18.681 93.779 57.779 179.363 113.071 247.5 26.758 32.973 56.636 60.981 88.806 83.246 32.822 22.715 67.36 38.985 102.655 48.359 23.405 6.216 46.973 9.367 70.047 9.367 26.868-.001 53.622-4.267 79.521-12.679 51.058-16.585 97.738-48.902 138.744-96.053 4.646-5.341 6.933-12.171 6.44-19.232-.492-7.062-3.704-13.508-9.046-18.154-5.34-4.645-12.163-6.933-19.232-6.439-7.061.493-13.508 3.705-18.152 9.046-52.111 59.918-112.682 90.603-177.59 90.606-18.717.001-37.786-2.55-57.127-7.686-125.54-33.342-232.5-169.268-266.158-338.234-6.46-32.432-19.762-60.921-39.535-84.675-18.39-22.093-42.03-39.698-70.264-52.326-42.742-19.116-94.399-26.088-149.391-20.17-53.356 5.74-105.831 23.096-151.752 50.19-3.722 2.196-8.207 4.929-13.4 8.094-37.065 22.585-114.03 69.483-193.08 90.912-27.452 7.442-52.373 11.177-74.838 11.178-52.193.003-91.181-20.145-118.22-60.76-27.86-41.851-32.62-114.614-12.73-194.642C96.823 673.914 208.567 397.52 669.375 148.009c98.131-53.135 191.896-83.985 271.156-89.213 68.266-4.502 123.614 10.589 155.839 42.49 21.209 20.996 32.342 48.717 33.089 82.394.846 38.07-11.417 81.389-36.448 128.754-6.827 12.919-1.871 28.984 11.048 35.811 6.259 3.309 13.432 3.979 20.192 1.893 6.764-2.087 12.312-6.683 15.619-12.941 29.299-55.441 43.624-107.487 42.577-154.693-1.049-47.215-17.92-88.324-48.79-118.884-21.86-21.64-50.083-37.578-83.886-47.372-33.154-9.607-71.08-13.087-112.728-10.337-86.823 5.728-188.108 38.748-292.905 95.491-183.717 99.477-332.928 214.277-443.489 341.212-92.413 106.1-155.318 218.749-181.916 325.769-23.769 95.644-16.461 181.952 20.05 236.795 28.506 42.819 67.729 69.652 116.58 79.753 38.971 8.057 84.21 5.234 134.462-8.389 86.316-23.399 167.63-72.945 206.708-96.755 4.824-2.941 9.376-5.715 12.839-7.758 50.125-29.575 108.185-45.034 161.794-45.034z" fill="#385CE3"/></svg></g><g transform="translate(310.0 417.0) rotate(0.0 627.5 571.5) scale(0.936064204308133 0.9380200964445511)"><svg width="1340.72" height="1218.524" viewBox="0 0 1340.72 1218.524"><path d="M453.889 1166.333c-11.925 22.552 4.425 49.691 29.935 49.691h83.829-396.596c-25.51 0-41.86-27.139-29.935-49.691l362.733-686.006h312.767z" fill="#FFF"/><path d="M567.653 1218.524H171.056c-12.864 0-24.508-6.579-31.146-17.599s-7.012-24.388-.998-35.761l362.732-686.006a2.5 2.5 0 0 1 2.21-1.332h312.768a2.5 2.5 0 0 1 2.21 3.668L456.1 1167.5c-5.187 9.809-4.865 21.339.86 30.844s15.769 15.179 26.864 15.179h83.829a2.5 2.5 0 1 1 0 5.001zM505.36 482.827l-362.028 684.674c-5.187 9.809-4.865 21.339.86 30.844 5.727 9.504 15.769 15.179 26.864 15.179h294.282c-5.101-3.009-9.462-7.288-12.661-12.599-6.639-11.02-7.012-24.388-.998-35.761l2.21 1.168-2.21-1.168 360.793-682.337z" fill="#385CE3"/><path d="M469.159 1175.356c-5.301 10.026 1.967 22.092 13.309 22.092h115.048-427.815c-11.342 0-18.61-12.066-13.309-22.092l377.327-713.605h312.767z" fill="#FFF"/><path d="M597.516 1199.948H169.701c-6.211 0-11.832-3.176-15.037-8.496s-3.386-11.774-.482-17.265l377.327-713.604a2.5 2.5 0 0 1 2.21-1.332h312.768a2.5 2.5 0 0 1 2.21 3.668L471.37 1176.523c-2.076 3.927-1.947 8.542.345 12.347s6.312 6.077 10.755 6.077h115.048a2.5 2.5 0 1 1-.002 5.001zm-62.292-735.697-376.623 712.273c-2.076 3.927-1.947 8.543.346 12.348 2.292 3.805 6.312 6.076 10.754 6.076h300.481a17.742 17.742 0 0 1-2.752-3.497c-3.204-5.32-3.385-11.774-.481-17.264l2.21 1.168-2.21-1.168 375.388-709.936z" fill="#385CE3"/><path d="M171.057 1197.448h774.824v18.577H171.057z" fill="#FFF"/><path d="M945.882 1218.524H171.056a2.5 2.5 0 1 1 0-5h772.325v-13.576H171.056a2.5 2.5 0 1 1 0-5h774.825a2.5 2.5 0 0 1 2.5 2.5v18.576a2.499 2.499 0 0 1-2.499 2.5z" fill="#385CE3"/><path d="M1223.494 25.994 22.921 2.5 2.5 25.994l94.305 908.518h1220.994l20.421-23.494z" fill="#FFF"/><path d="M1317.799 937.012H96.805a2.5 2.5 0 0 1-2.486-2.242L.013 26.253a2.498 2.498 0 0 1 .6-1.898L21.034.86A2.498 2.498 0 0 1 22.921 0h.049l1200.573 23.494a2.502 2.502 0 0 1 2.431 2.178L1340.7 910.696a2.498 2.498 0 0 1-.593 1.961l-20.421 23.494a2.497 2.497 0 0 1-1.887.861zm-1218.74-5h1217.6l18.937-21.787-114.304-881.773L24.041 5.023 5.098 26.816z" fill="#385CE3"/><path d="M1243.915 2.5H22.921l82.89 798.544h1220.993z"/><path d="M1326.804 803.544H105.81a2.5 2.5 0 0 1-2.486-2.242L20.434 2.758A2.5 2.5 0 0 1 22.921 0h1220.994a2.5 2.5 0 0 1 2.486 2.242l82.89 798.543a2.5 2.5 0 0 1-2.487 2.759zm-1218.74-5h1215.967L1241.661 5H25.693z"/><path d="M1223.998 23.491H47.195l78.532 756.562H1302.53zM105.811 801.044h1220.993l11.416 109.974H117.226z" fill="#FFF"/><g fill="#385CE3"><path d="M1338.219 913.518H117.226a2.5 2.5 0 0 1-2.486-2.242l-11.416-109.975a2.498 2.498 0 0 1 2.486-2.758h1220.994a2.5 2.5 0 0 1 2.486 2.242l11.415 109.974a2.496 2.496 0 0 1-.63 1.932 2.493 2.493 0 0 1-1.856.827zm-1218.739-5h1215.967l-10.896-104.975H108.583z"/><path d="M96.804 937.012a2.5 2.5 0 0 1-1.886-4.14l20.421-23.494a2.5 2.5 0 0 1 3.773 3.28l-20.421 23.494a2.489 2.489 0 0 1-1.887.86z"/></g></svg></g><g transform="translate(1365.0 719.0) rotate(0.0 280.5 358.5) scale(0.9447068630175048 0.9444077101603517)"><svg width="593.835" height="759.206" viewBox="0 0 593.835 759.206"><g xmlns:xlink="http://www.w3.org/1999/xlink"><g><g><linearGradient id="a" gradientUnits="userSpaceOnUse" x1="11.976" y1="741.453" x2="628.982" y2="-42.09"><stop offset="0" style="stop-color:#fff;stop-opacity:0"/><stop offset="1" style="stop-color:#fff"/></linearGradient><path style="fill:url(#a)" d="M23.388 2.5h547.06c11.536 0 20.888 9.352 20.888 20.888v712.43c0 11.536-9.352 20.888-20.888 20.888H23.388c-11.536 0-20.888-9.352-20.888-20.888V23.388C2.5 11.852 11.852 2.5 23.388 2.5z"/><path style="fill:#385ce3" d="M23.388 2.5h547.06c11.536 0 20.888 9.352 20.888 20.888v712.43c0 11.536-9.352 20.888-20.888 20.888H23.388c-11.536 0-20.888-9.352-20.888-20.888V23.388C2.5 11.852 11.852 2.5 23.388 2.5z"/><path style="fill:none;stroke:#385ce3;stroke-width:5;stroke-linecap:round;stroke-linejoin:round;stroke-miterlimit:10" d="M23.388 2.5h547.06c11.536 0 20.888 9.352 20.888 20.888v712.43c0 11.536-9.352 20.888-20.888 20.888H23.388c-11.536 0-20.888-9.352-20.888-20.888V23.388C2.5 11.852 11.852 2.5 23.388 2.5z"/></g><g><g><defs><path id="b" d="M75.33-308.547h309.794a5.72 5.72 0 0 1 5.688 5.115l22.647 212.873a5.72 5.72 0 0 1-5.688 6.325H97.848a5.72 5.72 0 0 1-5.689-5.119L69.642-302.225a5.72 5.72 0 0 1 5.688-6.322z" fill="#000"/></defs><clipPath id="c"><use xlink:href="#b" style="overflow:visible"/></clipPath><g style="clip-path:url(#c)"><path style="fill:#fff" d="M358.915-68.313c6.093 57.001-35.159 103.219-92.14 103.219S158.681-11.312 152.611-68.313c-6.069-56.989 35.186-103.179 92.144-103.179s108.068 46.19 114.16 103.179z"/></g></g></g></g></g></svg></g><g transform="translate(683.0 564.0) rotate(0.0 390.5 322.0) scale(0.9536124328594575 0.9543526036487686)"><svg width="818.991" height="674.803" viewBox="0 0 818.991 674.803"><path d="M671.985 540.823c31.714 20.825 52.806 56.843 47.992 91.864s-31.963 1.41-35.945-13.084c-3.983-14.494-31.383-60.574-31.383-60.574s-12.378-39.031 19.336-18.206z" fill="#FFF"/><path d="M709.975 650.598c-11.41 0-25.506-19.967-28.354-30.332-3.849-14.004-30.85-59.501-31.121-59.959a2.418 2.418 0 0 1-.234-.522c-.646-2.038-6.094-20.078 1.554-25.873 4.436-3.36 11.48-1.784 21.538 4.821 16.32 10.717 29.641 25.071 38.521 41.511 9.299 17.213 12.956 35.466 10.575 52.784-1.544 11.229-5.531 17.133-11.853 17.55-.207.013-.416.02-.626.02zm-55.027-92.594c2.421 4.081 27.58 46.69 31.495 60.937 1.316 4.79 5.349 11.737 10.035 17.286 5.145 6.092 10.295 9.603 13.795 9.362 4.511-.297 6.421-7.365 7.229-13.241 4.422-32.172-14.424-68.114-46.888-89.435-7.623-5.005-13.372-6.834-15.774-5.016-3.757 2.847-1.593 14.586.108 20.107z" fill="#385CE3"/><path d="M708.818 547.333c31.714 20.825 52.806 56.843 47.992 91.864s-31.963 1.41-35.945-13.084-31.383-60.574-31.383-60.574-12.379-39.031 19.336-18.206z" fill="#FFF"/><path d="M746.807 657.108c-11.41 0-25.505-19.967-28.354-30.332-1.625-5.915-7.778-18.598-17.793-36.679a2.5 2.5 0 1 1 4.373-2.422c10.351 18.687 16.487 31.396 18.241 37.777 2.664 9.692 15.922 27.174 23.83 26.647 4.511-.297 6.421-7.365 7.229-13.241 4.422-32.174-14.421-68.115-46.888-89.435a2.5 2.5 0 0 1 2.744-4.18c16.32 10.717 29.641 25.071 38.521 41.511 9.299 17.213 12.956 35.466 10.575 52.784-1.544 11.229-5.531 17.133-11.853 17.55-.206.013-.415.02-.625.02z" fill="#385CE3"/><path d="M691.957 560.587s10.077 10.786 33.614 22.608c15.36 29.828 31.544 48.057 44.739 56.888 6.647 4.448 25.983 7.802 24.417-12.011-2.136-27.016-29.747-64.23-59.713-85.694z" fill="#FFF"/><path d="M782.3 645.983c-5.189 0-10.402-1.829-13.382-3.823-15.402-10.309-31.436-30.569-45.197-57.098-5.177-2.626-10.105-5.406-14.662-8.271a2.5 2.5 0 0 1 2.66-4.233c4.636 2.914 9.673 5.741 14.974 8.403.473.237.858.619 1.101 1.089 18.165 35.274 35.306 50.198 43.906 55.955 3.662 2.45 11.626 4.432 16.447 1.607 3.161-1.852 4.535-5.668 4.087-11.344-1.967-24.864-27.74-61.699-58.677-83.859a2.5 2.5 0 0 1 2.912-4.064c32.528 23.301 58.646 60.93 60.749 87.529.763 9.652-3.137 14.057-6.543 16.052-2.511 1.472-5.44 2.057-8.375 2.057z" fill="#385CE3"/><path d="M814.092 593.32c-7.36-15.88-29.293-42.728-73.398-65.437-22.918-11.8-57.372-25.109-92.965-35.553-13.702-5.802-18.619-8.773-31.346-16.246-30.079 14.6-51.062 57.765-51.062 57.765l40.652 21.998h.002c10.927 40.338 66.976 88.538 90.758 97.569 24.623 9.35 27.163-5.28 19.744-23.727-5.582-13.878-29.835-43.422-29.835-43.422-7.976-11.544-16.013-19.972-24.169-26.252l1.196.088 18.631-4.256c9.631 10.856 23.479 14.34 41.611 10.335 13.502 10.438 42.336 37.386 56.242 44.552 21.398 11.027 43.81 3.881 33.939-17.414z" fill="#FFF"/><path d="M709.664 658.815c-3.827 0-8.44-1.021-13.817-3.062-12.783-4.854-33.308-19.968-51.073-37.607-12.346-12.258-33.909-36.287-40.918-60.603l-39.724-21.495a2.499 2.499 0 0 1-1.059-3.292c.218-.449 5.441-11.125 14.465-23.767 12.197-17.087 24.899-28.915 37.754-35.154a2.5 2.5 0 0 1 2.357.093l1.323.777c11.746 6.899 16.633 9.77 29.6 15.266 34.91 10.252 69.769 23.589 93.267 35.688 20.112 10.355 37.295 22.368 51.073 35.706 10.674 10.333 19.002 21.308 23.449 30.903 5.417 11.688 1.281 18.174-1.666 21-7.218 6.924-21.893 6.795-35.687-.313-9.626-4.961-25.579-18.604-39.654-30.641-6.047-5.171-11.781-10.076-16.062-13.446-17.785 3.659-31.854.208-41.85-10.262l-13.09 2.991c7.176 6.231 13.85 13.855 20.288 23.164 1.689 2.062 24.587 30.148 30.156 43.995 6.36 15.815 3.714 23.195.373 26.602-2.258 2.304-5.438 3.456-9.505 3.457zM607.119 553.624c.61.314 1.082.874 1.271 1.569 10.627 39.232 65.715 86.955 89.232 95.885 8.932 3.393 15.148 3.662 17.979.778 3.151-3.214 2.612-11.152-1.442-21.235-5.375-13.363-29.208-42.476-29.448-42.768a2.468 2.468 0 0 1-.124-.166c-7.441-10.771-15.174-19.175-23.639-25.692a2.5 2.5 0 0 1 1.71-4.474l.821.061 18.265-4.172a2.502 2.502 0 0 1 2.427.778c9.091 10.247 21.912 13.372 39.202 9.553.724-.16 1.481.01 2.068.463 4.455 3.444 10.628 8.723 17.163 14.312 13.182 11.273 29.586 25.302 38.695 29.997 11.734 6.048 24.322 6.53 29.936 1.149 4.392-4.212 2.744-10.64.589-15.29-12.143-26.198-45.296-50.375-72.274-64.266-23.265-11.979-57.853-25.204-92.524-35.376a2.568 2.568 0 0 1-.271-.097c-13.368-5.661-18.679-8.781-30.314-15.616l-.152-.089c-24.606 12.688-43.056 45.25-47.624 53.888z" fill="#385CE3"/><path d="m32.17 462.074 36 153.873h228.255l-19.148-153.873z"/><path d="M475.864 269.296c11.028 50.579 20.882 103.051 28.646 129.459 41.871 16.483 92.199 54.13 131.065 87.894 7.318 6.063-41.703 93.382-52.682 89.553-137.619-53.712-207.688-62.903-232.853-263.234 0 0 52.792-135.586 118.447-58.671 3.671 4.3 6.173 9.476 7.377 14.999z" fill="#385CE3"/><path d="M237.433 79.715c108.93 35.633 183.222 104.785 233.483 177.837l-74.151 10.735c-23.96 77.895-43.961 185.177-62.809 301.021C205.316 561.09 92.773 526.817 0 460.543c25.265-160.698 113.239-291.93 220.642-377.761 4.725-3.777 11.042-4.947 16.791-3.067z" fill="#385CE3"/><path d="M311.362 547.096c19.426-2.214 70.04-2.277 85.108-.266 16.711 2.23 30.778 10.708 41.033 23.311 13.984 17.185 26.531 51.799 15.097 59.659 3.551 14.404-3.368 21.047-7.326 20.345.119 16.708-11.67 20.957-22.404 13.715-1.996 8.932-9.503 9.553-15.63 7.415-7.878-2.748-23.878-14.263-37.123-38.008-54.679-.215-112.721 2.666-125.994-32.017-25.729-50.056 39.281-93.984 67.239-54.154z" fill="#FFF"/><g fill="#385CE3"><path d="M412.89 674.807c-2.045 0-4.23-.39-6.474-1.173-7.545-2.632-23.851-13.555-37.762-37.874-3.68-.011-7.373-.011-11.065-.008-50.558.033-102.791.038-115.752-33.482-14.22-27.814-1.587-54.493 18.272-66.49 15.881-9.592 38.061-10.497 52.426 8.675 20.041-2.017 69.199-2.116 84.266-.105 16.836 2.247 31.581 10.619 42.641 24.211 11.08 13.617 21.959 38.994 19.854 53.638-.529 3.688-1.845 6.554-3.917 8.548 2.32 11.256-1.61 16.989-3.476 18.981-1.252 1.338-2.71 2.26-4.186 2.689-.438 7.523-3.347 13.061-8.314 15.725-4.338 2.327-9.825 2.082-15.123-.568-1.373 3.09-3.394 4.778-5.028 5.688-1.848 1.03-4.011 1.545-6.362 1.545zm-51.565-44.055c2.939 0 5.875.002 8.802.014a2.502 2.502 0 0 1 2.174 1.282c5.842 10.474 20.835 31.658 35.763 36.866 3.409 1.189 6.599 1.182 8.758-.019 1.79-.996 3.005-2.874 3.61-5.581a2.5 2.5 0 0 1 3.838-1.527c4.55 3.07 9.326 3.801 12.771 1.952 3.745-2.008 5.781-6.83 5.733-13.576a2.5 2.5 0 0 1 2.937-2.479c.511.089 1.537-.296 2.542-1.369 1.085-1.159 4.431-5.733 1.92-15.917a2.499 2.499 0 0 1 1.012-2.658c1.667-1.146 2.731-3.249 3.163-6.25 1.865-12.981-8.379-36.984-18.784-49.771-10.24-12.586-23.873-20.336-39.424-22.411-15.198-2.028-65.737-1.865-84.494.272a2.497 2.497 0 0 1-2.329-1.047c-12.476-17.772-32.405-17.06-46.621-8.472-17.902 10.814-29.268 34.912-16.349 60.045.041.081.079.165.111.25 11.646 30.436 62.258 30.413 111.13 30.397l3.737-.001z"/><path d="M452.599 632.3a2.501 2.501 0 0 1-2.409-1.835c-6.571-23.799-20.774-46.401-30.708-54.503-17.082-13.934-43.011-12.338-44.107-12.265a2.51 2.51 0 0 1-2.664-2.324 2.5 2.5 0 0 1 2.324-2.664c2.949-.202 29.325-1.535 47.607 13.378 13.423 10.948 26.998 37.603 32.368 57.047a2.5 2.5 0 0 1-2.411 3.166z"/><path d="M445.271 652.645a2.5 2.5 0 0 1-2.46-2.072c-3.521-20.262-18.639-46.439-28.808-54.604-14.301-11.482-34.278-15.72-43.681-15.72-.069 0-.143-.002-.206 0a2.5 2.5 0 0 1-.016-5h.226c10.481 0 31.4 4.451 46.808 16.821 14.604 11.726 27.879 41.975 30.603 57.646a2.5 2.5 0 0 1-2.466 2.929z"/><path d="M422.874 666.359a2.5 2.5 0 0 1-2.498-2.663c.821-12.557-7.981-35.206-18.114-46.604-11.288-12.699-19.518-14.566-37.549-18.658l-1.305-.296a2.5 2.5 0 0 1 1.107-4.876l1.304.296c17.942 4.071 27.825 6.314 40.179 20.212 11.044 12.424 20.275 36.376 19.368 50.253a2.501 2.501 0 0 1-2.492 2.336z"/></g><path d="m391.776 187.498-4.712 69.811c-50.992 62.593-61.648 34.721-61.776-50.335l24.752-42.564z" fill="#FFF"/><path d="M387.064 257.308c-5.885 67.722-30.543 70.934-73.021 96l3.064-125.445 23.611-10.784 5.422 59.122z"/><path d="m387.574 197.564-22.202 197.591 49.777-149.846-15.319-14.976 20.1-7.237-9.028-37.118-23.567-23.768z" fill="#385CE3"/><path d="M365.374 397.655a2.5 2.5 0 0 1-2.486-2.78l10.033-89.287a2.5 2.5 0 0 1 4.969.559l-7.369 65.579 41.764-125.722-14.202-13.883a2.498 2.498 0 0 1 .902-4.139l17.987-6.476-8.497-34.936a2.499 2.499 0 0 1 1.838-3.02 2.498 2.498 0 0 1 3.02 1.838l9.028 37.118a2.499 2.499 0 0 1-1.582 2.943l-16.347 5.886 12.467 12.187c.684.668.926 1.668.624 2.576l-49.777 149.846a2.505 2.505 0 0 1-2.372 1.711z" fill="#FFF"/><path d="m350.041 164.409-38.677 218.517-5.491-190.979 23.489-6.128-14.809-23.609 27.203-33.522 21.308 19.336c3.989 11.442-3.194 14.863-13.023 16.385z" fill="#385CE3"/><path d="M311.362 385.426a2.5 2.5 0 0 1-2.498-2.428l-5.49-190.979a2.5 2.5 0 0 1 1.868-2.491l20.191-5.268-12.998-20.722a2.5 2.5 0 0 1 .177-2.904l27.202-33.522a2.5 2.5 0 0 1 3.883 3.151l-26.075 32.133 13.858 22.094a2.502 2.502 0 0 1-1.487 3.747l-21.563 5.626 5.433 188.99a2.5 2.5 0 0 1-2.427 2.571l-.074.002z" fill="#FFF"/><path d="M507.83 194.755c-9.957-42.962 34.015-70.213 23.745-118.723-3.64-17.19-57.703-73.538-121.533-73.532-46.016.004-89.593 60.756-89.593 87.564s39.173 78.34 76.317 104.691c0 0-41.021-58.486-36.383-65.489 9.803-14.805 71.688 15.46 89.234 15.352 3.064 15.286 40.915 49.472 58.213 50.137z"/><path d="M396.765 197.255c-.503 0-1.01-.152-1.445-.461-35.779-25.383-77.371-77.534-77.371-106.729 0-28.132 44.525-90.061 92.094-90.064 64.379-.006 119.991 56.686 123.978 75.514 5.426 25.63-3.696 45.275-12.519 64.274-8.18 17.616-15.906 34.254-11.236 54.402.176.759-.013 1.557-.509 2.157s-1.233.941-2.022.905c-18.075-.694-54.428-33.487-60.045-50.217-6.986-.582-18.09-4.18-30.766-8.289-20.708-6.711-49.035-15.893-54.396-8.19-1.226 5.067 17.831 36.452 36.285 62.762a2.5 2.5 0 0 1-2.048 3.936zm52.852-55.137a2.5 2.5 0 0 1 2.451 2.009c2.606 13.001 35.013 43.455 52.617 47.655-3.428-20.269 4.551-37.452 12.281-54.1 8.478-18.256 17.243-37.133 12.162-61.133-1.478-6.981-14.008-24.542-37.235-41.722C476.832 23.688 446.172 5 410.052 5h-.01c-19.48.001-41.42 11.994-60.192 32.901-15.839 17.64-26.901 39.091-26.901 52.164 0 22.126 29.531 64.838 62.809 92.962-3.341-5.012-7.247-10.987-11.042-17.066-20.203-32.357-17.739-36.077-16.416-38.076 7.302-11.028 34.177-2.317 60.165 6.106 12.894 4.179 25.075 8.127 31.056 8.127h.096z"/><path d="M491.215 79.707c1.395 60.049-24.184 94.445-41.747 96.675s-31.087-14.307-35.84-21.454c-10.065 10.499-19.022 23.981-26.055 42.636-10.386 20.193-31.659-2.808-37.534-33.155 15.508-19.791 20.426-25.082 30.257-38.59l6.694-31.604c-15.838-5.247-16.111-24.048-4.627-28.958 5.127-2.192 11.653.569 13.898 8.198.002 0 44.031 29.709 94.954 6.252z" fill="#FFF"/><path d="M392.04 189.421a2.5 2.5 0 0 1-2.264-3.558c5.913-12.674 13.125-23.359 22.048-32.666a2.523 2.523 0 0 1 2.026-.76c.756.067 1.44.474 1.86 1.106 13.999 21.054 29.136 20.904 33.442 20.358 6.759-.858 17.158-7.96 26.074-25.317 6.338-12.339 13.694-33.5 13.541-65.075-25.633 10.684-49.211 8.31-64.753 4.289-17.586-4.55-28.688-11.957-29.151-12.27a2.5 2.5 0 0 1-1-1.366c-.904-3.073-2.68-5.367-5-6.46-1.798-.846-3.755-.898-5.518-.145-4.21 1.8-6.695 6.014-6.485 10.997.199 4.742 3.172 10.723 10.916 13.289a2.498 2.498 0 0 1 1.659 2.891l-6.694 31.604a2.483 2.483 0 0 1-.424.953c-6.05 8.312-10.285 13.576-16.148 20.862l-2.31 2.872a2.5 2.5 0 1 1-3.899-3.132l2.312-2.875c5.717-7.104 9.875-12.271 15.688-20.239l6.141-28.989c-8.604-3.72-11.987-11.078-12.237-17.025-.295-7.004 3.44-13.208 9.517-15.805 3.047-1.302 6.552-1.223 9.613.219 3.376 1.591 5.967 4.642 7.369 8.65 5.781 3.557 46.24 26.596 91.805 5.608a2.498 2.498 0 0 1 3.545 2.212c1.416 60.916-24.604 96.759-43.932 99.213a28.429 28.429 0 0 1-3.592.228c-15.771.002-27.636-13.182-32.834-20.204-7.591 8.378-13.839 17.924-19.049 29.092a2.496 2.496 0 0 1-2.266 1.443z" fill="#385CE3"/><path d="M470.375 149.515c0-4.354-5.558-8.228-10.636-7.521-3.651-4.858-10.512-3.318-17.055-2.844-1.731 15.404 12.45 28.915 27.691 10.365z" fill="#385CE3"/><path d="M455.575 161.028c-1.681 0-3.42-.322-5.194-1.071-7.055-2.981-11.241-11.652-10.182-21.086a2.5 2.5 0 0 1 2.304-2.214c.932-.067 1.87-.157 2.805-.246 5.411-.518 11.488-1.096 15.506 3.003 3.047-.039 6.235 1.134 8.606 3.197 2.229 1.939 3.455 4.391 3.455 6.904 0 .579-.201 1.14-.568 1.587-2.723 3.313-9.114 9.926-16.732 9.926zm-10.535-19.571c-.081 6.343 2.81 12.001 7.286 13.894 4.599 1.944 10.056-.403 15.435-6.615-.229-.804-.793-1.63-1.625-2.354-1.657-1.443-4.029-2.193-6.053-1.912a2.501 2.501 0 0 1-2.343-.974c-2.126-2.828-5.935-2.684-11.958-2.109l-.742.07zm25.334 8.058h.01z" fill="#385CE3"/><path d="M386.237 97.779c-5.541 37.317-1.559 67.28 10.529 96.977-36.646-27.167-70.261-67.831-76.317-104.691z"/><path d="M396.766 197.256a2.498 2.498 0 0 1-1.489-.492c-19.233-14.259-36.57-31.276-50.134-49.211-14.861-19.65-24.253-39.389-27.16-57.083a2.5 2.5 0 0 1 2.758-2.888l65.787 7.714a2.5 2.5 0 0 1 2.181 2.85c-5.281 35.566-2.082 65.071 10.372 95.667a2.5 2.5 0 0 1-2.315 3.443zM323.532 92.943c6.324 30.129 32.248 66.183 67.749 94.445-9.894-27.828-12.335-55.252-7.883-87.426z"/><path d="M442.683 139.15c8.299 13.977 13.884 18.361 27.692 10.365-9.906-1.981-17.391-4.861-27.692-10.365z" fill="#fff"/><path d="M310.078 158.505s-22.822 93.472-50.78 181.174c41.87 114.207 46.574 142.313 58.814 206.814 3.289 17.33-93.085 64.606-107.478 57.401-46.336-87.074-95.433-176.674-97.486-255.944-1.887-72.853 41.014-147.532 60.511-183.541z" fill="#385CE3"/><path d="M210.635 606.394c-.895 0-1.76-.481-2.209-1.326l-4.587-8.613c-44.832-84.164-91.19-171.192-93.19-248.44-1.521-58.724 25.278-117.396 45.569-156.421a2.5 2.5 0 1 1 4.435 2.307c-20.034 38.533-46.498 96.418-45.007 153.985 1.97 76.069 48.047 162.568 92.605 246.22l4.588 8.615a2.5 2.5 0 0 1-2.204 3.673zm107.474-57.401a2.5 2.5 0 0 1-2.453-2.035l-1.074-5.667c-11.37-60.014-17.077-90.138-57.631-200.752a2.505 2.505 0 0 1-.034-1.62c9.746-30.574 19.933-65.179 30.277-102.855a2.5 2.5 0 0 1 4.822 1.324c-10.271 37.406-20.388 71.796-30.076 102.233 40.425 110.336 46.161 140.602 57.554 200.738l1.074 5.666a2.5 2.5 0 0 1-2.459 2.968z" fill="#FFF"/><path d="m306.583 491.452-.114-.002a2.5 2.5 0 0 1-2.385-2.61l4.781-106.026c.005-.108.017-.216.035-.323l7.53-42.54a2.5 2.5 0 0 1 4.923.871l-7.502 42.38-4.774 105.864a2.496 2.496 0 0 1-2.494 2.386z" fill="#FFF"/></svg></g><g transform="translate(390.0 529.0) rotate(0.0 172.0 118.0) scale(1.0003402319975108 1.003017552807174)"><svg width="343.883" height="235.29" viewBox="0 0 343.883 235.29"><linearGradient id="d" gradientUnits="userSpaceOnUse" x1="36.827" x2="418.974" y1="217.806" y2="-81.006"><stop offset="0"/><stop offset="1" stop-color="#E37474" stop-opacity=".4"/></linearGradient><clipPath id="e"><path d="M5.721 0h309.794a5.72 5.72 0 0 1 5.688 5.115l22.647 212.873a5.72 5.72 0 0 1-5.688 6.325H28.238a5.72 5.72 0 0 1-5.689-5.119L.032 6.322A5.721 5.721 0 0 1 5.721 0z"/></clipPath><path d="M5.721 0h309.794a5.72 5.72 0 0 1 5.688 5.115l22.647 212.873a5.72 5.72 0 0 1-5.688 6.325H28.238a5.72 5.72 0 0 1-5.689-5.119L.032 6.322A5.721 5.721 0 0 1 5.721 0z" fill="#fff"/><path d="M5.721 0h309.794a5.72 5.72 0 0 1 5.688 5.115l22.647 212.873a5.72 5.72 0 0 1-5.688 6.325H28.238a5.72 5.72 0 0 1-5.689-5.119L.032 6.322A5.721 5.721 0 0 1 5.721 0z" fill="url(#d)"/><g clip-path="url(#e)" fill="#fff"><path d="M209.402 77.615c2.394 22.426-13.842 40.608-36.266 40.608s-42.54-18.181-44.931-40.608 13.847-40.601 36.267-40.601 42.536 18.177 44.93 40.601zm79.903 162.619c6.093 57.001-35.159 103.219-92.14 103.219S89.071 297.235 83 240.234c-6.069-56.989 35.186-103.179 92.144-103.179s108.069 46.19 114.16 103.179z"/></g></svg></g><g transform="translate(362.0 271.0) rotate(0.0 172.0 118.0) scale(1.0003402319975108 1.003017552807174)"><svg width="343.883" height="235.29" viewBox="0 0 343.883 235.29"><clipPath id="f"><path d="M5.721 0h309.794a5.72 5.72 0 0 1 5.688 5.115l22.647 212.873a5.72 5.72 0 0 1-5.688 6.325H28.238a5.72 5.72 0 0 1-5.689-5.119L.032 6.322A5.721 5.721 0 0 1 5.721 0z" fill="#385CE3"/></clipPath><path d="M5.721 0h309.794a5.72 5.72 0 0 1 5.688 5.115l22.647 212.873a5.72 5.72 0 0 1-5.688 6.325H28.238a5.72 5.72 0 0 1-5.689-5.119L.032 6.322A5.721 5.721 0 0 1 5.721 0z" fill="#fff"/><path d="M5.721 0h309.794a5.72 5.72 0 0 1 5.688 5.115l22.647 212.873a5.72 5.72 0 0 1-5.688 6.325H28.238a5.72 5.72 0 0 1-5.689-5.119L.032 6.322A5.721 5.721 0 0 1 5.721 0z" fill="#385CE3"/><g clip-path="url(#f)" fill="#fff"><path d="M209.402 77.615c2.394 22.426-13.842 40.608-36.266 40.608s-42.54-18.181-44.931-40.608 13.847-40.601 36.267-40.601 42.536 18.177 44.93 40.601zm79.903 162.619c6.093 57.001-35.159 103.219-92.14 103.219S89.071 297.235 83 240.234c-6.069-56.989 35.186-103.179 92.144-103.179s108.069 46.19 114.16 103.179z"/></g></svg></g><g transform="translate(1188.0 786.0) rotate(0.0 364.0 363.5) scale(0.9600941103237812 0.9592319810845259)"><svg width="758.259" height="757.898" viewBox="0 0 758.259 757.898"><path d="M399.62 167.071c-28.503 10.557-53.17 26.699-77.048 50.595C279.678 260.59 267.175 385 267.175 385l-22.22-7.985c-29.617-1.532-72.511 63.191-43.848 106.747 36.173 57.101 98.631 71.691 136.835 56.202 32.949-13.358 59.352-47.411 67.353-99.82z" fill="#FFF"/><path d="M306.302 548.267c-36.922 0-80.03-20.108-107.308-63.167-7.464-11.342-10.718-24.583-9.648-39.317.922-12.693 5.077-25.804 12.016-37.916 11.85-20.687 29.394-34.09 43.722-33.349.245.013.486.061.717.144l19.231 6.911c2.298-20.155 16.072-125.948 55.771-165.675 24.139-24.156 48.908-40.416 77.949-51.172a2.502 2.502 0 0 1 3.367 2.293l5.675 273.075c.003.144-.006.287-.027.429-7.636 50.017-32.743 87.106-68.885 101.759-9.768 3.959-20.863 5.985-32.58 5.985zm-62.366-168.778c-12.149 0-27.729 12.521-38.236 30.865-14.544 25.388-15.48 52.317-2.504 72.034 34.558 54.553 95.165 70.926 133.807 55.26 34.416-13.953 58.387-49.544 65.788-97.667l-5.597-269.313c-26.933 10.495-50.163 26.058-72.854 48.766-17.201 17.213-32.106 51.277-43.104 98.508-8.36 35.901-11.543 67-11.574 67.31a2.497 2.497 0 0 1-3.333 2.102l-21.859-7.855c-.179-.007-.355-.01-.534-.01z" fill="#385CE3"/><path d="m433.954 520.931.809 156.34h255.83c1.773-55.919 5.319-183.149-52.128-204.454-52.513-19.476-152.271-4.98-204.511 48.114z"/><path d="m426.069 521.319-.136 76.973c35.02-25.938 65.74-56.697 83.868-85.305z"/><path d="M425.935 600.792a2.5 2.5 0 0 1-1.49-4.509c35.464-26.267 65.806-57.115 83.244-84.634a2.497 2.497 0 0 1 3.449-.773 2.499 2.499 0 0 1 .773 3.45c-17.755 28.02-48.551 59.356-84.49 85.975a2.49 2.49 0 0 1-1.486.491z" fill="#385CE3"/><path d="M336.94 285.418c4.213 56.681 24.67 125.003 54.897 163.999-11.564 37.386 3.977 63.15 34.232 71.903 68.384 2.329 149.402-17.287 217.396-48.503L534.742 217.666c-77.318-43.237-143.545-22.351-197.802 67.752z" fill="#FFF"/><path d="M436.933 524.002c-3.696 0-7.347-.061-10.949-.184a2.505 2.505 0 0 1-.609-.097c-15.553-4.499-27.248-13.319-33.82-25.506-7.087-13.141-7.938-29.816-2.481-48.293-14.209-18.67-26.925-44.602-36.817-75.101-9.351-28.828-15.675-60.512-17.809-89.217a2.5 2.5 0 0 1 4.987-.371c4.548 61.194 26.402 126.559 54.38 162.652.5.645.653 1.492.413 2.271-5.463 17.661-4.865 33.459 1.729 45.687 5.879 10.902 16.426 18.847 30.512 22.989 64.03 2.116 143.735-15.53 213.742-47.277L532.442 218.646a2.499 2.499 0 1 1 4.599-1.96l108.724 255.151a2.5 2.5 0 0 1-1.257 3.252c-67.399 30.942-144.06 48.912-207.575 48.913z" fill="#385CE3"/><path d="M543.695 319.997c10.236 23.375 29.143 68.775 56.681 104.861-17.287 50.316-43.5 141.114-53.869 208.753l94.191 43.66h21.145c2.298-15.128.957-31.051-2.251-46.468 63.336-19.051 104.049-167.916 94.88-233.47-9.828-70.267-54.285-156.658-137.774-214.87-39.636-27.636-107.234-36.255-161.909-28.7-12.869 1.778-24.936 4.17-36.364 7.291z" fill="#FFF"/><path d="M661.844 679.771h-21.146a2.5 2.5 0 0 1-1.052-.232l-94.191-43.66a2.5 2.5 0 0 1-1.419-2.647c9.83-64.128 34.546-152.388 53.543-207.925-25.438-33.7-43.283-74.7-53.991-99.302-.768-1.762-1.495-3.434-2.184-5.006a2.5 2.5 0 1 1 4.58-2.006 3803.11 3803.11 0 0 1 2.188 5.017c10.731 24.653 28.691 65.916 54.191 99.331.507.665.648 1.539.377 2.329-18.801 54.72-43.426 142.309-53.475 206.464l91.983 42.637h18.42c1.649-12.871.802-27.479-2.524-43.459a2.498 2.498 0 0 1 1.728-2.903c27.269-8.202 53.874-43.827 72.993-97.738 16.615-46.848 24.705-100.293 20.132-132.992-5.16-36.888-19.312-75.273-40.928-111.008-24.2-40.007-57.327-75.333-95.801-102.158-30.03-20.938-91.189-37.801-160.138-28.275-13.061 1.805-24.852 4.168-36.046 7.227a2.5 2.5 0 0 1-1.318-4.823c11.405-3.116 23.403-5.522 36.681-7.356 50.643-6.996 120.897-.705 163.681 29.126 39.043 27.222 72.66 63.071 97.219 103.671 21.963 36.309 36.349 75.35 41.602 112.903 4.675 33.423-3.511 87.818-20.37 135.355-9.023 25.445-20.129 47.788-32.115 64.613-13.167 18.483-27.28 30.427-41.979 35.538 3.248 16.591 3.864 31.772 1.832 45.154a2.502 2.502 0 0 1-2.473 2.125z" fill="#385CE3"/><path d="M393.649 169.892c-7.951 25.53-8.985 52.602-6.788 80.394l32.837-22.547 45.811 10.836c2.912-22.334-.075-57.622-13.49-75.659-3.119-4.194-7.001-7.272-12.2-6.736-14.962 1.543-28.381 6.648-46.17 13.712z"/><path d="m30.854 253.076 200.751-19.984 136.914 234.034-200.752 19.984z" fill="#748f9f"/><path d="m30.854 253.076 200.751-19.984 136.914 234.034-200.752 19.984z"/><path d="M167.766 489.61a2.5 2.5 0 0 1-2.157-1.238L28.696 254.338a2.498 2.498 0 0 1 1.91-3.75l200.751-19.983a2.513 2.513 0 0 1 2.406 1.226l136.913 234.034a2.498 2.498 0 0 1-1.91 3.75l-200.751 19.983a2.594 2.594 0 0 1-.249.012zM34.98 255.177l134.135 229.286 195.277-19.438-134.135-229.286zM320.254 72.633c-11.17-16.596-8.851-63.192 17.687-70.979 31.067-9.116 135.319 20.681 146.298 59.234 9.126 32.047-42.454 80.681-64.412 80.681-9.447 0-88.403-52.34-99.573-68.936z"/><path d="M322.852 65.468c-26.818 71.129-16.594 122.469 49.636 100.651 0 0 21.919 22.438 35.721 45.152 19.532 29.489 43.66-26.426 36.383-49.021l-30.936-33.594c12.64 1.265 21.406-8.896 19.298-18.53-2.424-11.079-13.363-8.957-16.906-4.632-8.987 16.415-22.115 13.229-13.344-3.686 7.897-15.231 2.811-42.033-16.835-54.963-13.933-9.17-49.021-16.851-63.017 18.623z" fill="#FFF"/><path d="M420.235 222.15c-4.107 0-9.182-2.059-14.109-9.499-11.815-19.441-29.818-38.884-34.359-43.672-24.718 7.837-42.852 5.96-53.919-5.585-15.775-16.458-14.805-52.472 2.666-98.808a.534.534 0 0 1 .014-.036c5.333-13.517 14.004-22.259 25.771-25.982 14.639-4.631 31.485-.038 40.945 6.188 9.604 6.32 16.631 16.285 19.787 28.06 2.886 10.764 2.099 22.032-2.106 30.143-3.541 6.828-2.729 10.194-1.814 10.681 1.56.833 6.492-1.577 10.747-9.347a2.47 2.47 0 0 1 .258-.383c2.787-3.402 8.24-5.164 12.69-4.095 2.543.61 7.041 2.691 8.592 9.777 1.15 5.257-.367 10.718-4.165 14.982-3.104 3.486-7.313 5.704-12.016 6.428l27.216 29.554c.245.266.43.583.541.927 5.297 16.449-5.152 51.719-20.853 59.27-1.508.725-3.539 1.397-5.886 1.397zm-47.747-58.531a2.5 2.5 0 0 1 1.788.753c.222.227 22.279 22.905 36.07 45.601 1.554 2.342 6.445 9.72 13.606 6.274 12.186-5.86 23.004-37.074 18.417-52.72l-30.553-33.177a2.499 2.499 0 0 1 2.088-4.181c5.381.541 10.33-1.255 13.592-4.919 2.721-3.055 3.819-6.914 3.015-10.588-.737-3.372-2.377-5.385-4.873-5.984-2.849-.682-6.06.614-7.523 2.247-5.733 10.323-13.055 13.423-17.357 11.128-3.52-1.875-5.439-7.43-.273-17.395 7.519-14.5 2.278-39.701-15.989-51.724-8.503-5.596-23.608-9.736-36.688-5.598-10.257 3.245-17.867 10.994-22.621 23.032-16.758 44.454-18.116 78.557-3.729 93.567 9.844 10.269 26.75 11.55 50.249 3.81a2.47 2.47 0 0 1 .781-.126z" fill="#385CE3"/><path d="M336.722 134.088c-.171 0-.34-.003-.509-.01-3.19-.124-7.799-1.476-11.641-7.214a2.501 2.501 0 0 1 4.155-2.781c2.145 3.203 4.729 4.885 7.68 5 3.664.135 7.604-2.147 10.86-6.279a2.5 2.5 0 1 1 3.928 3.095c-4.122 5.229-9.369 8.189-14.473 8.189z" fill="#385CE3"/><path d="m201.816 236.058 29.79-2.965c-8.508-13.316-15.854-18.456-21.131-17.815l-.004-.004-199.57 20.155c-19.793.526-9.216 84.861 82.064 123.818l189.733-20.164c-57.679-27.829-79.496-75.658-80.882-103.025z" fill="#FFF"/><path d="M92.965 361.746c-.336 0-.67-.068-.981-.201-40.98-17.49-63.45-42.889-75.083-61.117C1.564 276.398-1.468 255.23.596 244.405c1.355-7.11 5.049-11.284 10.139-11.472l199.483-20.146.12-.009c6.936-.721 14.981 5.837 23.373 18.969a2.5 2.5 0 0 1-1.858 3.834l-27.373 2.725c1.325 14.798 8.072 32.025 18.733 47.686 14.337 21.059 35.282 38.639 60.571 50.84a2.5 2.5 0 0 1-.821 4.738L93.23 361.732c-.089.01-.177.014-.265.014zm117.613-143.971L11.152 237.916a2.87 2.87 0 0 1-.185.012c-3.538.094-4.939 4.685-5.46 7.414-4.387 23.008 17.491 81.052 87.843 111.35l180.739-19.208c-22.721-12.319-41.63-29.027-55.009-48.679-11.738-17.242-18.941-36.421-19.762-52.62a2.5 2.5 0 0 1 2.249-2.614l25.64-2.552c-6.239-8.867-12.255-13.761-16.432-13.258a3.318 3.318 0 0 1-.197.014z" fill="#385CE3"/><path d="M151.893 464.162c-15.922.821-27.2-7.791-25.578-26.878-12.526 2.119-22.341-11.197-19.271-26.643-11.273-.686-19.163-15.363-11.685-30.947-13.893-6.418-18.691-27.182 8.113-46.474 9.965-7.172 19.033-10.686 25.907-11.287 16.667-1.457 19.514 14.497 12.993 21.641 13.316-2.115 18.491 13.158 9.169 27.163 13.231-2.78 21.085 10.639 7.87 28.77 11.386-5.924 17.894 2.061 14.941 17.161-1.643 8.401-8.505 16.091-15.287 26.154-1.783 11.684-7.172 21.34-7.172 21.34z" fill="#FFF"/><path d="M149.829 466.716c-8.224 0-14.956-2.487-19.565-7.253-4.487-4.639-6.742-11.322-6.593-19.453h-.006c-4.8 0-9.291-1.949-12.885-5.647-5.186-5.336-7.57-13.276-6.595-21.626-4.507-1.067-8.448-4.078-11.073-8.545-3.883-6.606-4.207-15.197-.972-23.374-5.918-3.542-9.753-9.497-10.408-16.343-.626-6.529 1.177-19.535 20.28-33.285 9.561-6.881 19.202-11.054 27.148-11.748 8.074-.699 14.386 2.318 17.338 8.293 2.029 4.105 2.076 9.119.372 13.282 3.912.532 7.188 2.574 9.338 5.923 3.556 5.542 3.401 13.419-.191 20.966 4.402.29 8.117 2.333 10.402 5.866 3.531 5.462 2.989 13.154-1.306 21.333 3.586-.332 6.023.894 7.389 1.915 4.567 3.416 6.136 10.751 4.303 20.127-1.357 6.943-5.799 13.148-10.941 20.333-1.442 2.015-2.93 4.093-4.415 6.281-1.91 11.735-7.147 21.215-7.373 21.619a2.499 2.499 0 0 1-2.054 1.278c-.742.039-1.474.058-2.193.058zm2.064-2.554h.01zm-25.578-29.378a2.503 2.503 0 0 1 2.491 2.712c-.688 8.093 1.012 14.314 5.051 18.49 3.733 3.859 9.392 5.83 16.49 5.726 1.438-2.895 4.916-10.544 6.247-19.268a2.51 2.51 0 0 1 .398-1.02c1.627-2.415 3.243-4.672 4.805-6.854 4.804-6.71 8.952-12.506 10.102-18.382 1.428-7.307.535-12.976-2.391-15.163-2.578-1.927-6.286-.684-8.943.699a2.5 2.5 0 0 1-3.175-3.69c7.33-10.057 7.302-17.724 4.83-21.545-1.97-3.044-5.675-4.25-10.166-3.305a2.502 2.502 0 0 1-2.595-3.832c5.342-8.025 5.125-15.682 2.541-19.71-1.93-3.007-5.116-4.253-9.237-3.599a2.51 2.51 0 0 1-2.593-1.284 2.501 2.501 0 0 1 .354-2.871c2.778-3.043 3.406-8.063 1.491-11.937-2.02-4.088-6.438-6.051-12.42-5.527-7.063.617-15.822 4.461-24.663 10.825-17.076 12.291-18.748 23.289-18.225 28.75.562 5.861 4.188 10.88 9.699 13.426a2.497 2.497 0 0 1 1.205 3.351c-3.508 7.311-3.579 15.117-.19 20.883 2.282 3.883 5.845 6.248 9.774 6.486a2.503 2.503 0 0 1 2.3 2.983c-1.501 7.548.365 15.116 4.869 19.75 3.17 3.263 7.266 4.662 11.532 3.941.141-.023.28-.035.419-.035z" fill="#385CE3"/><path d="M126.317 439.785a2.501 2.501 0 0 1-2.425-3.118c4.23-16.622 25.266-35.82 34.604-39.488a2.5 2.5 0 0 1 1.828 4.654c-7.426 2.917-27.722 20.88-31.587 36.067a2.5 2.5 0 0 1-2.42 1.885zm-19.275-26.643a2.5 2.5 0 0 1-2.271-3.54c12.767-27.919 40.484-39.229 45.911-41.213a2.5 2.5 0 0 1 1.717 4.697c-5.1 1.864-31.141 12.484-43.081 38.596a2.501 2.501 0 0 1-2.276 1.46zm-11.685-30.947a2.5 2.5 0 0 1-2.177-3.727c10.729-19.056 34.321-34.984 48.786-37.361a2.5 2.5 0 1 1 .81 4.934c-11.781 1.936-34.69 16.142-45.239 34.88a2.498 2.498 0 0 1-2.18 1.274z" fill="#385CE3"/><path d="M640.699 677.271c-22.085-55.915-105.191-65.106-144.26-41.213-36.288 22.193-40.852 64.947-34.493 84.896 6.122 19.205 20.775 23.008 31.731 9.946 8.291 36.071 35.73 25.698 35.333 10.672 13.184 13.3 26.275 3.019 29.01-13.409 4.704 6.053 11.078 5.645 17.006.705 7.984-6.652 15.037-28.017 9.994-51.6 21.466.003 39.338.003 55.679.003z" fill="#FFF"/><g fill="#385CE3"><path d="M514.463 757.914c-11.191 0-18.466-10.575-22.055-22.119-4.848 4.287-10.296 6.044-15.68 4.985-7.519-1.482-13.775-8.432-17.165-19.066-7.104-22.286-.711-65.599 35.57-87.788 23.535-14.393 60.798-16.887 92.718-6.207 26.723 8.94 46.315 26.212 55.172 48.634a2.503 2.503 0 0 1-2.325 3.419l-52.646-.001c2.226 12.771.889 23.379-.709 30.218-2.189 9.37-6.095 16.952-10.716 20.803-3.856 3.212-7.905 4.696-11.697 4.282-1.933-.209-3.771-.913-5.448-2.072-2.431 8.335-7.476 14.479-13.757 16.477-4.866 1.549-10.049.458-14.921-3.067-1.884 5.873-7.316 10.506-13.996 11.353-.8.099-1.581.148-2.345.149zm-20.786-29.513a2.501 2.501 0 0 1 2.437 1.94c2.7 11.746 9.388 23.821 20.065 22.462 5.939-.753 10.479-5.657 10.333-11.164a2.5 2.5 0 0 1 4.275-1.826c4.521 4.56 9.163 6.256 13.423 4.9 5.466-1.739 9.92-8.396 11.346-16.959a2.5 2.5 0 0 1 4.44-1.123c1.622 2.086 3.463 3.254 5.473 3.472 2.426.262 5.17-.829 7.959-3.152 6.996-5.83 14.068-26.155 9.15-49.156a2.498 2.498 0 0 1 2.444-3.023l51.894.001c-8.897-19.367-26.739-34.312-50.648-42.311-30.126-10.08-66.527-7.723-88.522 5.731-33.999 20.792-40.039 61.225-33.416 82.004 2.819 8.845 7.692 14.56 13.369 15.679 4.73.932 9.724-1.405 14.065-6.58a2.486 2.486 0 0 1 1.913-.895z"/><path d="M493.674 733.401a2.501 2.501 0 0 1-2.465-2.098c-5.671-34.756 1.33-68.952 17.836-87.117a2.5 2.5 0 0 1 3.701 3.362c-15.521 17.081-22.037 49.64-16.602 82.95a2.5 2.5 0 0 1-2.47 2.903zm35.339 10.672a2.502 2.502 0 0 1-2.227-1.36c-4.651-9.075-7.364-25.462-6.91-41.749.396-14.237 3.24-35.006 14.531-53.102a2.5 2.5 0 0 1 4.242 2.646c-19.286 30.909-15.078 74.971-7.414 89.923a2.5 2.5 0 0 1-2.222 3.642zm29.01-13.409a2.49 2.49 0 0 1-1.94-.922c-11.347-13.938-7.989-55.724 6.193-77.088a2.5 2.5 0 0 1 4.166 2.766c-13.971 21.043-15.757 59.772-6.482 71.166a2.5 2.5 0 0 1-1.937 4.078zM201.816 238.558a2.5 2.5 0 0 1-2.5-2.5c0-22.017 9.89-23.212 11.017-23.276l.283 4.992.096-.008c-.064.009-6.396 1.104-6.396 18.292a2.5 2.5 0 0 1-2.5 2.5z"/></g></svg></g><g transform="translate(362.0 277.0) rotate(0.0 172.0 112.5) scale(1.0003402319975108 1.0030626847307111)"><svg width="343.883" height="224.313" viewBox="0 0 343.883 224.313"><g xmlns:xlink="http://www.w3.org/1999/xlink"><g><g><path style="fill:#fff" d="M5.721 0h309.794a5.72 5.72 0 0 1 5.688 5.115l22.647 212.873a5.72 5.72 0 0 1-5.688 6.325H28.238a5.72 5.72 0 0 1-5.689-5.119L.032 6.322A5.721 5.721 0 0 1 5.721 0z"/><path style="fill:#385ce3" d="M5.721 0h309.794a5.72 5.72 0 0 1 5.688 5.115l22.647 212.873a5.72 5.72 0 0 1-5.688 6.325l-51.78-.001c-50.514-46.624-179.194-38.964-203.841.001H28.238a5.72 5.72 0 0 1-5.689-5.119L.032 6.322A5.721 5.721 0 0 1 5.721 0z"/><g><defs><path id="g" d="M5.721 0h309.794a5.72 5.72 0 0 1 5.688 5.115l22.647 212.873a5.72 5.72 0 0 1-5.688 6.325H28.238a5.72 5.72 0 0 1-5.689-5.119L.032 6.322A5.721 5.721 0 0 1 5.721 0z" fill="#000"/></defs><clipPath id="h"><use xlink:href="#g" style="overflow:visible"/></clipPath><g style="clip-path:url(#h)"><path style="fill:#fff" d="M209.402 77.615c2.394 22.426-13.842 40.608-36.266 40.608s-42.54-18.181-44.931-40.608c-2.391-22.424 13.847-40.601 36.267-40.601s42.536 18.177 44.93 40.601zm79.903 162.619c6.093 57.001-35.159 103.219-92.14 103.219S89.072 297.235 83.001 240.234c-6.069-56.989 35.186-103.179 92.144-103.179s108.069 46.19 114.16 103.179z"/></g></g></g></g></g></svg></g><g transform="translate(390.0 529.0) rotate(0.0 172.0 112.5) scale(1.0003402319975108 1.0030626847307111)"><svg width="343.883" height="224.313" viewBox="0 0 343.883 224.313"><g xmlns:xlink="http://www.w3.org/1999/xlink"><g><g><path style="fill:#fff" d="M5.721 0h309.794a5.72 5.72 0 0 1 5.688 5.115l22.647 212.873a5.72 5.72 0 0 1-5.688 6.325H28.238a5.72 5.72 0 0 1-5.689-5.119L.032 6.322A5.721 5.721 0 0 1 5.721 0z"/><path style="fill:#000" d="M5.721 0h309.794a5.72 5.72 0 0 1 5.688 5.115l22.647 212.873a5.72 5.72 0 0 1-5.688 6.325l-51.78-.001c-50.514-46.624-179.194-38.964-203.841.001H28.238a5.72 5.72 0 0 1-5.689-5.119L.032 6.322A5.721 5.721 0 0 1 5.721 0z"/><g><defs><path id="i" d="M5.721 0h309.794a5.72 5.72 0 0 1 5.688 5.115l22.647 212.873a5.72 5.72 0 0 1-5.688 6.325H28.238a5.72 5.72 0 0 1-5.689-5.119L.032 6.322A5.721 5.721 0 0 1 5.721 0z" fill="#000"/></defs><clipPath id="j"><use xlink:href="#i" style="overflow:visible"/></clipPath><g style="clip-path:url(#j)"><path style="fill:#fff" d="M209.402 77.615c2.394 22.426-13.842 40.608-36.266 40.608s-42.54-18.181-44.931-40.608c-2.391-22.424 13.847-40.601 36.267-40.601s42.536 18.177 44.93 40.601zm79.903 162.619c6.093 57.001-35.159 103.219-92.14 103.219S89.072 297.235 83.001 240.234c-6.069-56.989 35.186-103.179 92.144-103.179s108.069 46.19 114.16 103.179z"/></g></g></g></g></g></svg></g></svg>