<?xml version="1.0" encoding="utf-8"?>
<!-- Generator: Adobe Illustrator 25.3.0, SVG Export Plug-In . SVG Version: 6.00 Build 0)  -->
<svg version="1.1" id="Capa_1" xmlns="http://www.w3.org/2000/svg" xmlns:xlink="http://www.w3.org/1999/xlink" x="0px" y="0px"
	 viewBox="0 0 1080 591.65" style="enable-background:new 0 0 1080 591.65;" xml:space="preserve">
<style type="text/css">
	.st0{fill:#385CFF;}
</style>
<g>
	<rect x="765.72" y="258.95" class="st0" width="29.35" height="126.81"/>
	<path class="st0" d="M287.41,292.02v28.62h54.82l-0.33,0.98c-3.82,11.29-10.64,20.39-20.27,27.02c-9.78,6.8-20.71,10.24-32.5,10.24
		c-15.44,0-28.66-5.63-39.27-16.75c-10.61-11.1-16-25.23-16-41.97c0-16.56,5.55-30.69,16.5-41.96c10.95-11.29,24.83-17,41.24-17
		c10.77,0,20.69,2.6,29.48,7.75c8.62,5.05,15.5,12.09,20.45,20.94l30.69-11.56c-7.45-14.43-18.27-25.95-32.15-34.24
		c-14.29-8.77-30.6-13.22-48.47-13.22c-25.83,0-47.64,8.64-64.85,25.7c-17.21,16.72-25.93,38.12-25.93,63.61
		c0,25.19,8.55,46.68,25.44,63.87c16.87,16.88,38.2,25.44,63.37,25.44c25.34,0,46.65-8.65,63.37-25.69
		c16.88-17.37,25.44-38.86,25.44-63.87c0-0.73-0.14-3.32-0.44-7.89H287.41z"/>
	<path class="st0" d="M781.24,211.07c-4.81,0-8.85,1.6-12.02,4.77c-3.17,3.18-4.78,7.22-4.78,12.02c0,4.82,1.61,8.9,4.78,12.13
		c3.17,3.24,7.21,4.89,12.01,4.89c4.95,0,9.07-1.65,12.23-4.89c3.17-3.23,4.78-7.31,4.78-12.13c0-4.8-1.64-8.84-4.88-12.02
		C790.13,212.68,786.05,211.07,781.24,211.07"/>
	<path class="st0" d="M847.35,233.79h-29.35l-0.01,101.9c0,31.23,16.89,49.92,45.18,50.02h1.02l-0.01,0.05h14.99v-27.88h-10.87
		c-14.29-0.01-20.96-7.31-20.96-22.98l-0.01-50.54h31.83v-25.41h-31.83V233.79z"/>
	<path class="st0" d="M427.11,334.9V202.18h-29.35l-0.01,133.51c0,31.23,16.89,49.93,45.18,50.02h0.88l-0.01,0.05h6.42v-27.88h-2.15
		C433.77,357.88,427.11,350.58,427.11,334.9"/>
	<path class="st0" d="M728.39,274.53c-12.71-12.71-28.76-19.19-47.72-19.27c-0.14-0.01-0.22,0-0.38-0.01
		c-12.68,0-24.82,3.85-36.07,11.44l-1.16,0.79v-65.27h-29.35v89.3l-0.19,0.21c-6.14,6.9-14.79,10.8-25.73,11.58l-0.66,0.28
		l-0.27-0.79c-2.96-10.69-8.58-20.2-16.75-28.25c-2.51-2.52-5.2-4.83-8-6.87c-7.83-5.72-16.77-9.51-26.58-11.25
		c-4.28-0.77-8.82-1.15-13.49-1.15c-19.12,0-35.3,6.49-48.08,19.27c-12.62,12.64-19.02,28.72-19.02,47.84
		c0,19.12,6.4,35.3,19.02,48.08c12.95,12.62,29.13,19.03,48.08,19.03c18.95,0,35.13-6.41,48.08-19.03
		c10.7-10.71,17.01-23.82,18.76-38.96l0.07-0.59l0.59-0.07c12.92-1.36,26.17-6.02,38.33-13.43c11.84-7.51,23.27-19.4,25.43-21.71
		c2.03-1.97,6.05-5.57,10.5-7.87c3.35-1.64,6.99-2.73,10.83-3.25c0.98-0.13,2.99-0.31,5.64-0.32c10.5,0,19.39,3.68,26.48,10.93
		c7.09,7.27,10.68,16.4,10.68,27.19s-3.59,19.94-10.68,27.19c-7.08,7.26-15.98,10.94-26.44,10.94c-10.46,0-19.36-3.68-26.46-10.94
		c-7.08-7.25-10.67-16.4-10.67-27.19c0-0.32,0.01-0.63,0.02-0.95c-8.72,7.13-18.27,12.69-28.41,16.54
		c2.58,12.45,8.45,23.38,17.45,32.49c12.94,12.62,29.12,19.03,48.08,19.03c18.94,0,35.13-6.41,48.08-19.03
		c12.79-12.79,19.27-28.96,19.27-48.08C747.66,303.25,741.18,287.16,728.39,274.53L728.39,274.53z M558.83,327.91
		c-1.03,8.39-4.51,15.67-10.35,21.64h0.01c-7.08,7.26-15.98,10.94-26.44,10.94c-10.47,0-19.36-3.68-26.45-10.94
		c-7.09-7.25-10.68-16.4-10.68-27.19s3.59-19.92,10.68-27.19c7.09-7.25,15.99-10.93,26.45-10.93c1.71,0,3.37,0.1,4.92,0.28
		l0.63,0.08l0.02,0.64c0.34,10.07,3.8,19.48,10.03,27.18c5.42,6.52,12.4,11.47,20.72,14.7l0.54,0.2L558.83,327.91z"/>
</g>
</svg>
