<svg xmlns="http://www.w3.org/2000/svg" viewBox="0 0 3000 3000" width="3000" height="3000"><g transform="translate(1988.3999999999999 1801.2) rotate(0.0 328.19999999999993 313.19999999999993) scale(1.2013155173581307 1.2015583429083312)"><svg width="546.401" height="521.323" viewBox="0 0 546.401 521.323"><g><path d="m413.063 27.706 21.073 46.251 15.635 73.397-21.073-46.251z" fill="#3658c1"/><path d="M449.771 148.354c-.382 0-.744-.221-.91-.585l-21.073-46.251a1.004 1.004 0 0 1-.068-.207l-15.635-73.397a.998.998 0 0 1 .665-1.157 1.003 1.003 0 0 1 1.224.534l21.073 46.251c.03.066.053.136.068.207l15.635 73.397a.998.998 0 0 1-.979 1.208zm-20.118-47.566 17.232 37.822-13.705-64.338-17.231-37.822z" fill="#111"/><path d="m67.535 334.389 21.072 46.25L22.073 340.1 1 293.849z" fill="#3658c1"/><path d="M88.607 381.639c-.179 0-.359-.048-.521-.146l-66.535-40.539a1.002 1.002 0 0 1-.39-.438L.09 294.264a1 1 0 0 1 1.431-1.268l66.535 40.539c.171.104.307.257.39.438l21.072 46.251a1 1 0 0 1-.911 1.415zm-65.752-42.233 63.492 38.686-19.595-43.009L3.26 296.397z" fill="#111"/><path d="m507.358 121.625 21.073 46.25-31.986 74.057-21.072-46.251z" fill="#3658c1"/><path d="M496.445 242.932a1 1 0 0 1-.91-.585l-21.072-46.251a1.003 1.003 0 0 1-.008-.812l31.985-74.056c.157-.363.513-.6.908-.604h.01a1 1 0 0 1 .91.585l21.073 46.251c.117.258.12.552.008.812l-31.985 74.056c-.157.363-.513.6-.908.604h-.011zm-19.978-47.262 19.954 43.796 30.916-71.579-19.955-43.796z" fill="#111"/><path d="m143.486 410.052 21.073 46.25-84.473 1.179-21.072-46.251z" fill="#3658c1"/><path d="M80.086 458.48a1 1 0 0 1-.91-.585l-21.073-46.25a1.002 1.002 0 0 1 .896-1.415l84.473-1.179h.014a1 1 0 0 1 .91.585l21.072 46.251a1.002 1.002 0 0 1-.896 1.415L80.1 458.48h-.014zm-19.528-46.271 20.167 44.263 82.288-1.147-20.167-44.264z" fill="#111"/><path d="m524.328 252.951 21.073 46.25-69.434 51.19-21.072-46.25z" fill="#3658c1"/><path d="M475.967 351.391a.998.998 0 0 1-.91-.585l-21.073-46.251a1 1 0 0 1 .317-1.22l69.434-51.19a.999.999 0 0 1 1.504.39l21.073 46.251a1 1 0 0 1-.317 1.22l-69.434 51.19a1.001 1.001 0 0 1-.594.195zm-19.826-46.927 20.226 44.392 67.789-49.978-20.226-44.392z" fill="#111"/><path d="m181.985 474.072 21.072 46.251-38.498-64.021-21.073-46.25z" fill="#3658c1"/><path d="M203.058 521.323a1 1 0 0 1-.858-.484l-38.499-64.021a.97.97 0 0 1-.053-.101l-21.072-46.251a1 1 0 0 1 1.767-.931l38.499 64.021a.97.97 0 0 1 .053.101l21.073 46.251a1 1 0 0 1-.91 1.415zm-37.613-65.487 29.43 48.94-13.776-30.237-29.43-48.94z" fill="#111"/><path d="m257.636 431.538 21.073 46.25-75.652 42.535-21.072-46.251z" fill="#3658c1"/><path d="M203.058 521.323a1.004 1.004 0 0 1-.911-.585l-21.073-46.251a1 1 0 0 1 .42-1.287l75.651-42.534a1.004 1.004 0 0 1 1.401.457l21.073 46.25a1 1 0 0 1-.42 1.287l-75.651 42.535a1.004 1.004 0 0 1-.49.128zm-19.782-46.829 20.24 44.424 73.902-41.552-20.24-44.423z" fill="#111"/><path d="m454.895 304.141 21.072 46.25 3.642 75.857-21.073-46.251z" fill="#3658c1"/><path d="M479.608 427.248c-.384 0-.744-.223-.91-.585l-21.073-46.251a1.014 1.014 0 0 1-.089-.367l-3.642-75.856a1 1 0 0 1 1.91-.463l21.073 46.251c.052.116.083.24.089.367l3.642 75.856a1 1 0 0 1-1 1.048zm-20.082-47.491 18.834 41.339-3.383-70.464-18.834-41.339z" fill="#111"/><path d="m458.536 379.997 21.073 46.251-84.805 12.039-21.073-46.251z" fill="#3658c1"/><path d="M394.804 439.287c-.387 0-.746-.226-.91-.585l-21.073-46.251a1 1 0 0 1 .769-1.406l84.805-12.039c.439-.063.867.173 1.051.575l21.073 46.251a1 1 0 0 1-.769 1.406l-84.805 12.039a.975.975 0 0 1-.141.01zm-19.608-46.449 20.208 44.354 82.74-11.746-20.208-44.354z" fill="#111"/><path d="m373.731 392.036 21.073 46.251-42.819 70.387-21.073-46.251z" fill="#3658c1"/><path d="m351.985 509.674-.06-.002a.998.998 0 0 1-.851-.583l-21.073-46.25a1.003 1.003 0 0 1 .056-.935l42.819-70.388a.998.998 0 0 1 1.765.104l21.073 46.251c.137.302.116.651-.056.935l-42.819 70.387a1 1 0 0 1-.854.481zm-19.944-47.183 20.07 44.05 41.563-68.321-20.07-44.051z" fill="#111"/><path d="m413.063 27.706 15.635 73.397 78.66 20.522-31.985 74.056 48.955 57.27-69.433 51.19 3.641 75.856-84.805 12.039-42.819 70.387-73.276-30.885-75.651 42.534-38.499-64.02-84.472 1.178 8.521-76.841L1 293.849l52.859-65.271-27.377-69.373 80.364-32.948 20.404-76.206 82.376 9.81L271.348 1l58.28 49.495z" fill="#b0c3ff"/><path d="M181.986 475.072a1 1 0 0 1-.858-.484l-38.203-63.528-83.897 1.171a.976.976 0 0 1-.754-.328.996.996 0 0 1-.253-.782l8.451-76.209L.479 294.703a1.002 1.002 0 0 1-.257-1.483l52.492-64.818-27.162-68.829a.999.999 0 0 1 .551-1.292l79.905-32.762 20.276-75.727c.129-.48.591-.791 1.084-.734l81.909 9.753L270.658.276a.998.998 0 0 1 1.337-.038l57.877 49.153 82.927-22.65a.997.997 0 0 1 1.242.757l15.506 72.794 78.062 20.365a1 1 0 0 1 .665 1.364l-31.738 73.483 48.55 56.796a1 1 0 0 1-.167 1.454l-69.002 50.873 3.616 75.321a1 1 0 0 1-.858 1.038L374.34 392.96l-42.574 69.983a1 1 0 0 1-1.243.402l-72.825-30.696-75.224 42.295a.99.99 0 0 1-.488.128zm-38.5-66.02c.351 0 .676.184.857.484l37.998 63.188 74.805-42.059a1.01 1.01 0 0 1 .879-.05l72.481 30.551 42.371-69.65a1 1 0 0 1 .714-.471l83.903-11.911-3.598-74.946a1 1 0 0 1 .406-.853l68.568-50.553-48.257-56.453a1 1 0 0 1-.158-1.046l31.522-72.985-77.532-20.228a1.002 1.002 0 0 1-.726-.76l-15.414-72.362-82.413 22.512c-.319.086-.66.011-.911-.202L271.387 2.345l-61.07 58.239a.995.995 0 0 1-.808.27l-81.516-9.706-20.18 75.368a1 1 0 0 1-.586.666l-79.451 32.575 27.014 68.454a1 1 0 0 1-.153.996l-52.14 64.384 65.559 39.943c.332.202.516.579.474.965l-8.397 75.716 83.34-1.163z" fill="#111"/><path d="m394.219 178.769-19.715-10.328-248.096 136.683 19.845 10.396zm-70.866 92.378c-13.344-6.99-27.494-8.089-42.451-3.296-14.963 4.754-28.187 15.119-39.633 31.046-11.538 16.054-16.39 30.839-14.576 44.381 1.77 13.555 9.327 23.828 22.671 30.819 13.317 6.976 27.513 8.063 42.619 3.313 15.078-4.764 28.346-15.14 39.81-31.091 11.392-15.85 16.181-30.6 14.325-44.234-1.882-13.65-9.448-23.962-22.765-30.938m-62.304 86.691c-15.598-8.171-14.923-24.023 1.98-47.542 16.83-23.418 33.041-31.062 48.639-22.891 15.756 8.254 15.223 24.11-1.608 47.528-16.903 23.519-33.255 31.159-49.011 22.905m-51.87-161.408c-15.571-8.157-14.934-23.959 1.897-47.377 16.848-23.443 33.042-31.061 48.614-22.904 15.782 8.267 15.266 24.098-1.582 47.542-16.832 23.418-33.147 31.006-48.929 22.739m62.194-86.538c-13.317-6.976-27.466-8.076-42.404-3.309-14.982 4.78-28.188 15.12-39.652 31.072-11.464 15.951-16.281 30.686-14.484 44.254 1.788 13.53 9.345 23.802 22.662 30.778 13.344 6.99 27.52 8.104 42.563 3.39 15.086-4.723 28.319-15.05 39.783-31.001s16.254-30.701 14.353-44.325c-1.892-13.583-9.477-23.868-22.821-30.859" fill="#fff"/><path d="M274.062 381.286c-8.729 0-17.143-2.103-25.162-6.304-13.587-7.118-21.392-17.742-23.199-31.575-1.84-13.737 3.124-28.91 14.755-45.095 11.534-16.048 25.04-26.617 40.142-31.414 15.148-4.854 29.69-3.725 43.218 3.362 13.533 7.09 21.37 17.751 23.292 31.687 1.881 13.822-2.999 28.946-14.504 44.955-11.551 16.072-25.118 26.657-40.321 31.46-6.199 1.95-12.283 2.924-18.221 2.924zm24.647-115.338c-5.718 0-11.561.951-17.502 2.855-14.686 4.665-27.849 14.985-39.126 30.677-11.323 15.755-16.167 30.446-14.396 43.664 1.717 13.153 9.167 23.268 22.144 30.066 12.987 6.803 27.068 7.894 41.855 3.244 14.782-4.67 28.004-15.006 39.298-30.721 11.196-15.578 15.956-30.22 14.146-43.516-1.829-13.257-9.311-23.414-22.239-30.187-7.739-4.052-15.826-6.082-24.18-6.082zm-25.306 96.095c-4.317 0-8.591-1.104-12.818-3.319-6.132-3.212-9.908-7.654-11.222-13.204-2.119-8.944 2.207-20.992 12.855-35.808 17.094-23.785 33.888-31.587 49.915-23.192 6.25 3.274 10.096 7.788 11.429 13.418 2.119 8.945-2.151 20.916-12.689 35.58-12.688 17.653-25.243 26.524-37.47 26.525zm26.163-76.753c-11.516 0-23.484 8.558-35.725 25.59-10.295 14.323-14.511 25.823-12.533 34.18 1.175 4.96 4.608 8.961 10.204 11.893 15.182 7.951 31.242.347 47.736-22.603 10.185-14.172 14.346-25.595 12.367-33.952-1.194-5.04-4.696-9.113-10.411-12.106-3.821-2.003-7.704-3.002-11.638-3.002zm-153.313 31.229a1 1 0 0 1-.464-.114l-19.845-10.396a1 1 0 0 1-.018-1.762l248.097-136.682a.998.998 0 0 1 .946-.01l19.714 10.327a1 1 0 0 1 .019 1.762l-247.966 136.75a.996.996 0 0 1-.483.125zm-17.732-11.418 17.72 9.282 245.866-135.592-17.591-9.215zm93.776-85.186c-8.748 0-17.199-2.116-25.266-6.342-13.562-7.105-21.364-17.714-23.189-31.533-1.823-13.765 3.111-28.895 14.663-44.969 11.527-16.038 25.039-26.616 40.16-31.441 15.146-4.831 29.67-3.697 43.172 3.377 13.56 7.104 21.416 17.737 23.348 31.607 1.924 13.796-2.964 28.951-14.531 45.046-11.542 16.06-25.1 26.614-40.296 31.371-6.139 1.924-12.168 2.884-18.061 2.884zm24.437-115.217c-5.704 0-11.532.945-17.461 2.838-14.703 4.69-27.873 15.021-39.144 30.703-11.245 15.646-16.058 30.295-14.305 43.539 1.735 13.137 9.183 23.237 22.135 30.023 13.014 6.817 27.077 7.936 41.8 3.321 14.774-4.625 27.986-14.931 39.27-30.631 5.648-7.858 9.702-15.516 12.049-22.759 2.335-7.205 3.05-14.218 2.126-20.844-1.838-13.193-9.339-23.324-22.295-30.111-7.732-4.05-15.819-6.079-24.175-6.079zm-25.146 95.953c-4.333.001-8.625-1.11-12.873-3.336-6.135-3.213-9.912-7.655-11.226-13.203-2.112-8.918 2.186-20.909 12.774-35.643 17.095-23.785 33.881-31.593 49.889-23.206 6.269 3.283 10.124 7.806 11.458 13.44 2.117 8.939-2.153 20.906-12.692 35.57-12.615 17.556-25.124 26.377-37.33 26.378zm26.02-76.611c-11.51 0-23.477 8.561-35.721 25.598-10.235 14.241-14.425 25.685-12.452 34.014 1.175 4.959 4.609 8.96 10.207 11.893 15.2 7.964 31.231.412 47.652-22.438 10.186-14.172 14.347-25.592 12.37-33.941-1.195-5.046-4.708-9.127-10.439-12.13-3.813-1.998-7.689-2.996-11.617-2.996z" fill="#111"/><path d="m330.912 462.423 21.073 46.251-73.276-30.886-21.073-46.25z" fill="#3658c1"/><path d="M351.985 509.674a.992.992 0 0 1-.388-.078l-73.276-30.886a1.005 1.005 0 0 1-.522-.507l-21.073-46.25a1.002 1.002 0 0 1 .193-1.112 1.003 1.003 0 0 1 1.105-.225l73.276 30.886c.231.098.418.279.522.507l21.073 46.25a1.002 1.002 0 0 1-.91 1.415zm-72.528-32.656 70.556 29.739-19.849-43.564-70.556-29.739z" fill="#111"/></g></svg></g><g transform="translate(2596.7999999999997 352.8) rotate(4.252495338432176 -397.79999999999984 541.8) scale(-1.200304149467738 1.201153266757784)"><svg width="662.832" height="902.133" viewBox="0 0 662.832 902.133"><linearGradient id="a" gradientUnits="userSpaceOnUse" x1="395.22" x2="548.246" y1="511.695" y2="896.776"><stop offset="0" stop-color="#111"/><stop offset=".686" stop-color="#3658c1"/></linearGradient><linearGradient id="b" gradientUnits="userSpaceOnUse" x1="97.134" x2="240.314" y1="256.706" y2="585.659"><stop offset="0" stop-color="#111"/><stop offset="1" stop-color="#3658c1"/></linearGradient><path d="m450.622 339.188-50.96 6.175a7.637 7.637 0 0 1 2.465-.766l50.961-6.174a7.631 7.631 0 0 0-2.466.765" fill="#fff"/><path d="M399.661 346.363a1 1 0 0 1-.443-1.9 8.653 8.653 0 0 1 2.789-.863l50.952-6.173h.009a1 1 0 0 1 .24 1.985h-.008a6.669 6.669 0 0 0-2.135.668 1 1 0 0 1-.324.1l-50.96 6.175a.98.98 0 0 1-.12.008z" fill="#111"/><path d="M572.866 891.244 417.487 500.81a5.587 5.587 0 0 0-5.762-3.7l-50.96 6.174a5.587 5.587 0 0 1 5.762 3.7l155.379 390.435a5.591 5.591 0 0 0 5.757 3.678l50.96-6.175a5.589 5.589 0 0 1-5.757-3.678z" fill="url(#a)"/><path d="M527.067 902.133a6.688 6.688 0 0 1-6.091-4.345L365.6 507.355a4.57 4.57 0 0 0-4.713-3.075 1 1 0 1 1-.241-1.985h.008l50.953-6.174a6.626 6.626 0 0 1 6.811 4.32l155.377 390.433a4.614 4.614 0 0 0 4.708 3.056 1 1 0 1 1 .24 1.985h-.006l-50.954 6.174a5.954 5.954 0 0 1-.716.044zm-161.694-398.4a7.154 7.154 0 0 1 2.083 2.879l155.379 390.437a4.612 4.612 0 0 0 4.707 3.055l46.465-5.63a7.109 7.109 0 0 1-2.07-2.86L416.558 501.18a4.569 4.569 0 0 0-4.713-3.075z" fill="#111"/><path d="M399.662 345.363 263.12 447.633a4.881 4.881 0 0 1-1.445.408l50.961-6.175a4.864 4.864 0 0 0 1.444-.407l136.542-102.271z" fill="#fff"/><path d="M261.674 449.041a1 1 0 0 1-.119-1.993 3.887 3.887 0 0 0 1.057-.284l136.45-102.2a1 1 0 0 1 .479-.192L450.5 338.2a1 1 0 0 1 .72 1.793L314.68 442.259a.979.979 0 0 1-.184.109 5.884 5.884 0 0 1-1.74.491l-50.949 6.173h-.012a.982.982 0 0 1-.121.009zm138.373-102.718-133.7 100.145 46.172-5.594a3.887 3.887 0 0 0 1.056-.284l133.456-99.959z" fill="#111"/><path d="M265.509 597.1 124.47 242.7a5.591 5.591 0 0 0-5.758-3.679l-50.96 6.179a5.593 5.593 0 0 1 5.758 3.68l141.039 354.4a5.273 5.273 0 0 0 5.726 3.462l50.96-6.175a5.274 5.274 0 0 1-5.726-3.467z" fill="url(#b)"/><path d="M219.531 607.784a6.238 6.238 0 0 1-5.911-4.138L72.581 249.244a4.617 4.617 0 0 0-4.709-3.056 1 1 0 0 1-.24-1.986l50.96-6.174a6.613 6.613 0 0 1 6.808 4.3l141.039 354.4a4.276 4.276 0 0 0 4.676 2.839 1 1 0 1 1 .24 1.985l-50.96 6.175a7.27 7.27 0 0 1-.864.057zM72.368 245.643a7.1 7.1 0 0 1 2.071 2.862l141.039 354.4a4.275 4.275 0 0 0 4.676 2.839l46.285-5.608a6.8 6.8 0 0 1-1.859-2.666l-141.039-354.4a4.614 4.614 0 0 0-4.709-3.056z" fill="#111"/><path d="M80.778 1.464 29.817 7.638a5.124 5.124 0 0 1 1.512-.427L82.29 1.036a5.147 5.147 0 0 0-1.512.428" fill="#fff"/><path d="M29.817 8.638a1 1 0 0 1-.415-1.91 6.12 6.12 0 0 1 1.807-.51L82.166.044a1 1 0 1 1 .241 1.985H82.4a4.138 4.138 0 0 0-1.21.343.976.976 0 0 1-.3.083L29.938 8.631a.993.993 0 0 1-.121.007z" fill="#111"/><path d="M29.817 7.638a5.73 5.73 0 0 0-3.249 4.75L1.034 265.57c-.4 3.973 2.754 7.157 6.151 6.746l50.96-6.175c-3.4.412-6.551-2.773-6.15-6.746L77.528 6.213a5.729 5.729 0 0 1 3.25-4.749z" fill="#fff"/><path d="M6.594 273.352a6.342 6.342 0 0 1-4.43-1.869A7.323 7.323 0 0 1 .04 265.47L25.573 12.288A6.721 6.721 0 0 1 29.4 6.729a.984.984 0 0 1 .295-.083L80.657.471a1 1 0 0 1 .536 1.9 4.743 4.743 0 0 0-2.67 3.941L52.989 259.5a5.344 5.344 0 0 0 1.535 4.385 4.277 4.277 0 0 0 3.5 1.268 1 1 0 1 1 .24 1.985h-.016l-50.943 6.171a6.056 6.056 0 0 1-.711.043zM30.1 8.611a4.763 4.763 0 0 0-2.537 3.877L2.029 265.67a5.34 5.34 0 0 0 1.535 4.385 4.283 4.283 0 0 0 3.5 1.268l46.482-5.632a6.877 6.877 0 0 1-.423-.382A7.327 7.327 0 0 1 51 259.3L76.534 6.113a7.164 7.164 0 0 1 1.147-3.267z" fill="#111"/><path d="M80.778 1.464a5.087 5.087 0 0 1 5.449.779l188.226 155.629c3.4 2.807 2.836 8.521-1.067 10.3l-57.554 26.268a6.131 6.131 0 0 0-2.82 7.853l93.867 235.869a5.431 5.431 0 0 0 7.2 3.3l136.543-102.274c3.673-1.819 6.941-.428 8.188 2.7l202.55 508.97a6.092 6.092 0 0 1-2.82 7.851L580.108 894.5a5.44 5.44 0 0 1-7.242-3.259L417.487 500.81a5.436 5.436 0 0 0-7.234-3.282L273.744 599.784c-3.72 1.841-6.987.451-8.234-2.683L124.47 242.7a5.441 5.441 0 0 0-7.242-3.26l-57.554 26.266c-3.9 1.781-8.14-1.744-7.679-6.311L77.528 6.213a5.731 5.731 0 0 1 3.25-4.749z" fill="#3658c1"/><path d="M578.023 895.959a6.137 6.137 0 0 1-2.29-.448 6.942 6.942 0 0 1-3.8-3.9L416.558 501.18a4.889 4.889 0 0 0-2.689-2.8 4.027 4.027 0 0 0-3.107.017L274.344 600.584a.961.961 0 0 1-.156.1 7.338 7.338 0 0 1-5.97.516 6.43 6.43 0 0 1-3.638-3.725L123.541 243.07a4.933 4.933 0 0 0-2.685-2.782 4.041 4.041 0 0 0-3.213.062l-57.554 26.266a6.116 6.116 0 0 1-6.16-.63A7.31 7.31 0 0 1 51 259.3L76.534 6.113A6.719 6.719 0 0 1 80.363.554a6.067 6.067 0 0 1 6.5.919L275.091 157.1a7.293 7.293 0 0 1 2.534 6.635 6.753 6.753 0 0 1-3.824 5.348l-57.554 26.267a5.121 5.121 0 0 0-2.306 6.573l93.868 235.869a4.9 4.9 0 0 0 2.7 2.807 3.979 3.979 0 0 0 3.066-.009l136.45-102.2a.961.961 0 0 1 .156-.1 7.362 7.362 0 0 1 5.914-.5 6.446 6.446 0 0 1 3.648 3.735l202.546 508.963a7.05 7.05 0 0 1-3.334 9.13l-78.432 35.794a6.011 6.011 0 0 1-2.5.547zm-165.7-399.884a6.143 6.143 0 0 1 2.291.449 6.871 6.871 0 0 1 3.8 3.917l155.381 390.433a4.934 4.934 0 0 0 2.683 2.781 4.049 4.049 0 0 0 3.215-.062l78.431-35.793a5.119 5.119 0 0 0 2.307-6.571l-202.55-508.966a4.466 4.466 0 0 0-2.506-2.606 5.286 5.286 0 0 0-4.229.388L314.68 442.259a1.015 1.015 0 0 1-.185.11 5.961 5.961 0 0 1-4.735.086 6.881 6.881 0 0 1-3.81-3.924l-93.868-235.868a7.14 7.14 0 0 1 3.334-9.132l57.555-26.266a4.766 4.766 0 0 0 2.671-3.791 5.3 5.3 0 0 0-1.826-4.831L85.59 3.014a4.107 4.107 0 0 0-4.4-.641l-.415-.909.415.909a4.744 4.744 0 0 0-2.669 3.941L52.99 259.5a5.3 5.3 0 0 0 2.1 4.864 4.082 4.082 0 0 0 4.164.436l57.554-26.266a6.028 6.028 0 0 1 4.79-.1 6.941 6.941 0 0 1 3.8 3.9l141.04 354.4a4.4 4.4 0 0 0 2.5 2.6 5.367 5.367 0 0 0 4.286-.4l136.434-102.2a1.007 1.007 0 0 1 .184-.11 5.986 5.986 0 0 1 2.481-.549z" fill="#111"/></svg></g><g transform="translate(678.0 609.6) rotate(0.0 738.0 838.8) scale(1.200781972650482 1.20058483424329)"><svg width="1229.199" height="1397.319" viewBox="0 0 1229.199 1397.319"><linearGradient id="c" gradientUnits="userSpaceOnUse" x1="425.802" x2="702.282" y1="501.393" y2="1284.753"><stop offset="0" stop-color="#3658c1"/><stop offset=".114" stop-color="#3454b7"/><stop offset=".309" stop-color="#2e499b"/><stop offset=".564" stop-color="#24366e"/><stop offset=".864" stop-color="#171d30"/><stop offset="1" stop-color="#111"/></linearGradient><linearGradient id="d" gradientUnits="userSpaceOnUse" x1="905.204" x2="1011.764" y1="679.262" y2="1127.102"><stop offset="0" stop-color="#3658c1"/><stop offset=".227" stop-color="#6985db"/><stop offset=".428" stop-color="#90a7ef"/><stop offset=".589" stop-color="#a7bbfb"/><stop offset=".69" stop-color="#b0c3ff"/><stop offset=".704" stop-color="#a6bafa"/><stop offset=".768" stop-color="#7e97e6"/><stop offset=".83" stop-color="#5f7cd6"/><stop offset=".891" stop-color="#4868ca"/><stop offset=".949" stop-color="#3b5cc3"/><stop offset="1" stop-color="#3658c1"/></linearGradient><g><path d="m1146.655 1259.785-737.727 103.681c-56.53 7.945-112.878-35.502-125.857-97.05L64.81 231.447c-10.51-49.842 10.643-96.266 49.09-116.342l-61.124 31.916c-38.447 20.075-59.601 66.5-49.09 116.342l218.26 1034.969c12.979 61.548 69.327 104.995 125.857 97.05l737.728-103.681c10.753-1.511 20.738-4.772 29.77-9.488l61.124-31.916c-9.031 4.716-19.016 7.977-29.77 9.488z" fill="url(#c)"/><path d="M334.439 1397.314c-52.19 0-101.441-41.73-113.471-98.776L2.708 263.569c-5.14-24.374-2.98-48.557 6.246-69.936 8.93-20.693 24.329-37.562 43.359-47.499l61.124-31.916a1 1 0 1 1 .926 1.774c-18.895 9.865-33.573 25.951-42.449 46.518-9.061 20.997-11.179 44.765-6.125 68.731L284.05 1266.21c12.852 60.942 68.813 104.125 124.74 96.266l737.727-103.681c10.415-1.463 20.322-4.621 29.445-9.385a1.003 1.003 0 0 1 1.35.424 1.002 1.002 0 0 1-.424 1.35l-61.124 31.916c-9.326 4.869-19.451 8.097-30.093 9.592l-737.728 103.681a97.08 97.08 0 0 1-13.504.941zm-236.8-1272.59L53.24 147.908c-18.895 9.865-33.573 25.951-42.449 46.518-9.062 20.997-11.18 44.765-6.125 68.731l218.26 1034.969c12.852 60.942 68.812 104.122 124.74 96.266l737.728-103.681c10.416-1.464 20.322-4.621 29.445-9.385l44.277-23.119a94.93 94.93 0 0 1-12.32 2.568l-.14-.99.14.99-737.727 103.681c-56.955 7.997-113.911-35.885-126.975-97.834L63.832 231.653c-5.14-24.373-2.98-48.557 6.246-69.936 6.3-14.597 15.819-27.292 27.561-36.993z" fill="#111"/><g><path d="M881.393 1.937c56.53-7.945 112.88 35.511 125.859 97.059l218.26 1034.969c12.98 61.548-22.327 117.876-78.857 125.821l-737.727 103.681c-56.53 7.945-112.878-35.502-125.857-97.05L64.811 231.447c-12.98-61.548 22.325-117.885 78.855-125.829z" fill="#fff"/><path d="M395.565 1365.398c-52.194.006-101.441-41.727-113.472-98.776L63.832 231.653c-6.672-31.638-.715-63.73 16.343-88.051 15.089-21.513 37.588-35.354 63.352-38.975L881.254.947l.14.99-.14-.99c56.961-7.992 113.911 35.889 126.977 97.843l218.261 1034.969c6.671 31.634.715 63.724-16.341 88.041-15.09 21.513-37.59 35.354-63.356 38.976l-737.727 103.682c-4.506.632-9.02.94-13.503.94zM894.772 2.004c-4.4 0-8.819.303-13.24.924l-737.727 103.68c-25.209 3.543-47.225 17.089-61.993 38.143-16.741 23.868-22.582 55.393-16.023 86.49L284.05 1266.21c11.836 56.125 60.235 97.188 111.5 97.19 4.4 0 8.818-.303 13.239-.924l737.728-103.682c25.211-3.543 47.229-17.09 61.996-38.144 16.739-23.865 22.579-55.386 16.021-86.48L1006.273 99.202C994.436 43.073 946.037 2.004 894.772 2.004z" fill="#111"/><path d="M911.088 137.419 171.182 241.406l55.635 263.818 739.907-103.987z" fill="#b0c3ff"/><path d="M226.816 506.224a1 1 0 0 1-.978-.794l-55.635-263.818a1.002 1.002 0 0 1 .84-1.196L910.95 136.429a1.001 1.001 0 0 1 1.117.784l55.635 263.818a1 1 0 0 1-.839 1.196L226.956 506.215a.95.95 0 0 1-.14.009zm-54.435-263.977 55.222 261.857 737.922-103.708-55.222-261.857z" fill="#111"/><path d="m956.063 463.674-124.61 17.513c-12.777 1.796-20.762 14.538-17.828 28.449 2.935 13.92 15.679 23.74 28.456 21.944l124.61-17.513c12.777-1.796 20.764-14.529 17.829-28.449-2.935-13.911-15.68-23.74-28.457-21.944" fill="#b0c3ff"/><path d="M839.064 532.79c-12.158.001-23.623-9.692-26.419-22.948-1.552-7.359-.159-14.835 3.821-20.51 3.536-5.043 8.81-8.287 14.847-9.136l124.609-17.513c13.282-1.875 26.539 8.33 29.574 22.729 1.553 7.361.161 14.838-3.818 20.511-3.536 5.042-8.81 8.286-14.849 9.135L842.22 532.57c-1.054.149-2.108.22-3.156.22zm117.138-68.126-124.609 17.513c-5.483.771-10.273 3.72-13.489 8.304-3.663 5.223-4.939 12.129-3.501 18.949 2.823 13.39 15.095 22.883 27.338 21.16l124.61-17.513c5.485-.771 10.276-3.72 13.49-8.303 3.662-5.222 4.938-12.128 3.499-18.95-2.823-13.391-15.094-22.877-27.338-21.16zm-.14-.99h.01z" fill="#111"/></g></g><g><path d="m472.791 785.652-20.526 9.912-131.971 18.547 20.525-9.912z" fill="#111"/><path d="M320.293 815.111a1 1 0 0 1-.434-1.9l20.525-9.912c.094-.045.193-.075.296-.09l131.971-18.547a.991.991 0 0 1 1.096.7 1 1 0 0 1-.522 1.19l-20.525 9.911a1.025 1.025 0 0 1-.296.09l-131.971 18.548a.951.951 0 0 1-.14.01zm20.82-9.943-14.626 7.063 125.484-17.637 14.625-7.062z" fill="#111"/><path d="m340.819 804.199-20.525 9.912-29.393-144.145 20.525-9.911z" fill="#b0c3ff"/><path d="M320.294 815.111a1.007 1.007 0 0 1-.98-.8l-29.393-144.145a1.002 1.002 0 0 1 .545-1.101l20.525-9.912a1.001 1.001 0 0 1 1.415.7l29.393 144.145c.091.448-.133.901-.545 1.101l-20.525 9.912a.993.993 0 0 1-.435.1zm-28.258-144.582 28.981 142.122 18.667-9.015-28.981-142.122z" fill="#111"/><path d="m443.397 641.507 29.394 144.145-131.972 18.547-29.393-144.144z" fill="#b0c3ff"/><path d="M340.818 805.199a1 1 0 0 1-.979-.8l-29.393-144.145a1 1 0 0 1 .841-1.19l131.971-18.547a1.005 1.005 0 0 1 1.119.79l29.393 144.145a1 1 0 0 1-.841 1.19l-131.971 18.547a.932.932 0 0 1-.14.01zm-28.199-144.303 28.993 142.182 129.987-18.268-28.993-142.182z" fill="#111"/></g><g><path d="m656.751 759.798-20.526 9.912-131.972 18.547 20.526-9.912z" fill="#111"/><path d="M504.252 789.257a1 1 0 0 1-.435-1.9l20.525-9.911c.094-.045.193-.075.296-.09l131.972-18.548a1 1 0 0 1 .574 1.89l-20.525 9.912a1.025 1.025 0 0 1-.296.09l-131.972 18.547a.929.929 0 0 1-.139.01zm20.82-9.943-14.625 7.062 125.484-17.636 14.626-7.063z" fill="#111"/><path d="m524.779 778.345-20.526 9.912-29.393-144.144 20.525-9.912z" fill="#b0c3ff"/><path d="M504.253 789.257a1.007 1.007 0 0 1-.98-.8L473.88 644.313a1.002 1.002 0 0 1 .545-1.101l20.525-9.912a.998.998 0 0 1 1.415.7l29.393 144.145c.091.448-.133.901-.545 1.101l-20.525 9.911a.993.993 0 0 1-.435.1zm-28.258-144.581 28.981 142.121 18.667-9.014-28.981-142.122z" fill="#111"/><path d="m627.357 615.654 29.394 144.144-131.972 18.547-29.394-144.144z" fill="#fff"/><path d="M524.777 779.346a1 1 0 0 1-.979-.8l-29.393-144.145a1 1 0 0 1 .841-1.19l131.972-18.548a.996.996 0 0 1 1.119.79l29.393 144.145a1 1 0 0 1-.841 1.19l-131.972 18.548a.932.932 0 0 1-.14.01zm-28.199-144.303 28.993 142.182 129.988-18.269-28.993-142.182z" fill="#111"/></g><g><path d="m840.71 733.944-20.526 9.912-131.972 18.547 20.525-9.911z" fill="#111"/><path d="M688.211 763.403a1 1 0 0 1-.434-1.9l20.525-9.911c.093-.045.192-.075.295-.09l131.973-18.548c.487-.068.952.227 1.097.7a.998.998 0 0 1-.522 1.19l-20.526 9.912a1.009 1.009 0 0 1-.295.09l-131.972 18.547a.965.965 0 0 1-.141.01zm20.82-9.942-14.626 7.062 125.484-17.636 14.627-7.063z" fill="#111"/><path d="m708.737 752.492-20.525 9.911-29.393-144.144 20.525-9.912z" fill="#b0c3ff"/><path d="M688.212 763.403a1.003 1.003 0 0 1-.979-.8l-29.394-144.145a1.002 1.002 0 0 1 .545-1.101l20.525-9.911a.998.998 0 0 1 1.415.7l29.393 144.145a1 1 0 0 1-.545 1.101l-20.525 9.911a.993.993 0 0 1-.435.1zm-28.258-144.582 28.98 142.122 18.668-9.014-28.981-142.122z" fill="#111"/><path d="m811.316 589.8 29.394 144.144-131.973 18.548-29.393-144.145z" fill="#b0c3ff"/><path d="M708.736 753.492a1 1 0 0 1-.979-.8l-29.394-144.145a1 1 0 0 1 .841-1.19l131.972-18.548a.988.988 0 0 1 1.119.79l29.394 144.145a.997.997 0 0 1-.84 1.19l-131.973 18.548a.951.951 0 0 1-.14.01zm-28.199-144.303 28.993 142.182 129.988-18.269-28.993-142.182z" fill="#111"/></g><g><path d="m1024.669 708.09-20.526 9.912-131.971 18.547 20.525-9.911z" fill="#111"/><path d="M872.171 737.55a1 1 0 0 1-.434-1.9l20.525-9.912c.093-.045.192-.075.295-.09l131.972-18.547a.996.996 0 0 1 1.097.7.998.998 0 0 1-.522 1.19l-20.526 9.911a1.009 1.009 0 0 1-.295.09L872.311 737.54a.942.942 0 0 1-.14.01zm20.82-9.944-14.626 7.063 125.483-17.637 14.626-7.062z" fill="#111"/><path d="m892.697 726.638-20.525 9.911-29.393-144.144 20.525-9.912z" fill="#b0c3ff"/><path d="M872.172 737.55a1.001 1.001 0 0 1-.979-.8l-29.394-144.145a1 1 0 0 1 .545-1.101l20.525-9.912a1.001 1.001 0 0 1 1.414.7l29.394 144.145a1 1 0 0 1-.545 1.101l-20.525 9.912c-.137.066-.287.1-.435.1zm-28.259-144.582 28.981 142.122 18.668-9.015-28.981-142.122z" fill="#111"/><path d="m995.275 563.946 29.394 144.144-131.972 18.548-29.393-144.145z" fill="#fff"/><path d="M892.696 727.638a1 1 0 0 1-.979-.8l-29.394-144.145a.997.997 0 0 1 .84-1.19l131.972-18.547a.993.993 0 0 1 1.119.79l29.394 144.145a.997.997 0 0 1-.84 1.19l-131.972 18.547a.951.951 0 0 1-.14.01zm-28.2-144.303 28.993 142.182 129.987-18.268-28.993-142.182z" fill="#111"/><g><path d="m995.275 563.946 29.394 144.144-131.972 18.548-29.393-144.145z" fill="#3658c1"/><path d="M892.696 727.638a1 1 0 0 1-.979-.8l-29.394-144.145a.997.997 0 0 1 .84-1.19l131.972-18.547a.993.993 0 0 1 1.119.79l29.394 144.145a.997.997 0 0 1-.84 1.19l-131.972 18.547a.951.951 0 0 1-.14.01zm-28.2-144.303 28.993 142.182 129.987-18.268-28.993-142.182z" fill="#111"/><path d="M937.258 606.064c14.459-2.032 28.508 7.504 31.314 21.267l-8.01 1.126c-1.822-8.933-11.475-15.055-21.52-13.644l-2.467.347c-10.045 1.412-16.741 9.832-14.92 18.765l5.75 28.199c1.823 8.942 11.485 15.063 21.53 13.651l2.467-.347c10.045-1.412 16.733-9.831 14.91-18.772l8.01-1.126c2.806 13.763-6.677 26.615-21.136 28.647l-2.467.347c-14.467 2.033-28.518-7.512-31.324-21.275l-5.75-28.199c-2.806-13.763 6.679-26.607 21.146-28.64z" fill="#fff"/><path d="M946.82 685.796c-13.474 0-25.758-9.363-28.405-22.347l-5.75-28.198c-1.375-6.744.033-13.523 3.966-19.09 4.151-5.877 10.552-9.691 18.021-10.741l2.467-.347c14.978-2.111 29.524 7.789 32.434 22.058a.997.997 0 0 1-.84 1.19l-8.011 1.126a.987.987 0 0 1-1.119-.79c-1.718-8.428-10.878-14.188-20.4-12.854l-2.467.347c-4.883.686-9.176 3.192-11.778 6.876-2.243 3.175-3.061 6.975-2.302 10.698l5.75 28.198c1.72 8.433 10.887 14.2 20.411 12.861l2.467-.347c4.88-.686 9.17-3.19 11.77-6.871 2.244-3.177 3.062-6.981 2.301-10.711a.997.997 0 0 1 .84-1.19l8.01-1.126a.985.985 0 0 1 1.119.79c1.376 6.747-.033 13.53-3.967 19.1-4.15 5.876-10.547 9.689-18.009 10.738l-2.467.347a28.923 28.923 0 0 1-4.041.283zm-9.423-78.742-2.467.347c-6.918.973-12.837 4.493-16.667 9.915-3.61 5.11-4.902 11.338-3.64 17.535l5.75 28.198c2.704 13.257 16.257 22.442 30.206 20.484l2.467-.347c6.911-.972 12.825-4.491 16.654-9.911 3.433-4.86 4.771-10.729 3.811-16.622l-6.042.849c.531 3.936-.447 7.882-2.804 11.218-2.917 4.13-7.701 6.936-13.124 7.698l-2.467.347c-10.565 1.486-20.723-4.993-22.649-14.441l-5.75-28.198c-.871-4.271.062-8.622 2.627-12.252 2.92-4.133 7.707-6.94 13.134-7.703l2.466-.347c10.217-1.433 20.05 4.575 22.424 13.517l6.03-.848c-3.18-12.689-16.386-21.348-29.959-19.439zm-.139-.991h.01z" fill="#111"/></g></g><g><path d="m514.664 990.996-20.526 9.912-131.971 18.548 20.525-9.912z" fill="#111"/><path d="M362.166 1020.456a1 1 0 0 1-.434-1.9l20.525-9.912c.094-.045.193-.075.296-.09l131.971-18.548a.992.992 0 0 1 1.096.7 1 1 0 0 1-.522 1.19l-20.525 9.912a1.025 1.025 0 0 1-.296.09l-131.971 18.548a.951.951 0 0 1-.14.01zm20.82-9.943-14.626 7.063 125.484-17.637 14.626-7.063z" fill="#111"/><path d="m382.692 1009.544-20.525 9.912-29.393-144.144 20.525-9.912z" fill="#b0c3ff"/><path d="M362.167 1020.456a1.007 1.007 0 0 1-.98-.8l-29.393-144.144a1.002 1.002 0 0 1 .545-1.101l20.525-9.912a.998.998 0 0 1 1.415.7l29.393 144.144c.091.448-.133.901-.545 1.101l-20.525 9.912a.993.993 0 0 1-.435.1zm-28.258-144.581 28.981 142.121 18.667-9.015-28.981-142.121z" fill="#111"/><path d="m485.271 846.853 29.393 144.143-131.972 18.548L353.299 865.4z" fill="#fff"/><path d="M382.691 1010.544a1 1 0 0 1-.979-.8L352.319 865.6a1 1 0 0 1 .841-1.19l131.971-18.547a.999.999 0 0 1 1.119.79l29.393 144.143a1 1 0 0 1-.841 1.19l-131.971 18.548a.932.932 0 0 1-.14.01zm-28.199-144.302 28.993 142.181 129.987-18.269-28.993-142.18z" fill="#111"/></g><g><path d="m698.624 965.143-20.526 9.911-131.972 18.548 20.525-9.912z" fill="#111"/><path d="M546.125 994.601a1 1 0 0 1-.435-1.9l20.525-9.911c.094-.045.193-.075.296-.09l131.972-18.548a.999.999 0 0 1 .575 1.89l-20.525 9.912a1.025 1.025 0 0 1-.296.09l-131.972 18.547a.832.832 0 0 1-.14.01zm20.82-9.942-14.625 7.062 125.484-17.636 14.626-7.063z" fill="#111"/><path d="m566.651 983.69-20.525 9.912-29.393-144.144 20.525-9.911z" fill="#b0c3ff"/><path d="M546.126 994.601a1.007 1.007 0 0 1-.98-.8l-29.393-144.144a1.002 1.002 0 0 1 .545-1.101l20.525-9.911a.998.998 0 0 1 1.415.7l29.393 144.144c.091.448-.133.901-.545 1.101l-20.525 9.911a.993.993 0 0 1-.435.1zM517.868 850.02l28.981 142.121 18.667-9.014-28.981-142.121z" fill="#111"/><path d="m669.23 820.999 29.394 144.144-131.973 18.547-29.393-144.143z" fill="#fff"/><path d="M566.65 984.69a1 1 0 0 1-.979-.8l-29.393-144.144a1 1 0 0 1 .841-1.19l131.972-18.548a1 1 0 0 1 1.119.79l29.393 144.144a.997.997 0 0 1-.84 1.19L566.79 984.681a1.085 1.085 0 0 1-.14.009zm-28.199-144.301 28.993 142.181 129.988-18.269-28.994-142.181z" fill="#111"/></g><g><path d="m882.583 939.289-20.526 9.912-131.972 18.547 20.525-9.912z" fill="#111"/><path d="M730.084 968.748a1 1 0 0 1-.434-1.9l20.525-9.912c.093-.045.192-.075.296-.09l131.972-18.547a.991.991 0 0 1 1.097.7.998.998 0 0 1-.522 1.19l-20.526 9.911a1.009 1.009 0 0 1-.295.09l-131.972 18.548a.965.965 0 0 1-.141.01zm20.82-9.943-14.626 7.063 125.484-17.637 14.626-7.062z" fill="#111"/><path d="m750.61 957.836-20.525 9.912-29.393-144.144 20.525-9.911z" fill="#b0c3ff"/><path d="M730.085 968.748a1.001 1.001 0 0 1-.979-.8l-29.394-144.144a1 1 0 0 1 .545-1.101l20.526-9.911a.998.998 0 0 1 1.414.7l29.393 144.143a1 1 0 0 1-.545 1.101l-20.525 9.912a.993.993 0 0 1-.435.1zm-28.259-144.581 28.981 142.121 18.668-9.015-28.98-142.12z" fill="#111"/><path d="m853.189 795.145 29.394 144.144-131.973 18.547-29.393-144.143z" fill="#fff"/><path d="M750.609 958.836a1 1 0 0 1-.979-.8l-29.393-144.143a.997.997 0 0 1 .84-1.19l131.972-18.548a.99.99 0 0 1 1.119.79l29.394 144.144a.997.997 0 0 1-.84 1.19L750.75 958.826a.975.975 0 0 1-.141.01zM722.41 814.535l28.992 142.18 129.988-18.268-28.993-142.181z" fill="#111"/></g><g><path d="m556.537 1196.342-20.526 9.912-131.971 18.547 20.526-9.912z" fill="#111"/><path d="M404.039 1225.801a1 1 0 0 1-.435-1.9l20.525-9.911c.094-.045.193-.075.296-.09l131.972-18.548c.487-.077.953.229 1.096.7s-.079.977-.522 1.19l-20.526 9.912a1.025 1.025 0 0 1-.296.09l-131.971 18.547a.929.929 0 0 1-.139.01zm20.82-9.943-14.625 7.062 125.483-17.636 14.626-7.063z" fill="#111"/><path d="m424.566 1214.889-20.526 9.912-29.393-144.144 20.525-9.912z" fill="#b0c3ff"/><path d="M404.04 1225.801a1.007 1.007 0 0 1-.98-.8l-29.393-144.144a1.002 1.002 0 0 1 .545-1.101l20.525-9.912a.998.998 0 0 1 1.415.7l29.393 144.145c.091.448-.133.901-.545 1.101l-20.525 9.911c-.138.066-.286.1-.435.1zm-28.258-144.581 28.981 142.121 18.667-9.014-28.981-142.122z" fill="#111"/><path d="m527.143 1052.198 29.394 144.144-131.971 18.547-29.394-144.144z" fill="#fff"/><path d="M424.564 1215.89a1 1 0 0 1-.979-.8l-29.393-144.145a1 1 0 0 1 .841-1.19l131.971-18.548a1.004 1.004 0 0 1 1.119.79l29.394 144.145a1 1 0 0 1-.841 1.19l-131.972 18.548a.932.932 0 0 1-.14.01zm-28.199-144.303 28.993 142.182 129.987-18.269-28.993-142.182z" fill="#111"/></g><g><path d="m740.497 1170.488-20.526 9.912-131.972 18.547 20.526-9.911z" fill="#111"/><path d="M587.998 1199.947a1 1 0 0 1-.435-1.9l20.525-9.911c.094-.045.193-.075.296-.09l131.972-18.548a.997.997 0 0 1 1.097.7.998.998 0 0 1-.522 1.19l-20.526 9.912a1.009 1.009 0 0 1-.295.09l-131.972 18.547a.951.951 0 0 1-.14.01zm20.82-9.942-14.625 7.062 125.484-17.636 14.627-7.063z" fill="#111"/><path d="m608.525 1189.036-20.526 9.911-29.393-144.144 20.525-9.912z" fill="#b0c3ff"/><path d="M587.999 1199.947a1.007 1.007 0 0 1-.98-.8l-29.393-144.145a1.002 1.002 0 0 1 .545-1.101l20.525-9.911a.998.998 0 0 1 1.415.7l29.393 144.145c.091.448-.133.901-.545 1.101l-20.525 9.911a.993.993 0 0 1-.435.1zm-28.258-144.582 28.981 142.122 18.667-9.014-28.981-142.122z" fill="#111"/><path d="m711.103 1026.344 29.394 144.144-131.972 18.548-29.394-144.145z" fill="#fff"/><path d="M608.523 1190.036a1 1 0 0 1-.979-.8l-29.393-144.145a1 1 0 0 1 .841-1.19l131.972-18.548a.987.987 0 0 1 1.119.79l29.394 144.145a.997.997 0 0 1-.84 1.19l-131.973 18.548a.955.955 0 0 1-.141.01zm-28.199-144.303 28.993 142.182 129.988-18.269-28.993-142.182z" fill="#111"/></g><path d="m1055.009 1126.286-25.168 3.537c-29.486 4.145-58.723-18.612-65.293-50.826L917.072 846.17c-5.435-26.653 6.35-51.434 27.282-61.541l-20.526 9.911c-20.931 10.108-32.716 34.888-27.281 61.542l47.477 232.826c6.569 32.215 35.806 54.971 65.292 50.827l25.169-3.537h.001a48.498 48.498 0 0 0 9.148-2.198 47.35 47.35 0 0 0 5.079-2.098l20.526-9.912a47.996 47.996 0 0 1-14.23 4.296z" fill="url(#d)"/><path d="M1002.373 1141.22c-27.438.002-53.193-22.019-59.329-52.111l-47.477-232.826c-5.379-26.374 6.063-52.134 27.826-62.643l20.525-9.911a1 1 0 1 1 .869 1.801c-20.938 10.11-31.932 34.965-26.736 60.44l47.477 232.827c6.456 31.657 35.259 54.109 64.174 50.036l25.168-3.537a47.1 47.1 0 0 0 13.933-4.206 1 1 0 0 1 .869 1.801l-20.526 9.912a48.563 48.563 0 0 1-5.186 2.142 49.621 49.621 0 0 1-9.337 2.244l-25.169 3.537a51.042 51.042 0 0 1-7.081.494zm-69.955-349.717-8.155 3.938c-20.937 10.111-31.932 34.966-26.736 60.441l47.477 232.826c6.455 31.657 35.248 54.107 64.174 50.037l25.169-3.537a47.686 47.686 0 0 0 8.96-2.153 46.502 46.502 0 0 0 4.971-2.053l8.105-3.914c-.409.067-.82.131-1.232.188l-25.168 3.537a50.938 50.938 0 0 1-7.083.494c-27.437.003-53.192-22.017-59.329-52.11L916.093 846.37c-4.331-21.234 2.241-42.068 16.325-54.867zm122.592 334.783h.01z" fill="#111"/><path d="M983.743 776.797c29.495-4.145 58.731 18.611 65.3 50.826l47.477 232.827c6.569 32.214-12.016 61.692-41.511 65.837l-25.168 3.537c-29.486 4.144-58.723-18.612-65.292-50.827L917.072 846.17c-6.569-32.214 12.017-61.692 41.503-65.836z" fill="#fff"/><path d="M1022.897 1131.307c-27.437.003-53.191-22.017-59.328-52.11L916.093 846.37c-3.407-16.707-.16-33.652 8.907-46.489 8.01-11.339 19.885-18.632 33.437-20.536l25.167-3.538c29.964-4.202 59.757 18.944 66.419 51.616l47.478 232.826c3.407 16.708.16 33.652-8.908 46.489-8.011 11.339-19.888 18.634-33.443 20.538l-25.168 3.537a50.978 50.978 0 0 1-7.085.494zm-39.014-353.52-25.168 3.538c-13 1.827-24.393 8.826-32.081 19.71-8.751 12.388-11.879 28.767-8.582 44.935l47.477 232.827c6.455 31.657 35.251 54.102 64.173 50.036l25.169-3.537c13.004-1.827 24.399-8.828 32.088-19.712 8.751-12.388 11.879-28.766 8.583-44.935l-47.478-232.826c-6.456-31.655-35.25-54.102-64.181-50.036z" fill="#111"/><g><path d="m924.456 1144.634-20.526 9.912-131.972 18.548 20.526-9.912z" fill="#111"/><path d="M771.957 1174.094a1 1 0 0 1-.434-1.9l20.525-9.912c.093-.045.192-.075.296-.09l131.972-18.547a.994.994 0 0 1 1.097.7.998.998 0 0 1-.522 1.19l-20.526 9.911a1.009 1.009 0 0 1-.295.09l-131.972 18.548a.965.965 0 0 1-.141.01zm20.82-9.944-14.626 7.063 125.484-17.637 14.626-7.062z" fill="#111"/><path d="m792.484 1163.182-20.526 9.912-29.393-144.145 20.525-9.912z" fill="#b0c3ff"/><path d="M771.958 1174.094a1.001 1.001 0 0 1-.979-.8l-29.394-144.145a1 1 0 0 1 .545-1.101l20.526-9.912a.998.998 0 0 1 1.414.7l29.393 144.145a1 1 0 0 1-.545 1.101l-20.525 9.912c-.137.066-.287.1-.435.1zm-28.259-144.582 28.981 142.122 18.668-9.015-28.98-142.122z" fill="#111"/><path d="m895.062 1000.49 29.394 144.144-131.972 18.548-29.394-144.145z" fill="#fff"/><path d="M792.482 1164.182a1 1 0 0 1-.979-.8l-29.393-144.145a.997.997 0 0 1 .84-1.19L894.923 999.5a.995.995 0 0 1 1.119.79l29.394 144.145a.997.997 0 0 1-.84 1.19l-131.973 18.547a.975.975 0 0 1-.141.01zm-28.199-144.303 28.992 142.182 129.988-18.268-28.993-142.182z" fill="#111"/></g></svg></g><g transform="translate(600.0 1531.2) rotate(0.0 206.39999999999998 224.39999999999998) scale(1.2028953411117456 1.2030010695129827)"><svg width="343.172" height="373.067" viewBox="0 0 343.172 373.067"><linearGradient id="e" gradientUnits="userSpaceOnUse" x1="90.121" x2="324.445" y1="328.19" y2="99.469"><stop offset=".176" stop-color="#3658c1"/><stop offset=".801" stop-color="#b0c3ff"/><stop offset="1" stop-color="#3658c1"/></linearGradient><path d="M279.265 48.16c53.141 66.126 41.6 178.656-25.814 251.333S88.273 377.482 35.132 311.356-6.409 132.7 61 60.02s165.124-77.986 218.265-11.86z" fill="#b0c3ff"/><path d="M131.646 358.675c-1.578 0-3.147-.028-4.722-.084-36.584-1.3-69.46-17.85-92.571-46.608C-19 245.6-7.37 132.262 60.27 59.34 96.184 20.622 142.555-.671 187.494.923c36.569 1.3 69.438 17.85 92.551 46.611 53.363 66.4 41.762 179.736-25.861 252.639-34.657 37.363-79.07 58.502-122.538 58.502zM182.775 2.84c-42.9 0-86.758 20.9-121.038 57.86-66.993 72.224-78.578 184.387-25.825 250.03 22.741 28.3 55.088 44.586 91.082 45.862 44.379 1.574 90.2-19.486 125.724-57.779 66.975-72.2 78.534-184.366 25.768-250.027C255.743 20.486 223.4 4.2 187.423 2.922a130.92 130.92 0 0 0-4.648-.082z" fill="#111"/><path d="M256.674 72.532C213.375 18.654 133.735 22.981 78.808 82.2c-54.959 59.248-64.388 150.944-21.09 204.823 43.325 53.91 122.965 49.583 177.925-9.669C290.57 218.139 300 126.443 256.674 72.532" fill="#fff"/><path d="M136.376 325.787q-1.929 0-3.852-.068c-29.864-1.059-56.707-14.579-75.585-38.07C13.408 233.482 22.89 141.011 78.075 81.517c29.3-31.587 67.14-48.958 103.821-47.657a100.229 100.229 0 0 1 75.557 38.046c43.547 54.185 34.09 146.654-21.077 206.128-28.29 30.5-64.532 47.752-100 47.753zm41.666-289.995c-34.909 0-70.6 17.01-98.5 47.085C25 141.673 15.564 232.971 58.5 286.4a98.3 98.3 0 0 0 74.1 37.324c1.258.044 2.521.067 3.782.067 34.913 0 70.621-17.021 98.533-47.113 54.514-58.778 63.928-150.078 20.979-203.52a98.258 98.258 0 0 0-74.069-37.3 108.475 108.475 0 0 0-3.783-.066z" fill="#111"/><path d="m242.905 103.752-11.261-14.013-18.244 19.67Q199.867 96.6 184.574 97.3q-15.651.7-29.217 15.358-13.32 14.361-14.9 32.5c-1.049 12.147 1.8 26.519 8.514 43.252 4.608 12.234 6.73 22.2 6.375 29.828a30.114 30.114 0 0 1-8.147 19.682c-6.016 6.485-12.6 9.347-19.708 8.58-7.128-.8-13.837-5.112-20.2-13.033-6.47-8.05-9.4-16.554-8.807-25.381.6-8.895 4.77-17.458 12.427-25.712l-13.446-16.725c-10.939 11.793-17 24.277-18.307 37.525-1.239 12.883 2.063 25.288 9.676 37.226l-15.929 17.172 11.263 14.014 15.8-17.034.184.156q14.824 14.857 30.777 14.83c10.558-.014 20.575-5.037 29.874-15.063a56.328 56.328 0 0 0 12.407-20.208 57.178 57.178 0 0 0 2.3-23.743q-1.319-13.072-8.257-31.276-6.969-18.2-6.8-29.608c.125-7.616 3.007-14.491 8.639-20.563 6.082-6.557 12.366-9.8 18.813-9.62q9.684.165 18.332 10.928a29.394 29.394 0 0 1 6.222 23.809q-1.986 13.451-13.729 26.112l-.58.625 13.367 16.633.579-.625q16.99-18.316 19.968-37.255 2.99-19.038-7.319-36.235l-.05-.063 18.211-19.634" fill="#b0c3ff"/><path d="M84.168 272.586h-.036a1 1 0 0 1-.744-.373L72.126 258.2a1 1 0 0 1 .046-1.306l15.406-16.609c-7.471-11.98-10.638-24.493-9.415-37.2 1.323-13.431 7.57-26.252 18.569-38.109a1 1 0 0 1 1.512.053l13.443 16.727a1 1 0 0 1-.047 1.307c-7.492 8.078-11.584 16.522-12.162 25.1s2.314 16.879 8.588 24.687c6.141 7.642 12.714 11.9 19.535 12.667 6.751.728 13.1-2.053 18.864-8.268a29.256 29.256 0 0 0 7.881-19.048c.348-7.485-1.776-17.386-6.312-29.428-6.74-16.785-9.627-31.492-8.574-43.691 1.056-12.25 6.158-23.384 15.164-33.093 9.206-9.925 19.267-15.2 29.905-15.677 10.128-.482 19.821 3.448 28.818 11.69l17.564-18.935a1 1 0 0 1 1.513.054l11.261 14.013a1 1 0 0 1-.047 1.306l-17.695 19.07a53.789 53.789 0 0 1 7.108 36.329c-2.006 12.765-8.81 25.476-20.223 37.78l-.579.625a1.009 1.009 0 0 1-.769.319 1 1 0 0 1-.744-.373l-13.367-16.633a1 1 0 0 1 .047-1.306l.579-.625c7.652-8.25 12.185-16.855 13.473-25.578a28.464 28.464 0 0 0-6.011-23.037c-5.544-6.9-11.456-10.45-17.57-10.554-6.11-.171-12.183 2.961-18.063 9.3-5.435 5.859-8.251 12.554-8.372 19.9-.121 7.412 2.144 17.248 6.733 29.233 4.629 12.091 7.427 22.7 8.317 31.534a58.4 58.4 0 0 1-2.342 24.157 57.537 57.537 0 0 1-12.623 20.574c-9.454 10.193-19.751 15.369-30.606 15.383-10.654.013-21.057-4.88-30.92-14.562L84.9 272.266a1 1 0 0 1-.732.32zm-9.942-14.967 10 12.438 15.014-16.186a1 1 0 0 1 1.379-.082l.185.156c9.7 9.719 19.812 14.612 30.128 14.593 10.277-.014 20.082-4.974 29.143-14.743a55.561 55.561 0 0 0 12.193-19.849 56.426 56.426 0 0 0 2.248-23.324c-.872-8.655-3.629-19.091-8.195-31.016-4.747-12.4-6.992-22.2-6.864-29.982.128-7.854 3.125-15 8.905-21.227 6.288-6.779 12.874-10.121 19.574-9.94 6.726.115 13.15 3.918 19.084 11.3a30.391 30.391 0 0 1 6.43 24.588c-1.347 9.121-6.049 18.083-13.977 26.631l12.1 15.057c11.012-11.936 17.574-24.217 19.5-36.5a51.939 51.939 0 0 0-7.178-35.548 1.078 1.078 0 0 1 .063-1.275l17.625-19-10-12.437-17.458 18.821a1 1 0 0 1-1.42.046c-8.795-8.323-18.246-12.306-28.09-11.833-10.1.453-19.7 5.513-28.532 15.039-8.695 9.375-13.62 20.109-14.638 31.905-1.026 11.884 1.816 26.282 8.446 42.794 4.64 12.318 6.807 22.488 6.446 30.246a31.205 31.205 0 0 1-8.413 20.316c-6.217 6.7-13.131 9.695-20.548 8.9-7.37-.825-14.392-5.334-20.876-13.4-6.6-8.211-9.635-16.984-9.025-26.074.594-8.818 4.667-17.457 12.108-25.688l-12.175-15.15c-10.201 11.277-16.008 23.413-17.254 36.077-1.2 12.485 2 24.8 9.523 36.59a1 1 0 0 1-.11 1.218z" fill="#111"/><path d="M308.018 61.713a123.309 123.309 0 0 0-43.629-34.72L235.637 13.44a123.319 123.319 0 0 1 43.628 34.72c53.141 66.126 41.6 178.656-25.814 251.333-51.655 55.688-121.131 71.824-174.7 46.576l28.752 13.553c53.566 25.248 123.042 9.112 174.7-46.577 67.413-72.676 78.955-185.207 25.815-251.332z" fill="url(#e)"/><path d="M160.293 372.26a124.065 124.065 0 0 1-53.212-11.734l-28.753-13.552a1 1 0 1 1 .853-1.809c26.453 12.468 56.671 14.888 87.39 7 31.484-8.087 61.273-26.535 86.147-53.351 66.975-72.2 78.534-184.366 25.768-250.027a122.088 122.088 0 0 0-43.276-34.442 1 1 0 0 1 .853-1.81l28.753 13.553a124.085 124.085 0 0 1 43.981 35c53.364 66.4 41.763 179.736-25.86 252.639-25.135 27.1-55.259 45.746-87.116 53.928a142.77 142.77 0 0 1-35.528 4.605zm-61.232-17.725 8.873 4.182c26.452 12.469 56.671 14.889 87.39 7 31.484-8.086 61.273-26.535 86.147-53.351 66.975-72.2 78.534-184.366 25.767-250.026a122.09 122.09 0 0 0-43.275-34.44L255 23.67a127.715 127.715 0 0 1 25.05 23.864c53.363 66.4 41.762 179.736-25.861 252.639-25.135 27.1-55.259 45.746-87.116 53.928-23.418 6.013-46.556 6.121-68.012.434z" fill="#111"/></svg></g><g transform="translate(354.0 2050.7999999999997) rotate(0.0 263.4 283.20000000000005) scale(1.2122076768550711 1.213635399413324)"><svg width="434.579" height="466.697" viewBox="0 0 434.579 466.697"><linearGradient id="f" gradientUnits="userSpaceOnUse" x1="33.486" x2="211.067" y1="101.171" y2="368.671"><stop offset="0" stop-color="#3658c1"/><stop offset=".329" stop-color="#b0c3ff"/><stop offset=".792" stop-color="#3658c1"/></linearGradient><path d="M96.574 361.9c-79.335-97.99-81.917-238.662-5.768-314.236A160.408 160.408 0 0 1 134.273 16.8L99.932 33.338A160.369 160.369 0 0 0 56.464 64.2c-76.148 75.575-73.564 216.247 5.768 314.235 65.63 81.06 163.232 107.528 238.105 71.472l34.342-16.538C259.806 469.426 162.2 442.958 96.574 361.9z" fill="url(#f)"/><path d="M229.679 466.633a186.3 186.3 0 0 1-52.141-7.583c-43.96-12.825-84.1-40.484-116.083-79.985C22.946 331.5 1.136 272.5.042 212.932c-1.094-59.623 18.693-112.695 55.718-149.44A161.567 161.567 0 0 1 99.5 32.437L133.839 15.9a1 1 0 0 1 .868 1.8 159.573 159.573 0 0 0-43.2 30.673c-75.667 75.1-73.047 215.459 5.841 312.894 31.724 39.184 71.521 66.614 115.089 79.324 42.14 12.294 85.4 9.409 121.805-8.124a1 1 0 0 1 .868 1.8l-34.342 16.538a163.511 163.511 0 0 1-71.089 15.828zM112.134 28.572l-11.769 5.667a159.568 159.568 0 0 0-43.2 30.673c-75.667 75.1-73.047 215.459 5.841 312.894 31.728 39.184 71.525 66.613 115.094 79.324 42.139 12.293 85.4 9.409 121.8-8.124l11.957-5.758c-31.338 9.325-66.024 9.17-99.98-.736-43.961-12.825-84.1-40.483-116.084-79.985-38.506-47.564-60.316-106.564-61.41-166.133C33.289 136.771 53.077 83.7 90.1 46.954a164.978 164.978 0 0 1 22.034-18.382z" fill="#111"/><path d="M90.806 47.664c76.149-75.573 202.205-57.442 281.54 40.546s81.919 238.743 5.77 314.316-202.207 57.36-281.542-40.626-81.917-238.662-5.768-314.236z" fill="#b0c3ff"/><path d="M264.087 450.157q-4.729 0-9.5-.259c-58.534-3.182-116.41-35.027-158.789-87.371-38.51-47.564-60.32-106.564-61.414-166.133C33.289 136.771 53.077 83.7 90.1 46.955l.7.709-.7-.709C123.028 14.277 167.174-2.306 214.407.262c58.512 3.18 116.362 35.007 158.716 87.319 79.536 98.236 82.091 239.838 5.7 315.655-30.689 30.454-71.134 46.919-114.736 46.921zM204.906 2c-43.1 0-83.067 16.272-113.4 46.371-75.667 75.1-73.047 215.459 5.841 312.9 42.024 51.9 99.374 83.481 157.343 86.632q4.715.257 9.389.256c43.076 0 83.02-16.261 113.328-46.34 75.693-75.119 73.07-215.519-5.838-312.98-42-51.873-99.322-83.431-157.271-86.58Q209.582 2 204.906 2z" fill="#111"/><path d="M117.411 80.5c-62.045 61.577-59.94 176.235 4.7 256.075 64.68 79.887 167.4 94.7 229.441 33.119 62.083-61.614 59.978-176.273-4.7-256.16C282.21 33.7 179.494 18.889 117.411 80.5" fill="#fff"/><path d="M258.627 408.7q-3.86 0-7.753-.211c-47.749-2.6-94.964-28.576-129.54-71.281C56.478 257.1 54.4 141.626 116.707 79.792l.7.71-.7-.71c26.877-26.673 62.905-40.208 101.448-38.114 47.733 2.594 94.924 28.556 129.473 71.229 64.878 80.131 66.955 195.645 4.63 257.5-25.043 24.852-58.05 38.293-93.631 38.293zM210.405 43.466c-35.073 0-67.6 13.246-92.289 37.746-61.6 61.131-59.456 175.405 4.773 254.736 34.22 42.266 80.908 67.977 128.094 70.542q3.835.209 7.64.208c35.054 0 67.56-13.233 92.226-37.712 61.617-61.152 59.475-175.464-4.775-254.821-34.194-42.234-80.858-67.926-128.027-70.49q-3.838-.208-7.642-.209z" fill="#111"/><path d="m152.018 100.737-16.137 16.015 21.472 26.52q-14.859 19.3-14.6 41.315.247 22.532 16.247 42.25 15.676 19.364 36 21.882c13.615 1.674 29.863-2.224 48.9-11.666 13.907-6.465 25.18-9.384 33.739-8.771s15.851 4.6 21.835 11.991c7.08 8.744 10.068 18.264 8.96 28.475-1.143 10.246-6.223 19.842-15.346 28.9-9.27 9.2-18.928 13.3-28.826 12.329-9.976-.983-19.453-7.1-28.464-18.23l-19.262 19.113c12.874 15.9 26.693 24.793 41.535 26.85 14.435 1.958 28.489-2.626 42.167-13.419l18.746 23.153 16.139-16.017-18.6-22.968.182-.263q17.211-21.131 17.732-44.087c.35-15.193-4.948-29.674-15.892-43.191q-10.336-12.767-22.28-18.126a50.754 50.754 0 0 0-26.6-3.627c-9.824 1.146-21.635 4.937-35.432 11.458s-24.952 9.666-33.507 9.383-16.181-4.523-22.809-12.709c-7.158-8.841-10.581-17.928-10.159-27.2q.52-13.932 12.915-26.232c7.888-7.828 16.939-10.738 26.971-8.63q15.047 3.039 28.868 20.109l.682.842 19.154-19.009-.682-.842q-20-24.7-41.173-29.237-21.291-4.559-40.973 10.041l-.073.072-21.432-26.472" fill="#b0c3ff"/><path d="M318.984 348.444h-.054a1 1 0 0 1-.723-.369l-18.128-22.39c-13.713 10.572-27.887 14.952-42.142 13.018-15.058-2.087-29.248-11.242-42.178-27.212a1 1 0 0 1 .073-1.339l19.262-19.117a1 1 0 0 1 1.482.08c8.831 10.908 18.179 16.919 27.785 17.865s19.022-3.11 28.024-12.044 13.929-18.193 15.056-28.3c1.075-9.909-1.866-19.242-8.743-27.735-5.763-7.118-12.872-11.028-21.13-11.622-8.38-.6-19.566 2.32-33.245 8.68-19.108 9.477-35.75 13.435-49.444 11.752-13.74-1.688-26.074-9.172-36.659-22.246-10.762-13.291-16.3-27.714-16.47-42.868-.193-14.57 4.627-28.463 14.331-41.307L135.1 117.381a1 1 0 0 1 .072-1.339l16.137-16.015a1 1 0 0 1 1.482.081l20.823 25.719c13.1-9.476 26.92-12.743 41.087-9.709 14.281 3.061 28.325 13.015 41.741 29.585l.682.843a1 1 0 0 1-.073 1.339L237.9 166.894a1 1 0 0 1-1.481-.08l-.683-.843c-9.019-11.14-18.537-17.788-28.288-19.758-9.665-2.03-18.434.783-26.068 8.36-8.038 7.977-12.285 16.577-12.621 25.559-.408 8.963 2.936 17.888 9.938 26.536 6.408 7.915 13.831 12.066 22.064 12.338 8.309.272 19.428-2.85 33.046-9.287 13.752-6.5 25.778-10.385 35.744-11.547a51.956 51.956 0 0 1 27.12 3.7c8.1 3.653 15.718 9.846 22.654 18.412 11.049 13.647 16.47 28.4 16.115 43.844-.349 15.321-6.284 30.226-17.642 44.308L335.9 330.8a1 1 0 0 1-.073 1.339l-16.139 16.016a1 1 0 0 1-.704.289zm-18.746-25.153a1 1 0 0 1 .778.371l18.049 22.292 14.712-14.6-18.027-22.265a1 1 0 0 1-.045-1.2l.182-.263c11.322-13.907 17.213-28.535 17.554-43.541.345-14.96-4.927-29.273-15.669-42.54-6.738-8.321-14.11-14.325-21.914-17.844a49.977 49.977 0 0 0-26.077-3.544c-9.747 1.137-21.564 4.962-35.118 11.368-14.105 6.667-25.216 9.771-33.967 9.478-8.839-.292-16.763-4.693-23.553-13.079-7.319-9.04-10.812-18.419-10.381-27.877.355-9.5 4.8-18.549 13.21-26.9 8.142-8.08 17.522-11.075 27.881-8.9 10.206 2.062 20.108 8.94 29.425 20.441l17.727-17.588-.113-.14c-13.122-16.207-26.783-25.926-40.606-28.889-13.808-2.956-27.3.349-40.109 9.824l-.022.021a1 1 0 0 1-1.482-.08l-20.736-25.612-14.71 14.6 20.9 25.818a1 1 0 0 1 .015 1.239c-9.742 12.653-14.585 26.344-14.4 40.692.162 14.694 5.553 28.7 16.024 41.634 10.248 12.657 22.141 19.9 35.349 21.519 13.3 1.635 29.56-2.258 48.334-11.57 14.013-6.515 25.53-9.5 34.254-8.872 8.832.635 16.416 4.793 22.541 12.358 7.225 8.923 10.312 18.751 9.177 29.213-1.163 10.432-6.424 20.356-15.636 29.5-9.445 9.374-19.413 13.619-29.628 12.616-9.9-.976-19.465-6.944-28.442-17.742l-17.838 17.7c12.444 15.131 26.007 23.806 40.324 25.789 13.964 1.895 27.9-2.551 41.41-13.213a.994.994 0 0 1 .627-.214z" fill="#111"/></svg></g></svg>