<svg xmlns="http://www.w3.org/2000/svg" viewBox="0 0 2500 2500" width="2500" height="2500"><path fill="#FFF" d="M0 0h2500v2500H0z"/><g transform="translate(327.0 538.0) rotate(0.0 944.5 714.0) scale(1.1014635062224816 1.1019079675353838)"><svg width="1714.991" height="1295.934" viewBox="0 0 1714.991 1295.934"><linearGradient id="a" gradientUnits="userSpaceOnUse" x1="730.151" x2="1037.889" y1="1178.13" y2="80.929"><stop offset="0" stop-color="#111"/><stop offset=".46" stop-color="#3658c1"/><stop offset=".716" stop-color="#3658c1"/><stop offset="1" stop-color="#b0c3ff"/></linearGradient><path d="m1690.226 229.26-23.1-20.381c20.647 18.214 29.355 48.673 20.044 80.717l-264.815 911.394c-13.616 46.862-60.627 79.421-105.066 72.68L60.461 1083.03a69.012 69.012 0 0 1-35.677-16.353l23.1 20.38a69 69 0 0 0 35.677 16.353l1256.829 190.64c44.439 6.741 91.45-25.818 105.067-72.68l264.813-911.393c9.311-32.044.603-62.504-20.044-80.717z" fill="url(#a)"/><path d="M1352.119 1295.928a79.1 79.1 0 0 1-11.878-.889L83.413 1104.4a70.408 70.408 0 0 1-36.189-16.592l-23.1-20.381a1 1 0 0 1 1.323-1.5 68.406 68.406 0 0 0 35.166 16.114l1256.828 190.641c43.856 6.65 90.494-25.633 103.957-71.971l264.812-911.394c8.884-30.572 1.317-61.107-19.745-79.688a1 1 0 1 1 1.322-1.5l23.1 20.38c21.65 19.1 29.445 50.421 20.343 81.746l-264.811 911.393c-12.519 43.103-53.241 74.278-94.3 74.28zM37.646 1076.69l10.9 9.617a68.419 68.419 0 0 0 35.166 16.115l1256.829 190.64c43.849 6.651 90.492-25.633 103.957-71.971L1709.31 309.7c8.883-30.573 1.317-61.108-19.746-79.688l-10.807-9.534c13.059 18.852 16.715 44.125 9.37 69.4l-264.812 911.394c-12.523 43.1-53.241 74.277-94.3 74.279a79.081 79.081 0 0 1-11.876-.889L60.311 1084.019a72.579 72.579 0 0 1-22.665-7.329z" fill="#111"/><path d="M1631.424 192.522c44.439 6.741 69.359 50.212 55.743 97.074l-264.811 911.394c-13.617 46.862-60.628 79.421-105.067 72.68L60.46 1083.03c-44.392-6.73-69.36-50.211-55.743-97.073L269.528 74.564C283.144 27.7 330.2-4.852 374.6 1.882z" fill="#b0c3ff"/><path d="M1329.015 1275.548a79.213 79.213 0 0 1-11.876-.889L60.31 1084.019c-20.506-3.111-37.768-14.159-48.6-31.111-12.01-18.787-14.91-43.291-7.953-67.23L268.568 74.285C282.3 27.019 329.937-5.9 374.745.893l1256.828 190.64c20.52 3.113 37.784 14.158 48.614 31.1 12.005 18.781 14.9 43.29 7.94 67.24l-264.812 911.393c-12.523 43.105-53.241 74.282-94.3 74.282zM362.842 2c-40.2 0-80.072 30.573-92.353 72.841L5.677 986.236c-6.795 23.385-3.983 47.294 7.715 65.595 10.52 16.459 27.29 27.187 47.218 30.21l1256.829 190.641c43.852 6.65 90.492-25.634 103.956-71.972l264.812-911.392c6.8-23.4 3.99-47.31-7.7-65.606-10.516-16.451-27.289-27.177-47.23-30.2L374.446 2.871A77.3 77.3 0 0 0 362.842 2z" fill="#111"/><path d="M1592 234.11 387.523 51.41c-33-5.006-67.94 19.167-78.061 54L58.454 969.3c-10.122 34.837 8.4 67.169 41.4 72.175l1204.479 182.7c33 5.006 67.955-19.215 78.077-54.051l251.008-863.885C1643.54 271.4 1625 239.115 1592 234.11z" fill="#fff"/><g fill="#111"><path d="M1313.036 1225.82a59.024 59.024 0 0 1-8.853-.662l-1204.478-182.7a51.46 51.46 0 0 1-36.273-23.22c-8.97-14.033-11.135-32.338-5.938-50.222L308.5 105.131c10.238-35.236 45.754-59.778 79.171-54.71l1204.48 182.7a51.491 51.491 0 0 1 36.3 23.226c8.958 14.015 11.119 32.3 5.928 50.165L1383.371 1170.4c-9.345 32.158-39.714 55.42-70.335 55.42zM378.786 51.756c-29.753 0-59.271 22.638-68.363 53.933L59.414 969.574c-5.035 17.33-2.957 35.039 5.7 48.587a49.49 49.49 0 0 0 34.888 22.32l1204.479 182.7c32.449 4.923 66.99-19 76.967-53.341l251.008-863.885c5.029-17.312 2.955-35-5.694-48.53a49.514 49.514 0 0 0-34.913-22.326L387.373 52.4a57.185 57.185 0 0 0-8.587-.644zM163.607 523.319c-5.509-.836-11.339 3.158-13.028 8.971s1.411 11.214 6.92 12.05c5.461.828 11.3-3.214 12.994-9.03s-1.425-11.163-6.886-11.991"/><path d="M158.929 545.447a10.616 10.616 0 0 1-1.58-.118 9.423 9.423 0 0 1-6.639-4.257 11.07 11.07 0 0 1-1.091-9.061c1.815-6.245 8.158-10.588 14.138-9.681a9.385 9.385 0 0 1 6.612 4.241 11.016 11.016 0 0 1 1.084 9.018c-1.662 5.721-7.069 9.858-12.524 9.858zm3.2-21.239c-4.607 0-9.18 3.51-10.589 8.361a9.076 9.076 0 0 0 .86 7.431 7.447 7.447 0 0 0 5.254 3.356c5 .758 10.331-2.974 11.884-8.32a9.021 9.021 0 0 0-.849-7.383 7.412 7.412 0 0 0-5.227-3.341 8.973 8.973 0 0 0-1.333-.104z"/></g></svg></g><g transform="translate(664.0 735.0) rotate(0.0 583.5 513.5) scale(1.0005152610727548 1.0007191146120582)"><svg width="1166.399" height="1026.262" viewBox="0 0 1166.399 1026.262"><g fill="#111"><path d="M496.427 227.862a1 1 0 0 1-.967-1.255l6.626-25.163-51.89-8.175a1.002 1.002 0 0 1-.806-1.263l18.787-65.779a1.006 1.006 0 0 1 1.236-.688 1 1 0 0 1 .687 1.236l-18.477 64.693 51.867 8.171a1 1 0 0 1 .811 1.243l-6.908 26.233a1 1 0 0 1-.966.745zM317.079 363.43c-.05 0-.1-.004-.151-.011l-92.094-13.913a1.002 1.002 0 0 1-.811-1.265l23.467-81.519-170.6-27.385a1.001 1.001 0 0 1 .317-1.975l171.714 27.563a1.004 1.004 0 0 1 .803 1.264l-23.464 81.509 90.967 13.742a1 1 0 0 1-.148 1.99zM199.458 796.475a.968.968 0 0 1-.16-.013l-144.942-23.32a1 1 0 0 1 .317-1.974l144.067 23.18 35.621-123.735a1 1 0 0 1 1.117-.711l106.742 16.914a1 1 0 1 1-.313 1.975l-105.869-16.775-35.622 123.737a.999.999 0 0 1-.96.724zm89.263 144.959a.999.999 0 0 1-.96-1.282l23.465-79.834a.998.998 0 0 1 1.11-.706l41.807 6.386 25.38-86.934a1 1 0 0 1 1.92.56l-25.625 87.774c-.14.481-.617.782-1.111.708l-41.809-6.387-23.219 78.996a1 1 0 0 1-.959.718zm115.39-15.026a1.003 1.003 0 0 1-.961-1.279l22.049-75.753a1 1 0 1 1 1.92.558l-22.049 75.753a.999.999 0 0 1-.959.721zm235.287 44.345a1 1 0 0 1-.96-1.28l38.735-132.509-56.568-8.855a1.001 1.001 0 0 1 .31-1.977l57.693 9.032a1.003 1.003 0 0 1 .805 1.268l-39.055 133.601a1 1 0 0 1-.959.72zm240.15-251.313a.965.965 0 0 1-.159-.013l-116.421-18.57a1 1 0 0 1 .315-1.975l115.547 18.431 12.646-43.927c.14-.487.623-.791 1.12-.711l219.489 35.42a1 1 0 0 1-.318 1.974l-218.614-35.278-12.646 43.925a1 1 0 0 1-.96.724zm153.533-173.927c-.052 0-.104-.004-.156-.012l-46.665-7.291a1.001 1.001 0 0 1-.812-1.244l7.583-28.67-89.522-13.777a1 1 0 0 1 .305-1.977l90.621 13.946a.999.999 0 0 1 .814 1.244l-7.584 28.673 45.569 7.119a1 1 0 0 1-.153 1.989zM840.677 285.825a1 1 0 0 1-.96-1.281l24.431-83.511a1 1 0 0 1 1.102-.709l40.36 5.791 14.279-48.609a1 1 0 1 1 1.919.564l-14.523 49.44c-.14.477-.615.775-1.102.708l-40.359-5.791-24.187 82.679a1.001 1.001 0 0 1-.959.719zm-86.098-105.58a1 1 0 0 1-.961-1.279l35.683-122.733a1 1 0 0 1 1.921.559l-35.683 122.733a1.001 1.001 0 0 1-.96.721z"/></g><path d="M714.987 71.046C607.77 155.401 451.121 253.567 319.558 241.961c-60.544 213.44-35.74 470.822 95.368 634.291 19.355 21.267 38.503 34.044 55.464 36.616 29.046 6.502 97.883-25.488 156.122-69.32 153.923-112.913 300.151-306.44 355.331-501.13-121.694-24.851-215.616-160.594-266.855-271.373" fill="#3658c1"/><path d="M478.745 914.694c-3.154 0-6.02-.277-8.574-.85-16.964-2.571-36.347-15.342-55.985-36.92-62.54-77.973-103.954-181.33-119.805-298.945-7.448-55.266-9.096-112.438-4.898-169.926 4.158-56.948 13.953-112.922 29.113-166.365a.99.99 0 0 1 1.05-.724c132.116 11.654 287.568-86.398 394.723-170.705a1 1 0 0 1 1.526.366c25.938 56.077 121.785 241.333 266.148 270.813a1.002 1.002 0 0 1 .761 1.252c-26.419 93.214-75.103 190.57-140.788 281.544-62.732 86.885-137.048 163-214.914 220.12-55.58 41.83-116.46 70.339-148.357 70.339zM320.294 243.028c-65.206 230.756-27.79 478.988 95.412 632.598 19.285 21.188 38.261 33.74 54.833 36.255 27.941 6.251 94.708-23.475 155.37-69.131 163.117-119.658 302.233-315.648 354.677-499.57-55.068-11.546-108.671-46.384-159.341-103.561-50.38-56.852-85.721-121.979-106.635-167.006-65.15 51.167-128.32 91.799-187.771 120.774-77.868 37.952-147.358 54.649-206.546 49.641z" fill="#111"/><path d="M695.788 137.123c-104.535 85.458-249.161 156.901-333.352 144.131-83.291 286.659 49.284 553.663 127.17 565.477 77.825 11.805 347.817-194.136 431.108-480.796-84.19-12.77-176.846-120.205-224.926-228.813" fill="#b0c3ff"/><path d="M496.377 848.21c-2.448 0-4.757-.162-6.921-.491-22.062-3.346-48.753-27.228-73.23-65.52-34.547-54.048-61.325-130.625-73.467-210.097-14.851-97.202-8.379-197.873 18.717-291.128.141-.48.62-.787 1.11-.709 86.676 13.134 232.914-62.449 332.569-143.918a.999.999 0 0 1 1.547.369c45.804 103.467 137.51 215.086 224.161 228.23a.999.999 0 0 1 .811 1.267C872.428 535.701 764.037 659.976 703.81 718.97c-41.929 41.069-85.228 75.229-125.216 98.788-33.677 19.84-62.452 30.45-82.216 30.45zM363.153 282.371c-56.808 196.479-13.476 392.004 54.757 498.75 24.167 37.808 50.353 61.36 71.845 64.621 41.035 6.214 130.464-47.692 212.655-128.199 59.959-58.73 167.76-182.298 217.025-350.795-86.69-13.992-178.029-124.848-224.03-228.023-99.642 81.164-245.182 156.22-332.252 143.646z" fill="#111"/><path d="M806.308 1.287c-14.461-2.193-29.724 8.411-34.159 23.676-4.095 14.095 2.539 27.277 15.045 30.876a24.24 24.24 0 0 0 3.068.672c1.039.158 2.082.246 3.124.274 13.473.368 26.919-9.782 31.019-23.895 4.435-15.265-3.637-29.409-18.098-31.603" fill="#3658c1"/><path d="M794.101 57.795a26.374 26.374 0 0 1-3.99-.294 25.269 25.269 0 0 1-3.194-.7c-5.957-1.714-10.876-5.632-13.853-11.03-3.38-6.13-4.047-13.619-1.877-21.085C775.75 8.982 791.575-1.955 806.457.3c6.859 1.041 12.631 4.734 16.252 10.4 4.013 6.278 4.981 14.468 2.656 22.471-4.116 14.163-17.468 24.626-31.265 24.626zm8.385-55.794c-12.774 0-25.46 9.758-29.378 23.241-2.021 6.953-1.414 13.9 1.708 19.562 2.718 4.93 7.212 8.508 12.653 10.074.973.279 1.963.496 2.942.645a24.51 24.51 0 0 0 3.001.263c13.167.367 26.088-9.604 30.032-23.174 2.165-7.449 1.283-15.044-2.42-20.836-3.307-5.173-8.586-8.547-14.867-9.5a24.461 24.461 0 0 0-3.671-.275z" fill="#111"/><path d="M936.876 102.624c-14.461-2.193-29.71 8.353-34.146 23.618-4.111 14.149 2.538 27.283 15.045 30.876.99.284 2.012.509 3.072.67a25.42 25.42 0 0 0 3.123.277c13.47.377 26.903-9.727 31.019-23.895 4.435-15.265-3.657-29.352-18.114-31.545" fill="#3658c1"/><path d="M924.704 159.075a26.48 26.48 0 0 1-4.007-.299 25.326 25.326 0 0 1-3.198-.697c-5.966-1.714-10.89-5.627-13.865-11.02-3.377-6.12-4.039-13.613-1.865-21.097 4.554-15.673 20.365-26.583 35.256-24.328 6.876 1.043 12.658 4.738 16.28 10.406 4 6.258 4.964 14.425 2.645 22.407-4.116 14.166-17.459 24.625-31.247 24.627zm8.342-55.738c-12.772 0-25.447 9.732-29.355 23.184-2.025 6.969-1.423 13.92 1.695 19.572 2.717 4.924 7.215 8.497 12.666 10.063a23.791 23.791 0 0 0 5.947.908c13.15.378 26.086-9.593 30.033-23.175 2.159-7.429 1.28-14.999-2.409-20.771-3.308-5.174-8.598-8.55-14.895-9.505a24.45 24.45 0 0 0-3.68-.275z" fill="#111"/><path d="M1067.223 520.894c-13.364-2.027-27.517 6.953-33.019 20.404a32.407 32.407 0 0 0-1.124 3.215 30.722 30.722 0 0 0-.771 3.328c-2.438 13.942 5.519 26.253 18.868 28.278 14.461 2.193 29.783-8.406 34.218-23.671 4.419-15.207-3.711-29.361-18.172-31.554" fill="#3658c1"/><path d="M1054.986 577.404c-1.322 0-2.644-.097-3.959-.297-6.363-.965-11.873-4.284-15.513-9.346-3.996-5.556-5.484-12.691-4.189-20.093.196-1.138.464-2.294.795-3.436.32-1.101.71-2.216 1.159-3.313 5.75-14.057 20.411-23.097 34.094-21.014 6.88 1.043 12.673 4.752 16.311 10.443 4.008 6.271 4.982 14.427 2.672 22.378-4.162 14.32-17.705 24.677-31.369 24.677zm8.405-55.797c-11.664 0-23.368 8.104-28.262 20.069a31.447 31.447 0 0 0-1.089 3.115 29.546 29.546 0 0 0-.746 3.219c-1.201 6.869.164 13.468 3.843 18.583 3.323 4.621 8.363 7.652 14.189 8.537 13.966 2.118 28.814-8.183 33.108-22.962 2.149-7.396 1.261-14.957-2.437-20.742-3.323-5.198-8.624-8.588-14.925-9.544a24.564 24.564 0 0 0-3.681-.275z" fill="#111"/><path d="M485.168 71.335c-14.461-2.193-29.711 8.356-34.147 23.621-4.11 14.146 2.538 27.283 15.045 30.876.99.284 2.012.509 3.072.67 1.039.158 2.082.246 3.123.277 13.471.374 26.903-9.727 31.019-23.895 4.435-15.265-3.656-29.355-18.114-31.548" fill="#3658c1"/><path d="M472.988 127.788a27.354 27.354 0 0 1-3.999-.298 25.38 25.38 0 0 1-3.199-.697c-5.965-1.713-10.889-5.627-13.864-11.019-3.377-6.122-4.04-13.614-1.866-21.097 4.554-15.674 20.365-26.591 35.257-24.332 6.875 1.043 12.656 4.739 16.279 10.406 4 6.259 4.964 14.427 2.645 22.41-4.116 14.165-17.463 24.626-31.254 24.626zm8.351-55.74c-12.772 0-25.449 9.734-29.357 23.187-2.025 6.969-1.422 13.92 1.696 19.573 2.717 4.924 7.214 8.498 12.665 10.063.956.274 1.947.49 2.947.643.958.145 1.969.234 3.002.265 13.188.394 26.084-9.597 30.029-23.174 2.159-7.43 1.281-15.002-2.409-20.775-3.308-5.175-8.597-8.551-14.894-9.506a24.446 24.446 0 0 0-3.679-.275z" fill="#111"/><path d="M288.72 940.434a25.162 25.162 0 0 0-2.723-.263c-13.612-.586-27.335 9.625-31.492 23.934-4.418 15.204 3.708 29.36 18.169 31.553 14.406 2.185 29.725-8.414 34.143-23.619 4.068-14.002-2.433-27.067-14.653-30.82a23.69 23.69 0 0 0-3.443-.786" fill="#3658c1"/><path d="M276.475 996.944c-1.319 0-2.638-.097-3.95-.296-6.879-1.043-12.67-4.752-16.308-10.442-4.008-6.271-4.982-14.428-2.672-22.379 4.263-14.668 18.231-25.264 32.496-24.654.941.039 1.894.131 2.83.273 1.225.187 2.432.462 3.588.819 12.891 3.96 19.478 17.74 15.319 32.055-4.152 14.29-17.667 24.624-31.303 24.624zm8.38-55.797c-12.984 0-25.487 9.808-29.39 23.238-2.149 7.396-1.261 14.958 2.437 20.743 3.322 5.197 8.622 8.587 14.922 9.543 13.935 2.111 28.748-8.164 33.032-22.91 3.846-13.235-2.167-25.954-13.987-29.585a22.846 22.846 0 0 0-3.299-.754 24.2 24.2 0 0 0-3.716-.275z" fill="#111"/><path d="M36.401 740.606c-14.461-2.193-29.763 8.349-34.198 23.614-4.418 15.204 3.708 29.36 18.169 31.553 13.213 2.004 27.194-6.745 32.828-19.942a32.027 32.027 0 0 0 2.004-6.527c2.706-14.135-5.299-26.65-18.802-28.698" fill="#3658c1"/><path d="M24.137 797.054c-1.31 0-2.617-.096-3.914-.293-6.879-1.043-12.67-4.751-16.307-10.441-4.009-6.271-4.982-14.428-2.672-22.38 4.555-15.673 20.394-26.588 35.308-24.322 6.453.979 12.014 4.354 15.659 9.508 3.997 5.651 5.409 12.885 3.976 20.367a33.36 33.36 0 0 1-.71 2.941 33.816 33.816 0 0 1-1.355 3.788c-5.304 12.425-17.714 20.831-29.983 20.832zm8.42-55.736c-12.794 0-25.485 9.729-29.393 23.181-2.15 7.397-1.262 14.959 2.437 20.744 3.322 5.197 8.622 8.586 14.922 9.542 12.577 1.901 26.234-6.41 31.758-19.347.499-1.172.928-2.37 1.274-3.563.265-.91.489-1.84.667-2.761 1.329-6.942.035-13.631-3.646-18.834-3.327-4.705-8.415-7.79-14.325-8.687a24.635 24.635 0 0 0-3.694-.276z" fill="#111"/><path d="M404.111 925.409a25.653 25.653 0 0 0-3.184-.276c-13.453-.338-26.865 9.803-30.96 23.898-4.434 15.262 3.654 29.352 18.114 31.545 14.406 2.185 29.708-8.357 34.143-23.619 4.1-14.111-2.602-27.313-15.098-30.891-.972-.278-1.977-.5-3.016-.658" fill="#3658c1"/><path d="M391.884 981.86a26.35 26.35 0 0 1-3.952-.296c-6.876-1.043-12.658-4.738-16.28-10.405-4-6.258-4.964-14.425-2.645-22.407 4.18-14.388 17.957-24.948 31.945-24.618a26.72 26.72 0 0 1 3.309.287c1.058.161 2.114.392 3.141.686 5.965 1.708 10.896 5.63 13.887 11.045 3.39 6.138 4.063 13.626 1.896 21.086-4.152 14.289-17.667 24.623-31.301 24.623zm8.381-55.735c-12.93 0-25.466 9.86-29.337 23.186-2.159 7.429-1.281 14.999 2.409 20.771 3.307 5.175 8.597 8.55 14.895 9.506 13.935 2.104 28.749-8.164 33.033-22.909 2.018-6.944 1.405-13.892-1.726-19.561-2.731-4.945-7.237-8.529-12.687-10.09a23.445 23.445 0 0 0-2.891-.631 24.812 24.812 0 0 0-3.695-.273z" fill="#111"/><path d="M57.541 206.581c-14.403-2.185-29.708 8.357-34.144 23.622-4.434 15.262 3.711 29.361 18.114 31.545 13.404 2.033 27.528-6.871 33.054-20.339a31.609 31.609 0 0 0 1.91-6.54c2.466-13.961-5.513-26.252-18.934-28.288" fill="#3658c1"/><path d="M45.34 263.034c-1.329 0-2.658-.098-3.978-.298-6.861-1.04-12.638-4.739-16.266-10.416-4.005-6.265-4.974-14.428-2.659-22.396 4.554-15.674 20.37-26.589 35.254-24.331 6.42.974 11.966 4.311 15.617 9.396 3.982 5.546 5.457 12.668 4.152 20.055a33.284 33.284 0 0 1-.788 3.375 32.948 32.948 0 0 1-1.183 3.373c-5.198 12.669-17.681 21.243-30.15 21.243zm8.374-55.739c-12.77 0-25.446 9.734-29.355 23.188-2.155 7.414-1.271 14.981 2.423 20.761 3.313 5.184 8.598 8.563 14.881 9.517 12.818 1.938 26.566-6.538 31.979-19.729a30.99 30.99 0 0 0 1.851-6.338c1.209-6.849-.143-13.434-3.808-18.538-3.334-4.644-8.41-7.692-14.292-8.585a24.563 24.563 0 0 0-3.678-.274z" fill="#111"/><path d="M1146.086 685.406c-13.401-2.033-27.491 6.93-33.013 20.405a32.204 32.204 0 0 0-1.147 3.271 30.863 30.863 0 0 0-.76 3.27c-2.459 13.916 5.458 26.244 18.874 28.279 14.461 2.193 29.725-8.414 34.144-23.622 4.434-15.262-3.637-29.409-18.098-31.603" fill="#3658c1"/><path d="M1133.841 741.915c-1.319 0-2.638-.097-3.951-.296-6.39-.969-11.914-4.295-15.553-9.364-3.986-5.552-5.462-12.683-4.156-20.076a31.9 31.9 0 0 1 .785-3.375 33.484 33.484 0 0 1 1.182-3.374c5.76-14.053 20.41-23.09 34.088-21.012 6.858 1.04 12.63 4.733 16.252 10.399 4.013 6.278 4.981 14.469 2.656 22.471-4.153 14.292-17.668 24.627-31.303 24.627zm8.42-55.795c-11.655 0-23.359 8.104-28.263 20.069a31.311 31.311 0 0 0-1.111 3.172 30.276 30.276 0 0 0-.736 3.165c-1.212 6.859.141 13.451 3.811 18.563 3.323 4.628 8.376 7.665 14.229 8.554 13.927 2.104 28.749-8.166 33.033-22.913 2.165-7.448 1.282-15.042-2.421-20.835-3.307-5.174-8.586-8.547-14.866-9.5a24.474 24.474 0 0 0-3.675-.274z" fill="#111"/><path d="M639.398 969.753a25.273 25.273 0 0 0-3.126-.277c-13.43-.354-26.916 9.785-31.016 23.896-4.435 15.265 3.695 29.418 18.098 31.603 14.461 2.193 29.782-8.402 34.217-23.668 4.095-14.095-2.588-27.284-15.103-30.885a24.43 24.43 0 0 0-3.069-.669" fill="#3658c1"/><path d="M627.162 1026.26c-1.322 0-2.645-.097-3.96-.297-6.845-1.038-12.611-4.735-16.239-10.41-4.017-6.285-4.99-14.472-2.669-22.461 4.186-14.404 17.958-24.96 32.003-24.616 1.095.03 2.188.127 3.25.289 1.077.162 2.152.396 3.195.696 5.977 1.719 10.913 5.65 13.901 11.068 3.38 6.13 4.05 13.608 1.886 21.057-4.161 14.319-17.704 24.674-31.368 24.674zm8.412-55.793c-12.945 0-25.485 9.853-29.359 23.184-2.16 7.435-1.273 15.025 2.434 20.825 3.313 5.182 8.587 8.56 14.854 9.511 13.966 2.115 28.813-8.181 33.107-22.959 2.015-6.934 1.405-13.871-1.717-19.532-2.729-4.949-7.24-8.541-12.702-10.112a23.46 23.46 0 0 0-2.942-.641 24.583 24.583 0 0 0-3.673-.275z" fill="#111"/></svg></g><g transform="translate(263.0 684.0) rotate(0.0 202.0 184.0) scale(1.0007778322755805 1.0019358053195169)"><svg width="403.686" height="367.289" viewBox="0 0 403.686 367.289"><linearGradient id="b" gradientUnits="userSpaceOnUse" x1="-21.052" x2="306.854" y1="152.499" y2="377.979"><stop offset="0" stop-color="#b0c3ff"/><stop offset="1" stop-color="#3658c1"/></linearGradient><path d="m379.3 318.287-271.508 23.754c-15.857 1.387-31.367-9.888-34.65-25.178L16.936 55.06c-1.489-6.935-.206-13.505 3.119-18.743L4.733 60.45C1.407 65.688.125 72.258 1.614 79.193l56.205 261.802c3.282 15.29 18.793 26.565 34.65 25.178l271.509-23.754c8.665-.758 15.64-5.141 19.649-11.455l15.322-24.133c-4.009 6.314-10.984 10.697-19.649 11.455z" fill="url(#b)"/><path d="M89.838 367.287c-15.339.002-29.804-11.213-32.996-26.082L.638 79.404C-.849 72.482.306 65.561 3.89 59.915l15.322-24.133a1 1 0 1 1 1.688 1.072c-3.301 5.199-4.361 11.59-2.986 17.997l56.205 261.802c3.176 14.793 18.241 25.743 33.585 24.392l271.509-23.754c8.015-.701 14.9-4.709 18.892-10.995a1 1 0 1 1 1.688 1.072l-15.32 24.134c-4.328 6.816-11.767 11.158-20.407 11.914L92.558 367.17c-.907.079-1.815.118-2.719.118zM15.679 45.078 5.578 60.987c-3.301 5.199-4.361 11.591-2.986 17.997l56.205 261.802c3.177 14.793 18.242 25.726 33.586 24.392l271.508-23.754c8.015-.701 14.901-4.708 18.893-10.994l10.086-15.888c-3.837 2.648-8.456 4.302-13.482 4.741l-.087-.996.087.996-271.509 23.754c-16.313 1.418-32.335-10.219-35.714-25.964L15.959 55.27c-.741-3.45-.825-6.901-.28-10.192z" fill="#111"/><path d="M311.208 1.116c15.857-1.387 31.376 9.877 34.658 25.167l56.205 261.802c3.282 15.29-6.915 28.814-22.771 30.202l-271.509 23.754c-15.857 1.387-31.367-9.888-34.65-25.178L16.936 55.06c-3.283-15.29 6.906-28.804 22.763-30.191z" fill="#fff"/><path d="M105.159 343.155c-15.34.002-29.804-11.213-32.996-26.082L15.959 55.27c-1.629-7.587-.125-15.018 4.235-20.922 4.467-6.05 11.364-9.77 19.419-10.475L311.121.119c16.312-1.437 32.343 10.215 35.723 25.953l56.205 261.803c1.629 7.586.123 15.019-4.239 20.927-4.47 6.054-11.367 9.775-19.423 10.48l-271.509 23.754c-.907.079-1.815.118-2.719.118zM311.208 1.116l.087.996L39.787 25.866c-7.476.654-13.862 4.088-17.984 9.67-4.015 5.437-5.396 12.296-3.889 19.314l56.205 261.802c3.176 14.793 18.241 25.743 33.585 24.392l271.509-23.754c7.476-.654 13.863-4.091 17.988-9.677 4.017-5.44 5.398-12.301 3.893-19.318L344.889 26.493C341.714 11.706 326.65.774 311.295 2.112l-.087-.996z" fill="#111"/><path d="M183.416 50.044c-14.162 1.239-23.261 13.307-20.329 26.962 2.929 13.645 16.779 23.705 30.94 22.466 14.151-1.238 23.249-13.306 20.32-26.951-2.932-13.655-16.781-23.716-30.931-22.477" fill="#b0c3ff"/><path d="M191.677 100.575c-13.746 0-26.709-10.043-29.567-23.358-1.462-6.807-.111-13.473 3.801-18.771 4.008-5.428 10.194-8.765 17.419-9.397 14.623-1.282 28.969 9.157 31.996 23.264 1.461 6.801.11 13.464-3.801 18.762-4.007 5.427-10.19 8.764-17.41 9.395-.813.072-1.627.106-2.438.106zm-8.174-49.534c-6.646.582-12.322 3.633-15.984 8.593-3.566 4.83-4.793 10.926-3.454 17.163 2.824 13.149 16.229 22.864 29.876 21.68 6.64-.581 12.313-3.632 15.975-8.591 3.566-4.829 4.793-10.921 3.455-17.154-2.824-13.154-16.212-22.877-29.867-21.691zm-.087-.996h.01z" fill="#111"/><path d="m218.878 105.788-4.61.403-36.913 3.229-4.61.403c-12.724 1.113-20.47 14.088-17.286 28.919l14.756 68.735c1.419 6.608 7.147 11.56 12.812 11.064 5.664-.496 9.105-6.25 7.686-12.858l-9.348-43.541 51.298-4.308 9.31 43.364c1.419 6.608 7.157 11.559 12.822 11.063s9.105-6.25 7.687-12.858l-14.756-68.735c-3.184-14.831-16.123-25.997-28.848-24.883" fill="#b0c3ff"/><path d="M182.257 219.576c-5.848 0-11.573-5.146-13.02-11.888l-14.757-68.734c-1.767-8.231-.313-16.293 3.986-22.116 3.445-4.666 8.485-7.511 14.19-8.01l46.134-4.036c13.194-1.169 26.625 10.36 29.912 25.67l14.756 68.734c.82 3.819.142 7.566-1.862 10.28-1.627 2.203-4.012 3.547-6.715 3.783-6.14.543-12.368-4.777-13.887-11.85l-9.125-42.504-49.29 4.14 9.109 42.43c.82 3.819.142 7.566-1.862 10.28-1.627 2.203-4.012 3.547-6.714 3.783a9.802 9.802 0 0 1-.856.037zm38.39-112.865c-.561 0-1.12.024-1.682.073l-46.134 4.036c-5.125.448-9.655 3.008-12.755 7.205-3.96 5.363-5.287 12.838-3.641 20.509l14.757 68.734c1.313 6.119 6.577 10.727 11.747 10.278 2.153-.188 3.979-1.219 5.278-2.979 1.664-2.252 2.216-5.413 1.517-8.672l-9.348-43.541a1 1 0 0 1 .894-1.206l51.299-4.309a1 1 0 0 1 1.062.786l9.31 43.364c1.314 6.12 6.588 10.735 11.758 10.277 2.154-.188 3.979-1.219 5.28-2.979 1.663-2.252 2.215-5.413 1.516-8.672l-14.756-68.734c-2.941-13.7-14.425-24.171-26.102-24.171zm-1.769-.923h.01z" fill="#111"/><path d="m179.164 151.891 27.591 128.519c1.772 8.253 8.945 14.439 16.025 13.819 7.081-.619 11.382-7.81 9.61-16.062 1.772 8.253 8.944 14.439 16.025 13.819s11.371-7.809 9.6-16.061L241.973 201.2l-11.549-53.794" fill="#b0c3ff"/><g fill="#111"><path d="M221.812 295.271c-7.199 0-14.251-6.343-16.034-14.651l-27.592-128.519a1 1 0 0 1 1.956-.42L207.734 280.2c1.667 7.763 8.384 13.618 14.961 13.033 2.728-.238 5.136-1.598 6.781-3.825 2.12-2.872 2.827-6.892 1.938-11.03a1 1 0 1 1 1.956-.42c1.666 7.762 8.356 13.612 14.96 13.033 2.723-.238 5.127-1.596 6.771-3.823 2.12-2.872 2.826-6.893 1.938-11.032l-27.591-128.52a1 1 0 0 1 1.956-.42l27.591 128.52c1.01 4.7.177 9.308-2.284 12.641-1.989 2.694-4.903 4.338-8.206 4.627-5.746.51-11.601-3.196-14.869-8.856-.332 2.411-1.194 4.634-2.549 6.469-1.991 2.696-4.909 4.341-8.217 4.63a12.03 12.03 0 0 1-1.056.046z"/><path d="M232.39 279.167c-.461 0-.876-.321-.977-.79l-16.043-74.726a1 1 0 0 1 1.956-.42l16.043 74.726a1 1 0 0 1-.979 1.21z"/></g></svg></g><g transform="translate(1800.0 1258.0) rotate(0.0 254.0 235.5) scale(1.0008550612137141 1.001086104032188)"><svg width="507.566" height="470.489" viewBox="0 0 507.566 470.489"><path d="m104.645 129.416 13.799 52.396-47.283-16.464-13.799-52.396z" fill="#b0c3ff"/><path d="M118.443 182.811a1.01 1.01 0 0 1-.329-.056l-47.282-16.464a.998.998 0 0 1-.638-.689l-13.799-52.396a1 1 0 0 1 1.296-1.199l47.283 16.464a.998.998 0 0 1 .638.689l13.798 52.396a1 1 0 0 1-.967 1.255zm-46.451-18.233 45.006 15.671-13.185-50.063-45.006-15.671z" fill="#111"/><path d="m302.864 251.023 13.798 52.396-108.774-37.875-13.799-52.396z" fill="#b0c3ff"/><path d="M316.662 304.419a1.01 1.01 0 0 1-.329-.056l-108.774-37.875a1.002 1.002 0 0 1-.638-.689l-13.799-52.396a1 1 0 0 1 1.296-1.199l108.774 37.875c.313.109.553.368.638.689l13.799 52.396a1 1 0 0 1-.967 1.255zm-107.943-39.645 106.498 37.082-13.185-50.064-106.498-37.082z" fill="#111"/><path d="m194.089 213.148 13.799 52.396-77.069 125.663-13.799-52.396z" fill="#b0c3ff"/><path d="M130.818 392.207a1 1 0 0 1-.967-.745l-13.798-52.396a1.003 1.003 0 0 1 .114-.777l77.068-125.664a1 1 0 0 1 1.819.267l13.799 52.396c.069.264.028.545-.114.777L131.67 391.728a1 1 0 0 1-.853.478zm-12.722-53.237 13.093 49.72 75.622-123.304-13.094-49.721z" fill="#111"/><path d="m117.02 338.811 13.799 52.396-116.02-40.398L1 298.413z" fill="#b0c3ff"/><path d="M130.818 392.207a1.01 1.01 0 0 1-.329-.056l-116.02-40.398a.998.998 0 0 1-.638-.689L.033 298.668a1 1 0 0 1 1.296-1.199l116.021 40.398a1 1 0 0 1 .638.689l13.798 52.396a1 1 0 0 1-.967 1.255zM15.63 350.039l113.743 39.605-13.184-50.063L2.445 299.976l13.185 50.063z" fill="#111"/><path d="m492.767 264.56 13.799 52.396-47.283-16.464-13.798-52.396z" fill="#b0c3ff"/><path d="M506.565 317.956a1.01 1.01 0 0 1-.329-.056l-47.282-16.464a1 1 0 0 1-.638-.689l-13.799-52.396a1 1 0 0 1 1.296-1.199l47.282 16.464a1 1 0 0 1 .638.689l13.799 52.396a1 1 0 0 1-.967 1.255zm-46.451-18.233 45.006 15.671-13.185-50.064-45.006-15.671z" fill="#111"/><path d="m445.485 248.096 13.798 52.396-103.645 168.997-13.799-52.396z" fill="#b0c3ff"/><path d="M355.638 470.489a1 1 0 0 1-.967-.745l-13.798-52.396a1.003 1.003 0 0 1 .114-.777l103.645-168.997a1 1 0 0 1 1.819.267l13.799 52.396c.069.264.028.545-.114.777L356.49 470.011a1 1 0 0 1-.853.478zm-12.722-53.238 13.093 49.721 102.198-166.638-13.094-49.721z" fill="#111"/><path d="m341.839 417.093 13.799 52.396-116.045-40.407-13.798-52.396z" fill="#b0c3ff"/><path d="M355.638 470.489a1.01 1.01 0 0 1-.329-.056l-116.045-40.407a1 1 0 0 1-.638-.689l-13.798-52.396a1 1 0 0 1 1.296-1.199l116.045 40.406c.313.109.553.368.638.689l13.798 52.396a1 1 0 0 1-.967 1.255zm-115.214-42.177 113.769 39.614-13.184-50.064-113.769-39.613z" fill="#111"/><path d="m390.2 1 102.567 263.56-47.282-16.464-103.646 168.997-116.044-40.407 77.069-125.663-108.775-37.875-77.069 125.663L1 298.413l103.645-168.997-47.283-16.464z" fill="#fff"/><path d="M341.84 418.093a.994.994 0 0 1-.329-.056l-116.045-40.406a1 1 0 0 1-.523-1.466l76.419-124.605-106.841-37.202-76.647 124.978a.998.998 0 0 1-1.182.422L.671 299.357a1.001 1.001 0 0 1-.524-1.466l102.996-167.938-46.11-16.056a.998.998 0 0 1 .01-1.892L389.882.052a1 1 0 0 1 1.25.586l102.566 263.56a1 1 0 0 1-1.261 1.307l-46.521-16.199-103.224 168.311a1 1 0 0 1-.853.478zm-114.543-41.942 114.111 39.733 103.224-168.311a.999.999 0 0 1 1.182-.422l45.235 15.751L389.614 2.252 60.45 112.969l44.524 15.503a.999.999 0 0 1 .524 1.466L2.502 297.877l114.087 39.726 76.647-124.978a.998.998 0 0 1 1.182-.422l108.774 37.875a1 1 0 0 1 .523 1.466l-76.419 124.605z" fill="#111"/></svg></g></svg>