<svg xmlns="http://www.w3.org/2000/svg" viewBox="0 0 3000 3000" width="3000" height="3000"><g transform="translate(237.6 1855.1999999999998) rotate(3.961563769931183 355.79999999999995 298.20000000000005) scale(1.0861933167666973 1.0882516627587657)"><svg width="655.132" height="548.035" viewBox="0 0 655.132 548.035"><linearGradient id="a" gradientUnits="userSpaceOnUse" x1="87.934" x2="545.065" y1="108.689" y2="408.905"><stop offset=".097" stop-color="#3658c1"/><stop offset="1" stop-color="#111"/></linearGradient><path d="M166.722 22.555 338.563 1l-53.677 68.353c-9.167 11.672-27.376 13.956-40.618 5.095z" fill="#b0c3ff"/><path d="M262.12 80.838a33.126 33.126 0 0 1-18.408-5.559l-77.546-51.893a1 1 0 0 1 .432-1.823L338.439.008a1 1 0 0 1 .911 1.61L285.672 69.97c-5.59 7.119-14.435 10.868-23.552 10.868zm-92.615-57.624 75.319 50.4c12.811 8.575 30.429 6.386 39.276-4.879L336.274 2.3z" fill="#111"/><path d="m166.722 22.555 77.546 51.893c13.242 8.861 31.451 6.577 40.618-5.095L338.563 1l295.789 197.939c20.843 13.947 26.044 40.151 11.616 58.522l-196.757 250.55c-14.428 18.372-43.023 21.959-63.865 8.011L25.749 275.384C4.907 261.437-.295 235.233 14.133 216.862z" fill="#3658c1"/><path d="M413.419 525.5a51.533 51.533 0 0 1-28.629-8.647L25.192 276.215c-10.667-7.138-17.857-17.984-19.729-29.757a38.619 38.619 0 0 1 7.883-30.214l152.59-194.307a1 1 0 0 1 1.342-.213l77.546 51.893c12.811 8.572 30.43 6.383 39.275-4.882L337.776.382a1 1 0 0 1 1.343-.213l295.789 197.939c10.668 7.138 17.859 17.984 19.731 29.757a38.616 38.616 0 0 1-7.884 30.214L450 508.629c-8.683 11.053-22.418 16.871-36.581 16.871zM166.936 23.9 14.919 217.479a36.638 36.638 0 0 0-7.481 28.666c1.785 11.224 8.661 21.579 18.867 28.408L385.9 515.191c20.384 13.642 48.433 10.144 62.522-7.8l196.76-250.547a36.642 36.642 0 0 0 7.482-28.666C650.879 216.954 644 206.6 633.8 199.77L338.777 2.346l-53.1 67.624c-9.478 12.068-28.3 14.45-41.96 5.309z" fill="#111"/><path d="m645.968 257.461-196.757 250.55c-14.427 18.372-43.023 21.959-63.865 8.011L25.749 275.384C10.236 265 3.388 247.832 6.849 232.154l-4.97 22.511c-3.461 15.678 3.388 32.849 18.9 43.23l359.6 240.638c20.843 13.947 49.438 10.36 63.865-8.012L641 279.972a37.917 37.917 0 0 0 7.283-15.294l4.97-22.51a37.923 37.923 0 0 1-7.285 15.293z" fill="url(#a)"/><path d="M408.45 548.011a51.517 51.517 0 0 1-28.63-8.647L20.223 298.726C4.824 288.421-2.76 271.041.9 254.449l4.97-22.511a1 1 0 1 1 1.953.432c-3.485 15.781 3.769 32.339 18.479 42.183L385.9 515.191c20.385 13.642 48.432 10.145 62.522-7.8l196.758-250.55a36.8 36.8 0 0 0 7.093-14.891 1 1 0 0 1 1.954.431l-4.97 22.51a38.793 38.793 0 0 1-7.474 15.695L445.028 531.139c-8.681 11.053-22.416 16.872-36.578 16.872zM5.176 244.37l-2.32 10.51c-3.484 15.782 3.77 32.34 18.479 42.184L380.932 537.7c20.385 13.641 48.433 10.143 62.523-7.8l196.757-250.546a36.8 36.8 0 0 0 7.094-14.892l2.332-10.564a40.615 40.615 0 0 1-2.883 4.181l-.787-.618.787.618L450 508.629c-14.722 18.746-43.974 22.435-65.208 8.224l-359.6-240.638c-11.562-7.737-18.717-19.46-20.016-31.845z" fill="#111"/><path d="m166.581 222.427 97.448-124.09" fill="#fff"/><path d="M166.58 223.427a1 1 0 0 1-.786-1.618l97.448-124.09a1 1 0 1 1 1.573 1.235l-97.448 124.09a1 1 0 0 1-.787.383z" fill="#111"/><path d="m201.019 309.321 163.184-207.797" fill="#fff"/><path d="M201.019 310.321a1 1 0 0 1-.786-1.618l163.184-207.8a1 1 0 1 1 1.573 1.235l-163.184 207.8a1 1 0 0 1-.787.383z" fill="#111"/><path d="M282.116 363.59 445.3 155.793" fill="#fff"/><path d="M282.116 364.59a.987.987 0 0 1-.617-.214 1 1 0 0 1-.169-1.4l163.183-207.8a1 1 0 1 1 1.573 1.235L282.9 364.208a1 1 0 0 1-.784.382z" fill="#111"/><path d="m363.187 417.842 112.815-143.657" fill="#fff"/><path d="M363.187 418.842a1 1 0 0 1-.786-1.618l112.814-143.657a1 1 0 0 1 1.574 1.235L363.974 418.46a1 1 0 0 1-.787.382z" fill="#111"/></svg></g><g transform="translate(429.59999999999997 769.1999999999999) rotate(3.8188799246871477 1096.8 790.2) scale(1.2010768955316062 1.2006372402664742)"><svg width="1826.361" height="1316.301" viewBox="0 0 1826.361 1316.301"><linearGradient id="b" gradientUnits="userSpaceOnUse" x1="465.103" x2="776.156" y1="206.807" y2="921.447"><stop offset="0" stop-color="#b0c3ff"/><stop offset=".449" stop-color="#3658c1"/><stop offset="1" stop-color="#111"/></linearGradient><linearGradient id="c" gradientUnits="userSpaceOnUse" x1="415.876" x2="1832.664" y1="1277.469" y2="998.728"><stop offset="0" stop-color="#111"/><stop offset=".353" stop-color="#3658c1"/><stop offset=".585" stop-color="#b0c3ff"/><stop offset=".863" stop-color="#3658c1"/><stop offset="1" stop-color="#111"/></linearGradient><path d="M900.962 5.251c31.5-13.367 71.54 5.837 89.454 42.907l302.21 625.378c17.9 37.049 6.9 77.931-24.6 91.3l-854.256 362.45c-31.486 13.36-71.55-5.857-89.454-42.906L22.106 459c-17.914-37.07-6.886-77.939 24.6-91.3z" fill="#b0c3ff"/><path d="M392.583 1132.516c-26.865 0-54.966-18.313-69.167-47.7L21.206 459.437c-9.787-20.253-11.387-42.542-4.388-61.153 5.478-14.567 15.954-25.755 29.5-31.5L900.571 4.331l.391.92-.391-.92c31.929-13.547 72.636 5.918 90.745 43.392l302.21 625.377c9.787 20.253 11.386 42.543 4.387 61.155-5.477 14.566-15.952 25.752-29.5 31.5l-854.252 362.451a54.994 54.994 0 0 1-21.578 4.31zm529.6-1130.5a53.078 53.078 0 0 0-20.83 4.158L47.1 368.624c-13.035 5.53-23.124 16.314-28.407 30.364-6.807 18.1-5.234 39.816 4.316 59.579l302.211 625.378c17.651 36.528 57.2 55.557 88.162 42.421l854.256-362.452c13.036-5.531 23.124-16.314 28.406-30.362 6.808-18.1 5.235-39.818-4.315-59.581L989.516 48.593c-13.862-28.685-41.229-46.579-67.334-46.579z" fill="#111"/><path d="M906.924 33.074 65.08 390.26c-22.02 9.343-29.74 37.934-17.208 63.867l297.358 615.337c12.522 25.912 40.545 39.337 62.565 29.994l841.845-357.187c22.038-9.35 29.741-37.933 17.219-63.845L969.5 63.089c-12.532-25.933-40.538-39.366-62.577-30.015" fill="#fff"/><g fill="#111"><path d="M392.974 1103.416c-18.9 0-38.664-12.864-48.644-33.517L46.972 454.562c-6.882-14.241-8-29.919-3.079-43.016a38.293 38.293 0 0 1 20.8-22.206L906.534 32.153c22.48-9.537 51.131 4.145 63.867 30.5l297.358 615.337c6.878 14.233 8 29.9 3.078 42.99a38.306 38.306 0 0 1-20.806 22.211l-841.845 357.187a38.77 38.77 0 0 1-15.212 3.038zM906.924 33.074l.391.92L65.47 391.181a36.313 36.313 0 0 0-19.7 21.069c-4.733 12.587-3.637 27.692 3.007 41.442l297.359 615.337c12.273 25.4 39.76 38.634 61.274 29.508l841.844-357.186a36.324 36.324 0 0 0 19.716-21.074c4.73-12.578 3.634-27.674-3.006-41.416L968.6 63.524c-12.279-25.411-39.772-38.658-61.285-29.53z"/><path d="M494.98 230.245c-5.317 2.256-7.176 9.157-4.143 15.434 3.024 6.256 9.785 9.5 15.1 7.244s7.194-9.165 4.17-15.421c-3.033-6.277-9.813-9.513-15.129-7.257"/><path d="M502.376 254.633c-4.851 0-9.9-3.265-12.439-8.519a14.1 14.1 0 0 1-.777-11 9.986 9.986 0 0 1 5.429-5.786c5.8-2.462 13.168 1.012 16.421 7.743a14.059 14.059 0 0 1 .764 10.971 9.878 9.878 0 0 1-9.4 6.595zm-3.793-24.108a8.2 8.2 0 0 0-3.213.64 7.9 7.9 0 0 0-4.338 4.649 12.1 12.1 0 0 0 .706 9.43c2.79 5.774 8.985 8.806 13.81 6.758a8.037 8.037 0 0 0 4.354-4.668 12.054 12.054 0 0 0-.693-9.4c-2.203-4.557-6.526-7.409-10.626-7.409z"/></g><path d="M1268.026 764.834 413.77 1127.286c-31.486 13.36-71.55-5.857-89.454-42.906L22.106 459c-16.491-34.124-8.455-71.47 17.494-87.609l-12.519 7.788C1.131 395.317-6.9 432.664 9.586 466.79L311.8 1092.168c17.9 37.049 57.968 56.265 89.454 42.906l854.256-362.452a51.748 51.748 0 0 0 7.112-3.688l12.52-7.788a51.7 51.7 0 0 1-7.116 3.688z" fill="url(#b)"/><path d="M380.064 1140.3c-26.867 0-54.965-18.311-69.168-47.7L8.686 467.225c-16.476-34.1-8.8-72.312 17.862-88.9l12.52-7.787a1 1 0 1 1 1.057 1.7c-25.79 16.042-33.149 53.154-17.119 86.327l302.211 625.378c17.651 36.528 57.2 55.557 88.163 42.42l854.255-362.451.242.57-.242-.57a51.14 51.14 0 0 0 6.975-3.617 1 1 0 0 1 1.056 1.7l-.055.034-12.465 7.754a53 53 0 0 1-7.249 3.759l-854.256 362.453a55.024 55.024 0 0 1-21.577 4.305zM28 379.783l-.393.245c-25.791 16.041-33.151 53.154-17.12 86.327L312.7 1091.733c17.652 36.527 57.2 55.555 88.163 42.421L1255.116 771.7a51.392 51.392 0 0 0 4.8-2.34l-845.755 358.846c-31.927 13.548-72.636-5.917-90.745-43.391L21.206 459.437C7.3 430.661 10.6 398.947 28 379.783z" fill="#111"/><path d="M1262.454 766.161c31.486-13.359 78.082-18.343 104.038-11.127l438.139 121.8c25.955 7.215 21.47 23.9-10.016 37.265l-854.256 362.453c-31.486 13.359-78.083 18.342-104.038 11.127l-438.139-121.8c-25.956-7.216-21.47-23.906 10.017-37.265z" fill="#b0c3ff"/><path d="M865.376 1291.97c-11.067 0-21.2-1.07-29.323-3.327l-438.138-121.8c-14.028-3.9-17.307-9.849-17.587-14.155-.537-8.246 9.479-17.355 27.48-24.993l854.256-362.452.39.92-.39-.92c31.621-13.417 78.587-18.429 104.7-11.171l438.139 121.8c14.027 3.9 17.306 9.849 17.586 14.154.537 8.246-9.479 17.356-27.48 24.994l-854.26 362.452c-21.786 9.244-50.859 14.498-75.373 14.498zm472.009-539.244c-24.214 0-52.972 5.2-74.54 14.355l-854.256 362.453c-16.918 7.178-26.737 15.785-26.266 23.023.338 5.171 6.065 9.56 16.127 12.358l438.139 121.8c25.736 7.154 72.112 2.181 103.379-11.085l854.256-362.452c16.918-7.178 26.737-15.785 26.265-23.023-.337-5.172-6.064-9.56-16.126-12.358L1366.224 756c-7.982-2.222-17.952-3.274-28.839-3.274z" fill="#111"/><path d="M1244.523 804.552 513.8 1114.588c-9.7 4.115-11.081 9.256-3.085 11.479L740.709 1190c8 2.222 22.333.683 32.032-3.432l730.718-310.036c9.7-4.115 11.077-9.244 3.082-11.467l-229.989-63.936c-8-2.223-22.33-.695-32.029 3.42" fill="#fff"/><path d="M749.625 1192.009a35.3 35.3 0 0 1-9.184-1.043l-229.989-63.936c-4.712-1.31-5.822-3.432-5.923-4.982-.188-2.893 2.967-5.869 8.885-8.38l730.718-310.037c9.854-4.18 24.517-5.734 32.688-3.463l229.989 63.932c4.713 1.311 5.823 3.431 5.924 4.979.188 2.889-2.967 5.862-8.884 8.373l-730.718 310.04a64.383 64.383 0 0 1-23.506 4.517zm517.935-390.9a62.057 62.057 0 0 0-22.647 4.366L514.2 1115.509c-5.8 2.462-7.767 4.925-7.67 6.409.082 1.259 1.709 2.419 4.463 3.185l229.989 63.937c7.791 2.166 21.865.645 31.373-3.389l730.718-310.036c5.8-2.462 7.765-4.921 7.669-6.4-.082-1.256-1.709-2.416-4.464-3.182L1276.284 802.1a33.535 33.535 0 0 0-8.724-.994z" fill="#111"/><path d="m1287.21 981.649-260.187 110.4c-11.207 4.755-12.8 10.694-3.549 13.267l133.051 36.987c9.238 2.569 25.82.8 37.027-3.96l260.187-110.395c11.208-4.755 12.805-10.694 3.566-13.263l-133.051-36.987c-9.254-2.573-25.836-.8-37.044 3.956" fill="#fff"/><path d="M1166.848 1144.464a40.687 40.687 0 0 1-10.591-1.2l-133.051-36.988c-5.368-1.492-6.63-3.881-6.743-5.624-.213-3.271 3.4-6.654 10.169-9.527l260.187-110.4c11.369-4.823 28.282-6.618 37.7-4l133.052 36.988c5.357 1.489 6.616 3.876 6.73 5.616.213 3.272-3.4 6.657-10.173 9.531l-260.187 110.394a74.222 74.222 0 0 1-27.093 5.21zm120.362-162.815.391.92-260.187 110.395c-6.778 2.876-9.07 5.789-8.955 7.556.1 1.549 1.977 2.908 5.282 3.827l133.051 36.988c9.04 2.512 25.355.755 36.369-3.918l260.187-110.394c6.781-2.877 9.074-5.792 8.959-7.56-.1-1.546-1.972-2.9-5.27-3.819l-133.051-36.988c-9.05-2.516-25.371-.76-36.385 3.913z" fill="#111"/><path d="m1825.255 913.621-3.855-24.315c1.21 7.631-7.964 16.807-26.785 24.794l-854.256 362.451c-31.486 13.36-78.083 18.344-104.038 11.128l-438.138-121.8c-10.441-2.9-15.956-7.337-16.77-12.472l3.855 24.314c.815 5.135 6.33 9.57 16.77 12.472l438.138 121.8c25.956 7.216 72.552 2.232 104.038-11.127l854.256-362.452c18.822-7.986 27.995-17.163 26.785-24.793z" fill="url(#c)"/><path d="M869.232 1316.285c-11.067 0-21.2-1.071-29.323-3.329l-438.139-121.8c-10.528-2.928-16.576-7.519-17.489-13.279l-3.847-24.258-.009-.056a1 1 0 1 1 1.976-.314c.77 4.859 6.47 9 16.05 11.666l438.137 121.8c25.736 7.155 72.111 2.183 103.38-11.084l854.256-362.452c17.571-7.455 27.361-16.322 26.188-23.716a1 1 0 0 1 1.976-.314l3.855 24.315c1.345 8.487-8.635 17.916-27.383 25.87l-854.255 362.452c-21.787 9.244-50.86 14.498-75.373 14.499zm-485.874-157 2.9 18.279c.77 4.859 6.47 9 16.05 11.665l438.138 121.8c25.736 7.155 72.112 2.181 103.38-11.085l854.255-362.451c17.571-7.456 27.361-16.322 26.188-23.716l-2.894-18.254c-3.059 6.646-12.216 13.491-26.368 19.5L940.75 1277.472c-31.624 13.418-78.591 18.428-104.7 11.17l-438.138-121.8c-6.75-1.878-11.66-4.442-14.554-7.557z" fill="#111"/></svg></g><g transform="translate(1849.1999999999998 912.0) rotate(0.0 402.60000000000014 364.19999999999993) scale(1.2011259436938655 1.200927899810562)"><svg width="670.371" height="606.531" viewBox="0 0 670.371 606.531"><linearGradient id="d" gradientTransform="matrix(.9975847 .06946049 -.06946049 .9975847 266.539 197.61)" gradientUnits="userSpaceOnUse" x1="-247" x2="303.266" y1="202.494" y2="349.937"><stop offset="0" stop-color="#3658c1"/><stop offset=".216" stop-color="#b0c3ff"/><stop offset="1" stop-color="#3658c1"/></linearGradient><linearGradient xmlns:xlink="http://www.w3.org/1999/xlink" id="e" x1="-208.959" x2="341.307" xlink:href="#d" y1="62.907" y2="210.351"/><linearGradient xmlns:xlink="http://www.w3.org/1999/xlink" id="f" x1="-161.285" x2="395.738" xlink:href="#d" y1="-74.1" y2="75.154"/><g fill="none"><g><path d="m572.931 485.888-33.314 95.516c-10.919 31.307-98.741 32.918-220.624.298C172.355 542.456 31.94 468.523 5.37 416.57c-4.485-8.77-5.44-16.353-3.222-22.712l33.314-95.516c-2.218 6.358-1.263 13.942 3.222 22.712 26.57 51.953 166.985 125.886 313.623 165.131 121.883 32.62 209.705 31.01 220.624-.298" fill="url(#d)"/><path d="M469.138 606.531c-40.076 0-92.021-8.238-150.404-23.864C172.093 543.421 31.119 469.114 4.48 417.026c-4.526-8.849-5.628-16.754-3.276-23.497l33.314-95.516a1 1 0 0 1 1.888.658c-2.165 6.207-1.099 13.584 3.168 21.928 26.417 51.652 166.824 125.5 312.992 164.62 58.21 15.579 109.983 23.795 149.886 23.795.596 0 1.183-.002 1.772-.005 38.507-.238 62.571-8.566 67.763-23.451a1 1 0 0 1 1.888.658l-33.314 95.516c-5.57 15.972-29.651 24.545-69.639 24.792-.591.003-1.188.005-1.784.005zM33.395 307.305 3.092 394.188c-2.165 6.207-1.099 13.584 3.168 21.927 26.416 51.652 166.824 125.5 312.991 164.621 58.211 15.579 109.983 23.795 149.886 23.795.596 0 1.183-.001 1.772-.005 38.507-.238 62.571-8.566 67.763-23.451l30.279-86.815c-10.024 10.796-32.068 16.547-64.715 16.75-40.344.256-92.938-8-152.188-23.858C205.407 447.905 64.433 373.599 37.794 321.51c-2.586-5.056-4.054-9.805-4.399-14.205z" fill="#111"/><path d="M188.034 452.967c-24.595-9.632-38.947 16.398-31.51 35.545 8.401 21.63 36.244 23.322 45.834 2.786 6.549-14.024-.144-31.936-14.324-38.331" fill="#fff"/><g fill="#111"><path d="M180.462 506.762c-.278 0-.555-.004-.835-.014-10.681-.354-19.891-7.203-24.035-17.873-4.295-11.059-1.691-24.37 6.332-32.37 6.89-6.87 16.292-8.457 26.476-4.468a.638.638 0 0 1 .046.02c7.026 3.168 12.671 9.343 15.488 16.939 2.797 7.542 2.553 15.825-.669 22.726-4.361 9.338-13.046 15.041-22.803 15.041zm-2.669-54.865c-5.497 0-10.453 2.03-14.458 6.023-7.359 7.339-9.832 20.052-5.879 30.23 3.85 9.911 12.371 16.271 22.237 16.599 9.431.311 17.556-4.874 21.759-13.875 2.998-6.419 3.219-14.14.606-21.184-2.63-7.09-7.882-12.848-14.413-15.801-3.409-1.332-6.72-1.992-9.853-1.992zm312.455 106.467c-95.842 0-203.01-35.827-258.722-57.347a1 1 0 0 1 .721-1.865c55.578 21.468 162.489 57.212 257.999 57.212 1.049 0 2.082-.004 3.129-.013h.008a1 1 0 0 1 .008 2 365.31 365.31 0 0 1-3.142.013z"/><ellipse cx="304.197" cy="392.115" rx="75.761" ry="284.553" transform="matrix(.32932812 -.94421554 .94421554 .32932812 -166.224 550.21)"/><path d="M502.574 511.016c-2.269 0-4.579-.027-6.944-.081-39.11-.888-88.761-9.112-143.581-23.784C205.408 447.904 64.434 373.598 37.795 321.51c-6.145-12.015-5.994-22.149.449-30.119 10.274-12.712 36.043-18.972 74.521-18.096 39.111.888 88.761 9.112 143.582 23.784 146.641 39.246 287.615 113.552 314.255 165.642 6.145 12.015 5.993 22.148-.449 30.119-9.644 11.93-32.94 18.175-67.577 18.176zM105.622 275.288c-33.068 0-56.435 5.743-65.824 17.36-5.9 7.3-5.976 16.704-.224 27.951 26.417 51.652 166.824 125.5 312.992 164.621 58.828 15.745 111.247 23.721 150.205 23.723 33.067.001 56.435-5.743 65.824-17.36 5.9-7.3 5.976-16.704.224-27.951-26.416-51.652-166.823-125.5-312.991-164.62-58.829-15.745-111.248-23.723-150.206-23.723z"/></g></g><g><path d="m620.577 349.281-33.314 95.516c-10.919 31.307-98.741 32.918-220.624.298C220.002 405.849 79.586 331.917 53.016 279.964c-4.485-8.77-5.44-16.353-3.222-22.712l33.314-95.516c-2.218 6.358-1.263 13.942 3.222 22.712 26.57 51.953 166.985 125.886 313.623 165.131 121.883 32.62 209.705 31.01 220.624-.298" fill="url(#e)"/><path d="M516.785 469.923c-40.076 0-92.022-8.238-150.404-23.863C219.74 406.813 78.766 332.507 52.126 280.418c-4.525-8.849-5.627-16.754-3.276-23.497l33.314-95.516a1 1 0 1 1 1.889.658c-2.165 6.207-1.099 13.584 3.168 21.928 26.416 51.652 166.823 125.5 312.991 164.621 59.079 15.812 111.569 24.046 151.658 23.79 38.483-.238 62.542-8.556 67.753-23.423l.01-.028a1 1 0 0 1 1.888.658l-33.313 95.516c-5.571 15.972-29.652 24.545-69.639 24.792-.591.004-1.188.005-1.784.005zM81.041 170.698 50.738 257.58c-2.165 6.207-1.099 13.584 3.167 21.927 26.417 51.652 166.824 125.501 312.992 164.621 59.079 15.812 111.489 24.063 151.658 23.79 38.506-.238 62.571-8.566 67.763-23.451l30.279-86.815c-10.025 10.796-32.07 16.548-64.716 16.75-40.316.265-92.938-8-152.188-23.858-146.641-39.247-287.615-113.553-314.254-165.642-2.586-5.056-4.054-9.805-4.399-14.204z" fill="#111"/><path d="M235.68 316.36c-24.595-9.632-38.947 16.398-31.51 35.545 8.401 21.63 36.244 23.322 45.834 2.786 6.549-14.024-.144-31.936-14.324-38.331" fill="#fff"/><g fill="#111"><path d="M228.108 370.155c-.278 0-.556-.005-.835-.014-10.681-.354-19.891-7.203-24.036-17.874-4.295-11.058-1.692-24.369 6.331-32.369 6.889-6.87 16.291-8.458 26.476-4.469a.638.638 0 0 1 .046.02c7.026 3.169 12.671 9.343 15.488 16.94 2.797 7.542 2.553 15.825-.669 22.726-4.361 9.338-13.044 15.041-22.802 15.041zm-2.669-54.865c-5.498 0-10.454 2.031-14.458 6.024-7.359 7.339-9.832 20.052-5.879 30.229 3.85 9.912 12.371 16.272 22.238 16.6 9.408.302 17.555-4.874 21.758-13.875 2.998-6.419 3.219-14.14.607-21.184-2.629-7.091-7.881-12.849-14.413-15.802-3.409-1.332-6.719-1.992-9.853-1.992zm312.456 106.467c-95.843 0-203.011-35.827-258.723-57.347a1 1 0 0 1 .721-1.865c55.577 21.468 162.488 57.212 258 57.212 1.049 0 2.08-.004 3.127-.013h.008a1 1 0 0 1 .008 2 364.91 364.91 0 0 1-3.141.013z"/><ellipse cx="351.843" cy="255.508" rx="75.761" ry="284.553" transform="matrix(.32932812 -.94421554 .94421554 .32932812 -5.283 503.579)"/><path d="M550.219 374.408c-2.268 0-4.579-.026-6.943-.08-39.111-.888-88.761-9.112-143.582-23.784C253.053 311.297 112.079 236.991 85.44 184.902c-6.145-12.015-5.994-22.149.448-30.119 10.275-12.711 36.044-18.972 74.521-18.096 39.111.888 88.761 9.112 143.582 23.785 146.64 39.246 287.615 113.552 314.254 165.641 6.145 12.015 5.993 22.148-.449 30.119-9.643 11.931-32.94 18.176-67.577 18.176zM153.267 138.681c-33.067 0-56.434 5.743-65.823 17.36-5.9 7.3-5.976 16.704-.224 27.951 26.416 51.652 166.823 125.501 312.991 164.621 58.828 15.745 111.247 23.721 150.205 23.723 33.068 0 56.436-5.743 65.825-17.36 5.899-7.3 5.975-16.704.223-27.951-26.416-51.653-166.823-125.501-312.99-164.621-58.829-15.745-111.249-23.723-150.207-23.723z"/></g></g><g><path d="m668.223 212.672-33.314 95.516c-10.919 31.307-98.741 32.918-220.624.298-146.637-39.246-287.053-113.178-313.623-165.131-4.485-8.77-5.44-16.353-3.222-22.712l33.314-95.516c-2.218 6.358-1.263 13.942 3.222 22.712 26.57 51.953 166.985 125.886 313.623 165.131 121.883 32.62 209.705 31.01 220.624-.298" fill="url(#f)"/><path d="M564.431 333.316c-40.076 0-92.022-8.238-150.405-23.864C267.385 270.205 126.411 195.899 99.772 143.81c-4.526-8.849-5.628-16.754-3.276-23.496l33.314-95.517a1 1 0 0 1 1.888.658c-2.165 6.207-1.099 13.584 3.168 21.927 26.416 51.652 166.823 125.5 312.992 164.621 58.211 15.579 109.984 23.795 149.885 23.795a347 347 0 0 0 1.773-.005c38.483-.238 62.542-8.557 67.753-23.424l.01-.028a1 1 0 0 1 1.888.658l-33.314 95.516c-5.57 15.972-29.651 24.545-69.639 24.793-.591.003-1.188.005-1.783.005zM128.687 34.09l-30.303 86.882c-2.165 6.207-1.099 13.584 3.168 21.927C127.968 194.551 268.375 268.4 414.543 307.52c59.08 15.812 111.569 24.028 151.658 23.79 38.507-.238 62.571-8.567 67.763-23.451l30.279-86.815c-10.024 10.796-32.069 16.548-64.715 16.75-40.29.29-92.938-8-152.188-23.858-146.641-39.247-287.615-113.554-314.254-165.642-2.586-5.056-4.054-9.804-4.399-14.204z" fill="#111"/><path d="M283.326 179.752c-24.595-9.632-38.947 16.398-31.51 35.545 8.401 21.63 36.244 23.322 45.834 2.786 6.549-14.024-.144-31.936-14.324-38.331" fill="#fff"/><path d="M275.754 233.547c-.278 0-.555-.004-.835-.014-10.681-.354-19.891-7.203-24.035-17.873-4.295-11.059-1.691-24.37 6.331-32.37 6.89-6.87 16.293-8.458 26.476-4.469a.638.638 0 0 1 .046.02c7.026 3.168 12.671 9.343 15.488 16.939 2.797 7.542 2.553 15.825-.669 22.726-4.361 9.338-13.046 15.041-22.803 15.041zm-2.669-54.865c-5.498 0-10.453 2.03-14.458 6.024-7.36 7.339-9.832 20.052-5.879 30.229 3.85 9.911 12.371 16.271 22.237 16.599 9.429.3 17.556-4.874 21.759-13.875 2.998-6.419 3.219-14.14.606-21.184-2.63-7.09-7.882-12.848-14.413-15.801-3.409-1.332-6.72-1.992-9.853-1.992zm312.456 106.467c-95.843 0-203.011-35.827-258.723-57.347a1 1 0 0 1 .721-1.865c55.577 21.468 162.489 57.212 258 57.212 1.049 0 2.08-.004 3.127-.013h.008a1 1 0 0 1 .008 2 364.91 364.91 0 0 1-3.141.013z" fill="#111"/><ellipse cx="399.489" cy="118.9" fill="#fff" rx="75.761" ry="284.553" transform="matrix(.32932812 -.94421554 .94421554 .32932812 155.661 456.947)"/><path d="M597.867 237.8c-2.269 0-4.58-.026-6.945-.08-39.11-.888-88.76-9.112-143.581-23.784-146.642-39.247-287.616-113.554-314.255-165.642-6.145-12.015-5.994-22.148.448-30.119C143.809 5.463 169.581-.786 208.056.079c39.111.888 88.761 9.112 143.583 23.785C498.28 63.11 639.253 137.416 665.893 189.505c6.145 12.015 5.993 22.148-.449 30.119-9.644 11.931-32.94 18.176-67.576 18.176zM200.914 2.073c-33.068 0-56.435 5.743-65.824 17.36-5.9 7.299-5.976 16.704-.224 27.95 26.416 51.652 166.823 125.501 312.992 164.621 58.828 15.745 111.247 23.721 150.205 23.722 33.067.001 56.435-5.743 65.824-17.359 5.9-7.3 5.976-16.704.224-27.951-26.416-51.653-166.823-125.501-312.99-164.621C292.292 10.051 239.872 2.073 200.914 2.073z" fill="#111"/></g></g></svg></g><g transform="translate(664.8 988.8) rotate(0.0 597.0 483.0) scale(1.2010392912862287 1.2002146967904819)"><svg width="994.139" height="804.856" viewBox="0 0 994.139 804.856"><path d="M76.659 161.514c-61.497 21.23-90.123 93.554-68.493 166.408l125.102-25.209 33.776-134.51c-29.123-13.58-61.029-16.823-90.384-6.689" fill="#3658c1"/><path d="M8.165 328.923a1 1 0 0 1-.958-.715c-22.073-74.346 7.645-146.415 69.125-167.639l.326.945-.326-.945c28.421-9.812 60.786-7.422 91.133 6.729a1 1 0 0 1 .547 1.15l-33.776 134.51a1 1 0 0 1-.772.737L8.362 328.904c-.066.013-.133.02-.198.02zm104.247-172.3c-12.19 0-24.127 1.936-35.427 5.837-60.209 20.784-89.392 91.311-68.119 164.302l123.584-24.903 33.421-133.095c-17.556-8.063-35.773-12.141-53.459-12.141z" fill="#111"/><path d="m167.043 168.203-33.776 134.51 99.344-78.51c-17.553-25.038-40.538-44.357-65.569-56" fill="#fff"/><path d="M133.267 303.714a1.002 1.002 0 0 1-.97-1.243l33.776-134.51a.999.999 0 0 1 1.392-.663c25.699 11.954 48.51 31.434 65.966 56.333a1 1 0 0 1-.199 1.359l-99.345 78.51a.998.998 0 0 1-.62.215zm34.45-134.088-32.764 130.482 96.296-76.102c-16.933-23.889-38.864-42.66-63.532-54.38z" fill="#111"/><path d="m232.612 224.203-99.344 78.51L8.166 327.922c1.599 5.35 3.435 10.717 5.575 16.054 31.265 77.985 110.121 122.726 176.135 99.937 66.013-22.789 94.182-104.477 62.917-182.462a184.229 184.229 0 0 0-20.181-37.248" fill="#b0c3ff"/><path d="M154.151 450.831c-56.942 0-115.471-41.962-141.338-106.483-2.038-5.083-3.923-10.512-5.605-16.139a1.002 1.002 0 0 1 .761-1.267l124.867-25.162 99.157-78.362a1.002 1.002 0 0 1 1.439.21 185.632 185.632 0 0 1 20.291 37.45c16.98 42.354 17.114 87.671.366 124.329-13.081 28.631-35.769 49.744-63.885 59.451-11.717 4.045-23.85 5.973-36.051 5.973zM9.441 328.686a185.462 185.462 0 0 0 5.229 14.918c31.018 77.37 109.466 121.946 174.88 99.364 27.594-9.526 49.868-30.263 62.719-58.391 16.521-36.163 16.375-80.904-.403-122.753a183.576 183.576 0 0 0-19.466-36.177l-98.512 77.852a1.003 1.003 0 0 1-.422.196L9.442 328.687z" fill="#111"/><path d="M601.104 1 477.539 43.657l35.474 88.483 59.745-20.625 4.093-1.413 59.727-20.619z" fill="#3658c1"/><path d="M513.013 133.139a1 1 0 0 1-.928-.628l-35.474-88.483a1 1 0 0 1 .602-1.318L600.778.055a1 1 0 0 1 1.254.573l35.474 88.483a1 1 0 0 1-.602 1.318L513.34 133.085a1.005 1.005 0 0 1-.326.055zm-34.155-88.88 34.729 86.625 121.671-42.003L600.53 2.256z" fill="#111"/><path d="m500.378 246.605-45.933 15.857-4.093 1.414-45.933 15.856 24.505 61.126 95.96-33.127z" fill="#b0c3ff"/><path d="M428.925 341.858a1 1 0 0 1-.928-.628l-24.506-61.125a1 1 0 0 1 .602-1.318l95.959-33.127a1 1 0 0 1 1.254.573l24.506 61.125a1 1 0 0 1-.602 1.318l-95.959 33.127a1.005 1.005 0 0 1-.326.055zm-23.187-61.523 23.761 59.267 94.067-32.474-23.761-59.267z" fill="#111"/><path d="m661.56 190.963-45.934 15.857-4.093 1.413-45.952 15.863 24.506 61.125 95.979-33.133z" fill="#b0c3ff"/><path d="M590.087 286.221a1 1 0 0 1-.928-.628l-24.506-61.125a1 1 0 0 1 .602-1.318l95.979-33.134a1 1 0 0 1 1.254.573l24.506 61.125a1 1 0 0 1-.602 1.318l-95.979 33.134a1.005 1.005 0 0 1-.326.055zM566.9 224.699l23.761 59.267 94.086-32.48-23.761-59.267z" fill="#111"/><path d="m822.722 135.327-45.933 15.857-4.094 1.413-45.933 15.857 24.506 61.125 95.96-33.127z" fill="#b0c3ff"/><path d="M751.268 230.579a1 1 0 0 1-.928-.628l-24.505-61.125a1 1 0 0 1 .602-1.318l95.959-33.127a1 1 0 0 1 1.254.573l24.506 61.125a1 1 0 0 1-.602 1.318l-95.96 33.127a1.005 1.005 0 0 1-.326.055zm-23.187-61.522 23.76 59.267 94.067-32.474-23.761-59.267-94.067 32.474z" fill="#111"/><path d="m640.238 451.366-51.391 17.741 68.634 171.195 51.392-17.741z" fill="#3658c1"/><path d="M657.481 641.302a1 1 0 0 1-.928-.628l-68.634-171.195a1 1 0 0 1 .602-1.318l51.392-17.741a1 1 0 0 1 1.254.573l68.634 171.195a1 1 0 0 1-.602 1.318l-51.392 17.741a1.005 1.005 0 0 1-.326.055zm-67.315-171.593 67.889 169.337 49.499-17.088-67.889-169.337z" fill="#111"/><path d="m746.702 447.841-51.392 17.741 56.933 142.007 51.391-17.741z" fill="#3658c1"/><path d="M752.242 608.589a1 1 0 0 1-.928-.628l-56.932-142.007a1 1 0 0 1 .602-1.318l51.392-17.741a1 1 0 0 1 1.254.573l56.932 142.007a1 1 0 0 1-.602 1.318l-51.392 17.741a1.005 1.005 0 0 1-.326.055zm-55.613-142.404 56.187 140.148 49.499-17.088-56.187-140.148z" fill="#111"/><path d="m805.43 325.3-51.392 17.741 92.948 231.841 51.391-17.741z" fill="#3658c1"/><path d="M846.986 575.882a1 1 0 0 1-.928-.628L753.11 343.413a1 1 0 0 1 .602-1.318l51.391-17.741a1 1 0 0 1 1.254.573l92.948 231.841a1 1 0 0 1-.602 1.318l-51.391 17.741a1.005 1.005 0 0 1-.326.055zm-91.629-232.238 92.203 229.982 49.499-17.088-92.203-229.982z" fill="#111"/><path d="m918.88 339.203-51.392 17.741 74.259 185.225 51.392-17.741z" fill="#3658c1"/><path d="M941.747 543.169a1 1 0 0 1-.928-.628L866.56 357.316a1 1 0 0 1 .602-1.318l51.391-17.741a1 1 0 0 1 1.254.573l74.259 185.225a1 1 0 0 1-.602 1.318l-51.391 17.741a1.005 1.005 0 0 1-.326.055zm-72.94-185.623 73.514 183.367 49.499-17.088-73.514-183.366z" fill="#111"/><path d="m162.836 605.857-51.392 17.741 72.268 180.258 51.391-17.742z" fill="#3658c1"/><path d="M183.712 804.856a1 1 0 0 1-.928-.628L110.517 623.97a1 1 0 0 1 .602-1.318l51.391-17.741a1.001 1.001 0 0 1 1.254.573l72.268 180.258a1 1 0 0 1-.602 1.317L184.038 804.8a1.005 1.005 0 0 1-.326.055zm-70.948-180.655L184.286 802.6l49.499-17.088-71.522-178.399z" fill="#111"/><path d="m292.721 660.806-51.391 17.741 37.125 92.602 51.391-17.742z" fill="#3658c1"/><path d="M278.455 772.149a1 1 0 0 1-.928-.628l-37.125-92.602a1 1 0 0 1 .602-1.318l51.392-17.741a1 1 0 0 1 1.254.573l37.125 92.602a1 1 0 0 1-.602 1.317l-51.391 17.741a1.005 1.005 0 0 1-.326.055zm-35.807-93 36.38 90.744 49.499-17.088-36.38-90.744z" fill="#111"/><path d="m365.754 573.895-51.391 17.741 58.853 146.799 51.392-17.741z" fill="#3658c1"/><path d="M373.217 739.435a1 1 0 0 1-.928-.628l-58.854-146.799a1 1 0 0 1 .602-1.318l51.391-17.741a1.001 1.001 0 0 1 1.254.573l58.854 146.799a1 1 0 0 1-.602 1.318l-51.391 17.741a1.005 1.005 0 0 1-.326.055zm-57.535-147.196 58.108 144.94 49.499-17.088-58.108-144.94z" fill="#111"/><path d="m445.11 502.756-51.391 17.741 74.259 185.225 51.391-17.741z" fill="#3658c1"/><path d="M467.978 706.722a1 1 0 0 1-.928-.628l-74.259-185.225a1 1 0 0 1 .602-1.318l51.391-17.741a1 1 0 0 1 1.254.573l74.259 185.225a1 1 0 0 1-.602 1.318l-51.391 17.741a1.005 1.005 0 0 1-.326.055zM395.038 521.1l73.514 183.366 49.499-17.088-73.514-183.366z" fill="#111"/><path d="m565.066 532.939-51.392 17.741 49.046 122.335 51.391-17.741z" fill="#3658c1"/><g fill="#111"><path d="M562.72 674.015a1 1 0 0 1-.928-.628l-49.045-122.335a1 1 0 0 1 .602-1.318l51.391-17.741a1 1 0 0 1 1.254.573l49.045 122.335a1 1 0 0 1-.602 1.318l-51.391 17.741a1.005 1.005 0 0 1-.326.055zm-47.727-122.733 48.3 120.477 49.499-17.088-48.3-120.477zm-62.902-287.368c-.397 0-.773-.239-.929-.63l-21.371-53.619a1.003 1.003 0 0 1 .603-1.316L753.022 96.972a1 1 0 0 1 1.255.575l21.37 53.619a.999.999 0 0 1-.559 1.299.997.997 0 0 1-1.299-.559l-21.018-52.732-320.735 110.724 20.982 52.646a.999.999 0 0 1-.929 1.371z"/><path d="M613.677 208.486c-.396 0-.772-.238-.929-.628l-38.799-96.708a1 1 0 1 1 1.857-.745l38.799 96.708a1 1 0 0 1-.928 1.373z"/></g></svg></g><g transform="translate(1800.0 1680.0) rotate(0.0 321.5999999999999 170.39999999999998) scale(1.201564724211753 1.2030967031337703)"><svg width="535.302" height="283.269" viewBox="0 0 535.302 283.269"><path d="m507.355 89.022-16.104 25.17c-31.215 48.787-76.204 87.06-132.495 112.238-29.667 13.274-61.905 22.422-95.656 27.356-44.452 6.499-91.52 5.687-138.705-2.646l16.104-25.17c47.185 8.333 94.253 9.145 138.705 2.646 33.751-4.934 65.989-14.082 95.656-27.356 56.291-25.177 101.28-63.45 132.495-112.238" fill="#3658c1"/><path d="M202.819 259.124c-25.907 0-52.177-2.334-78.598-7a1 1 0 0 1-.669-1.523l16.104-25.171a.995.995 0 0 1 1.016-.445c47.017 8.303 93.576 9.191 138.386 2.642 33.928-4.96 66.022-14.138 95.393-27.28 56.228-25.149 100.659-62.786 132.061-111.864a1 1 0 1 1 1.686 1.078l-16.104 25.17c-31.615 49.412-76.339 87.3-132.93 112.611-29.54 13.217-61.812 22.447-95.92 27.433-19.835 2.9-40.019 4.35-60.425 4.35zm-76.772-8.711c46.518 8.063 92.573 8.863 136.908 2.383 33.926-4.959 66.021-14.138 95.393-27.28 54.701-24.466 98.236-60.749 129.473-107.888-29.47 35.896-67.201 64.259-112.552 84.544-29.538 13.216-61.811 22.446-95.92 27.433-44.813 6.552-91.362 5.696-138.366-2.535l-14.936 23.344z" fill="#111"/><path d="M135.892 257.099 17.104 153.326l137.111-20.058-4.358 29.441c34.058 4.793 67.92 4.769 100.199.049 27.894-4.079 54.607-11.666 79.219-22.68C392.416 111.827 438.651 63.736 462.982 1l71.319 34.761c-28.899 74.533-84.028 131.768-159.442 165.499-29.667 13.274-61.905 22.422-95.656 27.356-44.452 6.499-91.52 5.687-138.705-2.646l-4.607 31.129z" fill="#fff"/><path d="M135.892 258.099a.999.999 0 0 1-.658-.247L16.447 154.079a1.001 1.001 0 0 1 .513-1.743l137.111-20.059a1.001 1.001 0 0 1 1.134 1.136l-4.21 28.443c33.56 4.63 66.834 4.601 98.918-.089 28.034-4.1 54.599-11.705 78.955-22.603C391.764 111.023 437.818 63.122 462.05.639a1 1 0 0 1 1.371-.538l71.319 34.761a1 1 0 0 1 .494 1.26c-29 74.793-84.315 132.213-159.966 166.05-29.538 13.217-61.811 22.447-95.92 27.433-44.7 6.535-91.126 5.702-138.01-2.474l-4.457 30.114a1.002 1.002 0 0 1-.99.854zM19.397 154.002 135.17 255.141l4.339-29.318a.998.998 0 0 1 1.163-.838c47.016 8.303 93.576 9.191 138.386 2.642 33.928-4.96 66.022-14.138 95.393-27.28 74.87-33.489 129.689-90.217 158.584-164.09L463.519 2.374c-24.53 62.489-70.788 110.407-133.835 138.616-24.523 10.974-51.266 18.63-79.482 22.757-32.59 4.765-66.397 4.749-100.483-.048a1 1 0 0 1-.85-1.137l4.161-28.11-133.632 19.55z" fill="#111"/><path d="m135.892 257.099-16.104 25.17L1 178.497l16.104-25.171z" fill="#3658c1"/><path d="M119.787 283.269c-.24 0-.475-.087-.658-.247L.342 179.25a1 1 0 0 1-.185-1.292l16.104-25.17a1 1 0 0 1 1.5-.214l118.788 103.772a1 1 0 0 1 .185 1.292l-16.104 25.17a1 1 0 0 1-.842.461zM2.306 178.31l117.265 102.442 15.014-23.467L17.321 154.844 2.306 178.311z" fill="#111"/></svg></g><g transform="translate(1352.3999999999999 595.1999999999999) rotate(0.0 294.6 128.40000000000003) scale(1.2038567549399604 1.2081465206979778)"><svg width="489.427" height="212.557" viewBox="0 0 489.427 212.557"><path d="m488.427 199.225-12.861 12.332-119.117-48.607 12.861-12.332z" fill="#3658c1"/><path d="M475.565 212.557a.998.998 0 0 1-.378-.074l-119.116-48.607a1 1 0 0 1-.314-1.647l12.86-12.332a1.006 1.006 0 0 1 1.07-.204L488.804 198.3a1 1 0 0 1 .314 1.647l-12.861 12.332a1 1 0 0 1-.692.278zm-117.313-49.951 117.089 47.78 11.281-10.817-117.09-47.78z" fill="#111"/><path d="M390.461 132.791 377.6 145.123c-44.178-34.751-97.932-57.969-153.696-66.043a320.334 320.334 0 0 0-29.309-2.89c-56.057-2.921-110.468 9.275-158.862 35.821l12.861-12.332c48.394-26.546 102.805-38.742 158.862-35.821a320.687 320.687 0 0 1 29.309 2.89c55.764 8.074 109.518 31.292 153.696 66.043" fill="#3658c1"/><path d="M377.6 146.123a.99.99 0 0 1-.618-.214c-44.496-35.002-97.479-57.769-153.221-65.84a321.003 321.003 0 0 0-29.217-2.881c-55.711-2.911-110.459 9.44-158.329 35.699a1 1 0 0 1-1.173-1.598l12.862-12.333a.973.973 0 0 1 .211-.155C96.312 72.364 151.43 59.942 207.51 62.859a323.165 323.165 0 0 1 29.4 2.899c56.091 8.122 109.402 31.03 154.171 66.247a1.002 1.002 0 0 1 .074 1.508l-12.861 12.332a.995.995 0 0 1-.692.278zM178.595 74.772c5.341 0 10.689.139 16.053.418 9.738.508 19.63 1.483 29.4 2.9 55.804 8.079 108.856 30.795 153.487 65.71l11.402-10.934c-44.307-34.599-96.948-57.112-152.315-65.131a321.245 321.245 0 0 0-29.217-2.88c-55.666-2.91-110.37 9.419-158.213 35.635l-7.553 7.242c41.984-21.688 88.906-32.961 136.957-32.961z" fill="#111"/><path d="M202.922 1.508a384.446 384.446 0 0 1 35.127 3.463C310.244 15.429 379.92 47.056 435.888 94.51l22.348-18.842 30.191 123.556-119.117-48.607 21.151-17.827c-44.178-34.751-97.932-57.969-153.696-66.043a320.334 320.334 0 0 0-29.309-2.89c-56.057-2.921-110.468 9.275-158.862 35.821L13.861 44.007C71.324 12.49 136.068-1.977 202.922 1.508z" fill="#fff"/><path d="M488.427 200.225a.994.994 0 0 1-.378-.074l-119.117-48.607a.995.995 0 0 1-.609-.77.998.998 0 0 1 .343-.921l20.211-17.033c-44.293-34.57-96.915-57.068-152.255-65.083a321.245 321.245 0 0 0-29.217-2.88c-55.709-2.91-110.458 9.44-158.329 35.698a1 1 0 0 1-1.33-.348L13.012 44.536a1 1 0 0 1 .367-1.406C70.569 11.763 136.128-2.968 202.974.509c11.66.608 23.51 1.776 35.219 3.474 71.642 10.377 141.816 42.053 197.696 89.22l21.702-18.298a.999.999 0 0 1 1.616.527l30.191 123.556a1.002 1.002 0 0 1-.971 1.237zm-117.208-49.908 115.771 47.242-29.344-120.085-21.114 17.802a1 1 0 0 1-1.291-.002c-55.702-47.23-125.784-78.948-197.336-89.313a384.894 384.894 0 0 0-35.036-3.454C136.756-.943 71.915 13.537 15.27 44.376l33.673 53.972c47.998-26.126 102.805-38.395 158.565-35.489a323.165 323.165 0 0 1 29.4 2.899c56.091 8.122 109.402 31.03 154.171 66.247a1 1 0 0 1 .027 1.551z" fill="#111"/><path d="M48.594 99.678 35.733 112.01 1 56.339l12.861-12.332z" fill="#3658c1"/><path d="M35.733 113.011a1 1 0 0 1-.849-.471L.151 56.868a1 1 0 0 1 .157-1.251l12.861-12.332a1 1 0 0 1 1.541.192l34.733 55.671a1 1 0 0 1-.157 1.251l-12.861 12.333a.998.998 0 0 1-.692.278zM2.278 56.499l33.651 53.938 11.386-10.919-33.651-53.937z" fill="#111"/></svg></g></svg>