<svg xmlns="http://www.w3.org/2000/svg" viewBox="0 0 3000 3000" width="3000" height="3000"><g transform="translate(208.79999999999998 1588.8) rotate(-20.342158750938385 505.20000000000005 401.4) scale(1.2000570098341965 1.2001166032574166)"><svg width="841.96" height="668.935" viewBox="0 0 841.96 668.935"><g><path d="m825.039 394.184-593.2 265.374c-14.525 6.498-32.495.496-40.115-13.472L6.205 306.019c-3.704-6.79-4.263-14.219-2.18-20.802l-1.822 5.758c-2.084 6.583-1.525 14.012 2.18 20.802l185.519 340.068c7.62 13.968 25.59 19.97 40.115 13.473l593.2-265.374c7.437-3.327 12.537-9.289 14.722-16.191l1.822-5.757c-2.184 6.899-7.285 12.862-14.722 16.188z" fill="#111"/><path d="M217.646 668.924c-11.546 0-22.921-6.149-28.623-16.602L3.505 312.254c-3.708-6.797-4.509-14.462-2.255-21.582l1.822-5.758a1 1 0 1 1 1.906.604c-2.087 6.597-1.34 13.707 2.104 20.022l185.52 340.067c7.353 13.477 24.771 19.328 38.828 13.037l593.2-265.374c6.945-3.106 11.98-8.639 14.178-15.579a.999.999 0 1 1 1.906.604l-.011.035-1.812 5.723c-2.371 7.492-7.794 13.459-15.268 16.802l-593.2 265.374c-4.087 1.829-8.445 2.695-12.777 2.695zM2.078 296.76c-.401 4.931.677 9.944 3.183 14.537L190.78 651.365c7.354 13.478 24.772 19.326 38.829 13.037l593.2-265.374c5.143-2.3 9.237-5.93 11.909-10.476-2.538 2.709-5.666 4.932-9.271 6.544l-593.2 265.374c-14.986 6.702-33.56.468-41.4-13.906L5.327 306.497c-1.696-3.109-2.784-6.399-3.249-9.737z" fill="#111"/><path d="M611.967 3.61c14.525-6.498 32.475-.438 40.072 13.489l185.519 340.067c7.62 13.968 2.007 30.52-12.519 37.019l-593.2 265.374c-14.525 6.498-32.495.496-40.115-13.472L6.205 306.019c-7.598-13.927-1.964-30.537 12.561-37.035z" fill="#3658C1"/><path d="M219.471 663.166c-11.546 0-22.922-6.149-28.624-16.602L5.327 306.497c-3.802-6.969-4.547-14.804-2.099-22.062 2.459-7.288 7.832-13.101 15.13-16.365l593.2-265.374c14.964-6.694 33.518-.449 41.358 13.923l185.52 340.067c3.814 6.992 4.568 14.836 2.123 22.085-2.451 7.265-7.817 13.062-15.111 16.325L232.247 660.472c-4.089 1.829-8.445 2.694-12.776 2.694zM611.967 3.61l.408.913-593.2 265.374c-6.782 3.034-11.772 8.425-14.051 15.179-2.269 6.723-1.572 13.991 1.959 20.465l185.52 340.067c7.353 13.478 24.77 19.326 38.828 13.038l593.201-265.375c6.778-3.032 11.763-8.408 14.032-15.139 2.266-6.714 1.562-13.99-1.983-20.488L651.161 17.576C643.809 4.1 626.411-1.756 612.375 4.523z" fill="#111"/><path d="m278.963 447.372-96.71 43.264c-2.545 1.139-3.564 4.033-2.21 6.515l14.104 25.854c1.333 2.443 4.511 3.509 7.057 2.37l96.71-43.264c2.545-1.139 3.542-4.073 2.21-6.515l-14.104-25.854c-1.355-2.482-4.512-3.509-7.057-2.37" fill="#B0C3FF"/><path d="M199.038 526.831c-2.327 0-4.62-1.24-5.769-3.347l-14.104-25.854c-.783-1.435-.938-3.046-.435-4.537.506-1.501 1.612-2.698 3.114-3.37l96.71-43.264c3.019-1.348 6.763-.094 8.343 2.805l14.104 25.854c.778 1.426.928 3.038.421 4.538-.508 1.505-1.609 2.702-3.101 3.369l-96.71 43.264c-.823.367-1.7.542-2.573.542zm82.116-78.923a4.35 4.35 0 0 0-1.783.377l-96.71 43.264c-.987.441-1.71 1.217-2.036 2.183-.322.957-.218 2.001.296 2.94l14.104 25.855c1.072 1.967 3.715 2.853 5.771 1.935l96.71-43.264c.977-.437 1.694-1.212 2.022-2.183.325-.966.226-2.01-.282-2.941l-14.104-25.854c-.794-1.454-2.379-2.312-3.988-2.312zm-2.191-.536h.01z" fill="#111"/><path d="m422.003 383.382-96.71 43.264c-2.545 1.139-3.564 4.033-2.21 6.515l14.104 25.854c1.333 2.443 4.511 3.509 7.057 2.37l96.71-43.264c2.588-1.158 3.542-4.073 2.21-6.515l-14.104-25.854c-1.355-2.482-4.469-3.528-7.057-2.37" fill="#B0C3FF"/><path d="M342.078 462.841c-2.327 0-4.62-1.24-5.769-3.347l-14.104-25.854c-.783-1.435-.938-3.046-.435-4.537.506-1.501 1.611-2.698 3.113-3.37l96.711-43.264c3.071-1.371 6.735-.142 8.343 2.803l14.104 25.855c.783 1.436.937 3.05.433 4.545-.505 1.496-1.61 2.689-3.112 3.362l-96.71 43.264a6.3 6.3 0 0 1-2.574.543zm82.154-78.934c-.612 0-1.232.125-1.821.389L325.7 427.559c-.986.441-1.709 1.217-2.035 2.183-.322.957-.218 2.001.296 2.94l14.104 25.855c1.072 1.968 3.715 2.852 5.771 1.935l96.71-43.264c.986-.441 1.709-1.214 2.033-2.176.324-.961.22-2.008-.293-2.948l-14.104-25.854c-.804-1.472-2.351-2.323-3.95-2.323zm-2.229-.525h.01z" fill="#111"/><path d="m565.086 319.372-96.71 43.264c-2.545 1.139-3.564 4.033-2.21 6.515l14.104 25.854c1.333 2.443 4.511 3.509 7.057 2.37l96.71-43.264c2.548-1.14 3.542-4.073 2.21-6.515l-14.104-25.854c-1.355-2.482-4.51-3.509-7.057-2.37" fill="#B0C3FF"/><path d="M485.161 398.831c-2.327 0-4.62-1.24-5.77-3.346l-14.104-25.855c-.783-1.435-.938-3.046-.435-4.537.506-1.5 1.611-2.697 3.113-3.369l96.711-43.265c3.021-1.35 6.763-.092 8.343 2.805l14.104 25.854c.778 1.427.928 3.039.422 4.539-.508 1.505-1.609 2.7-3.102 3.368l-96.71 43.264a6.28 6.28 0 0 1-2.572.542zm82.115-78.922c-.604 0-1.212.12-1.782.376l-96.711 43.265c-.986.441-1.709 1.217-2.035 2.183-.322.956-.217 2 .296 2.939l14.104 25.855c1.073 1.966 3.716 2.853 5.771 1.935l96.71-43.264c.977-.437 1.695-1.212 2.022-2.182.326-.966.226-2.011-.282-2.942l-14.104-25.854c-.794-1.454-2.379-2.311-3.989-2.311zm-2.19-.537h.01z" fill="#111"/><path d="m708.128 255.381-96.71 43.264c-2.548 1.14-3.564 4.033-2.21 6.515l14.104 25.854c1.333 2.443 4.509 3.51 7.057 2.37l96.71-43.264c2.545-1.139 3.542-4.072 2.21-6.515l-14.104-25.854c-1.354-2.482-4.512-3.509-7.057-2.37" fill="#B0C3FF"/><path d="M628.203 334.84c-2.327 0-4.62-1.24-5.769-3.347l-14.104-25.854c-.783-1.435-.938-3.047-.436-4.538.506-1.5 1.612-2.696 3.114-3.369l96.711-43.264c3.021-1.35 6.764-.093 8.343 2.804l14.104 25.854c.778 1.426.928 3.038.421 4.538-.508 1.505-1.609 2.702-3.101 3.369l-96.71 43.264c-.823.368-1.7.543-2.573.543zm82.116-78.923a4.35 4.35 0 0 0-1.783.377l-96.711 43.264c-.986.441-1.71 1.217-2.035 2.183-.322.956-.218 2.001.296 2.94l14.104 25.855c1.072 1.967 3.714 2.852 5.771 1.935l96.71-43.264c.977-.437 1.694-1.212 2.022-2.183.325-.966.226-2.01-.282-2.941l-14.104-25.854c-.794-1.455-2.378-2.312-3.988-2.312zm-2.191-.536h.01z" fill="#111"/><path d="m239.091 389.131-24.781-45.424c-3.144-5.762-10.561-8.22-16.53-5.55l-73.128 32.715c-6.01 2.689-8.319 9.497-5.175 15.259l24.781 45.424c3.122 5.724 10.518 8.239 16.528 5.55l73.128-32.714c5.969-2.67 8.299-9.536 5.177-15.26z" fill="#fff"/><g fill="#111"><path d="M155.696 439.179c-4.968 0-9.862-2.646-12.316-7.145l-24.78-45.425c-1.652-3.028-1.979-6.425-.921-9.563 1.063-3.151 3.395-5.668 6.565-7.087l73.128-32.715c6.449-2.886 14.442-.201 17.816 5.984l24.78 45.424c1.642 3.009 1.96 6.402.896 9.556-1.068 3.166-3.393 5.687-6.544 7.097l-73.127 32.714a13.433 13.433 0 0 1-5.497 1.16zm47.2-101.102c-1.596 0-3.201.318-4.708.993l-73.128 32.715c-2.655 1.188-4.604 3.283-5.486 5.899-.879 2.604-.602 5.434.781 7.968l24.78 45.425c2.886 5.289 9.722 7.587 15.242 5.115l73.127-32.714c2.637-1.18 4.577-3.278 5.465-5.91.884-2.618.614-5.444-.757-7.959l-24.78-45.424c-2.097-3.845-6.285-6.108-10.536-6.108z"/><path d="M181.51 428.784a1 1 0 0 1-.879-.521L144.52 362.07a.999.999 0 1 1 1.755-.957l36.111 66.193a.999.999 0 0 1-.876 1.478zm31.596-14.134a1 1 0 0 1-.879-.521l-36.111-66.193a.999.999 0 1 1 1.755-.957l36.111 66.193a.999.999 0 0 1-.876 1.478z"/><path d="M137.884 420.869a1 1 0 0 1-.409-1.913l94.833-42.424a1 1 0 1 1 .816 1.826l-94.833 42.424a1.004 1.004 0 0 1-.407.087zm-12.031-22.051a1 1 0 0 1-.409-1.913l94.833-42.425a.999.999 0 1 1 .816 1.826l-94.833 42.425a1.014 1.014 0 0 1-.407.087z"/></g></g></svg></g><g transform="translate(2052.0 861.6) rotate(-13.965141242024236 323.39999999999986 330.59999999999997) scale(1.3311737091134352 1.3304706348711282)"><svg width="485.887" height="496.967" viewBox="0 0 485.887 496.967"><path d="M484.684 470.452 424.355 44.66a19.418 19.418 0 0 0-1.563-5.388l-12.198-26.643a19.418 19.418 0 0 1 1.563 5.388l60.329 425.792c2.274 16.023-14.958 29.576-31.016 24.392L14.936 330.522c-5.896-1.903-10.009-5.811-12.17-10.531l12.198 26.643c2.161 4.72 6.274 8.628 12.17 10.531l426.533 137.679c16.059 5.183 33.291-8.369 31.016-24.392z" fill="#3658c1"/><path d="M460.86 496.976c-2.518 0-5.043-.388-7.5-1.181L26.827 358.116c-5.831-1.882-10.366-5.812-12.772-11.066L1.857 320.406a1 1 0 0 1 1.819-.833c2.169 4.738 6.278 8.288 11.568 9.996l426.534 137.679c7.527 2.431 15.783.716 22.082-4.586 5.757-4.847 8.611-11.842 7.637-18.713L411.166 18.156a18.437 18.437 0 0 0-1.47-5.087l-.012-.025a1.002 1.002 0 0 1 .493-1.326.998.998 0 0 1 1.325.493l12.197 26.644a20.46 20.46 0 0 1 1.645 5.665l60.33 425.791c1.072 7.559-2.041 15.231-8.329 20.525-4.781 4.025-10.609 6.141-16.485 6.141zM7.302 327.495l8.572 18.722c2.169 4.738 6.278 8.288 11.568 9.996l426.534 137.679c7.526 2.43 15.783.716 22.082-4.586 5.757-4.847 8.611-11.843 7.637-18.714L423.365 44.8a18.473 18.473 0 0 0-1.482-5.112l-8.175-17.857 59.77 421.838c1.072 7.558-2.042 15.23-8.329 20.524-6.83 5.749-15.793 7.603-23.985 4.959L14.63 331.473c-2.763-.892-5.235-2.244-7.328-3.978z" fill="#111"/><path d="M472.486 443.808c2.274 16.023-14.958 29.576-31.016 24.392L14.936 330.522c-16.047-5.18-18.889-25.212-5.104-36.051L376.035 6.356c6.893-5.421 15.357-6.51 22.382-4.243 7.024 2.267 12.609 7.892 13.74 15.902l60.329 425.792z" fill="#fff"/><path d="M448.662 470.333c-2.518 0-5.043-.388-7.5-1.181L14.63 331.473c-7.606-2.455-12.953-8.425-14.303-15.969-1.457-8.141 1.865-16.298 8.887-21.82L375.417 5.57c6.734-5.295 15.444-6.945 23.308-4.408 7.913 2.555 13.305 8.803 14.422 16.714l60.33 425.792c1.072 7.558-2.041 15.23-8.328 20.524-4.781 4.025-10.61 6.142-16.486 6.142zM391.274 1.993c-5.164 0-10.325 1.771-14.62 5.149L10.45 295.256c-6.431 5.057-9.479 12.495-8.155 19.896 1.218 6.804 6.058 12.194 12.948 14.418l426.534 137.679c7.527 2.43 15.784.716 22.083-4.587 5.757-4.847 8.611-11.842 7.636-18.713s-60.33-425.793-60.33-425.793c-1.007-7.136-5.888-12.777-13.057-15.091a22.237 22.237 0 0 0-6.836-1.072z" fill="#111"/><path d="m372.08 124.481-73.498 160.776-38.094-12.296 65.737-163.281z" fill="#3658c1"/><path d="M298.582 286.257c-.102 0-.205-.016-.308-.048l-38.094-12.296a.998.998 0 0 1-.62-1.325l65.736-163.281a.998.998 0 0 1 1.235-.578l45.854 14.801a1 1 0 0 1 .601 1.367l-73.497 160.776a1 1 0 0 1-.909.584zm-36.766-13.918 36.226 11.693 72.66-158.944-43.897-14.17-64.988 161.421z" fill="#111"/><path d="m281.578 323.673-15.773 36.81-38.093-12.296 15.772-36.81z" fill="#3658c1"/><path d="M265.806 361.483c-.102 0-.205-.016-.308-.048l-38.094-12.296a1 1 0 0 1-.612-1.346l15.771-36.811a.998.998 0 0 1 1.227-.558l38.094 12.296a1 1 0 0 1 .612 1.346l-15.771 36.811a1 1 0 0 1-.919.606zm-36.742-13.911 36.182 11.679 14.98-34.964-36.182-11.679z" fill="#111"/></svg></g><g transform="translate(175.2 1417.2) rotate(-3.060127592052661 505.19999999999993 401.4) scale(1.2000570098341963 1.2001166032574166)"><svg width="841.96" height="668.935" viewBox="0 0 841.96 668.935"><g><path d="m825.039 394.184-593.2 265.374c-14.525 6.498-32.495.496-40.115-13.472L6.205 306.019c-3.704-6.79-4.263-14.219-2.18-20.802l-1.822 5.758c-2.084 6.583-1.525 14.012 2.18 20.802l185.519 340.068c7.62 13.968 25.59 19.97 40.115 13.473l593.2-265.374c7.437-3.327 12.537-9.289 14.722-16.191l1.822-5.757c-2.184 6.899-7.285 12.862-14.722 16.188z" fill="#111"/><path d="M217.646 668.924c-11.546 0-22.921-6.149-28.623-16.602L3.505 312.254c-3.708-6.797-4.509-14.462-2.255-21.582l1.822-5.758a1 1 0 1 1 1.906.604c-2.087 6.597-1.34 13.707 2.104 20.022l185.52 340.067c7.353 13.477 24.771 19.328 38.828 13.037l593.2-265.374c6.945-3.106 11.98-8.639 14.178-15.579a.999.999 0 1 1 1.906.604l-.011.035-1.812 5.723c-2.371 7.492-7.794 13.459-15.268 16.802l-593.2 265.374c-4.087 1.829-8.445 2.695-12.777 2.695zM2.078 296.76c-.401 4.931.677 9.944 3.183 14.537L190.78 651.365c7.354 13.478 24.772 19.326 38.829 13.037l593.2-265.374c5.143-2.3 9.237-5.93 11.909-10.476-2.538 2.709-5.666 4.932-9.271 6.544l-593.2 265.374c-14.986 6.702-33.56.468-41.4-13.906L5.327 306.497c-1.696-3.109-2.784-6.399-3.249-9.737z" fill="#111"/><path d="M611.967 3.61c14.525-6.498 32.475-.438 40.072 13.489l185.519 340.067c7.62 13.968 2.007 30.52-12.519 37.019l-593.2 265.374c-14.525 6.498-32.495.496-40.115-13.472L6.205 306.019c-7.598-13.927-1.964-30.537 12.561-37.035z" fill="#b0c3ff"/><path d="M219.471 663.166c-11.546 0-22.922-6.149-28.624-16.602L5.327 306.497c-3.802-6.969-4.547-14.804-2.099-22.062 2.459-7.288 7.832-13.101 15.13-16.365l593.2-265.374c14.964-6.694 33.518-.449 41.358 13.923l185.52 340.067c3.814 6.992 4.568 14.836 2.123 22.085-2.451 7.265-7.817 13.062-15.111 16.325L232.247 660.472c-4.089 1.829-8.445 2.694-12.776 2.694zM611.967 3.61l.408.913-593.2 265.374c-6.782 3.034-11.772 8.425-14.051 15.179-2.269 6.723-1.572 13.991 1.959 20.465l185.52 340.067c7.353 13.478 24.77 19.326 38.828 13.038l593.201-265.375c6.778-3.032 11.763-8.408 14.032-15.139 2.266-6.714 1.562-13.99-1.983-20.488L651.161 17.576C643.809 4.1 626.411-1.756 612.375 4.523z" fill="#111"/><path d="m278.963 447.372-96.71 43.264c-2.545 1.139-3.564 4.033-2.21 6.515l14.104 25.854c1.333 2.443 4.511 3.509 7.057 2.37l96.71-43.264c2.545-1.139 3.542-4.073 2.21-6.515l-14.104-25.854c-1.355-2.482-4.512-3.509-7.057-2.37" fill="#3658c1"/><path d="M199.038 526.831c-2.327 0-4.62-1.24-5.769-3.347l-14.104-25.854c-.783-1.435-.938-3.046-.435-4.537.506-1.501 1.612-2.698 3.114-3.37l96.71-43.264c3.019-1.348 6.763-.094 8.343 2.805l14.104 25.854c.778 1.426.928 3.038.421 4.538-.508 1.505-1.609 2.702-3.101 3.369l-96.71 43.264c-.823.367-1.7.542-2.573.542zm82.116-78.923a4.35 4.35 0 0 0-1.783.377l-96.71 43.264c-.987.441-1.71 1.217-2.036 2.183-.322.957-.218 2.001.296 2.94l14.104 25.855c1.072 1.967 3.715 2.853 5.771 1.935l96.71-43.264c.977-.437 1.694-1.212 2.022-2.183.325-.966.226-2.01-.282-2.941l-14.104-25.854c-.794-1.454-2.379-2.312-3.988-2.312zm-2.191-.536h.01z" fill="#111"/><path d="m422.003 383.382-96.71 43.264c-2.545 1.139-3.564 4.033-2.21 6.515l14.104 25.854c1.333 2.443 4.511 3.509 7.057 2.37l96.71-43.264c2.588-1.158 3.542-4.073 2.21-6.515l-14.104-25.854c-1.355-2.482-4.469-3.528-7.057-2.37" fill="#3658c1"/><path d="M342.078 462.841c-2.327 0-4.62-1.24-5.769-3.347l-14.104-25.854c-.783-1.435-.938-3.046-.435-4.537.506-1.501 1.611-2.698 3.113-3.37l96.711-43.264c3.071-1.371 6.735-.142 8.343 2.803l14.104 25.855c.783 1.436.937 3.05.433 4.545-.505 1.496-1.61 2.689-3.112 3.362l-96.71 43.264a6.3 6.3 0 0 1-2.574.543zm82.154-78.934c-.612 0-1.232.125-1.821.389L325.7 427.559c-.986.441-1.709 1.217-2.035 2.183-.322.957-.218 2.001.296 2.94l14.104 25.855c1.072 1.968 3.715 2.852 5.771 1.935l96.71-43.264c.986-.441 1.709-1.214 2.033-2.176.324-.961.22-2.008-.293-2.948l-14.104-25.854c-.804-1.472-2.351-2.323-3.95-2.323zm-2.229-.525h.01z" fill="#111"/><path d="m565.086 319.372-96.71 43.264c-2.545 1.139-3.564 4.033-2.21 6.515l14.104 25.854c1.333 2.443 4.511 3.509 7.057 2.37l96.71-43.264c2.548-1.14 3.542-4.073 2.21-6.515l-14.104-25.854c-1.355-2.482-4.51-3.509-7.057-2.37" fill="#3658c1"/><path d="M485.161 398.831c-2.327 0-4.62-1.24-5.77-3.346l-14.104-25.855c-.783-1.435-.938-3.046-.435-4.537.506-1.5 1.611-2.697 3.113-3.369l96.711-43.265c3.021-1.35 6.763-.092 8.343 2.805l14.104 25.854c.778 1.427.928 3.039.422 4.539-.508 1.505-1.609 2.7-3.102 3.368l-96.71 43.264a6.28 6.28 0 0 1-2.572.542zm82.115-78.922c-.604 0-1.212.12-1.782.376l-96.711 43.265c-.986.441-1.709 1.217-2.035 2.183-.322.956-.217 2 .296 2.939l14.104 25.855c1.073 1.966 3.716 2.853 5.771 1.935l96.71-43.264c.977-.437 1.695-1.212 2.022-2.182.326-.966.226-2.011-.282-2.942l-14.104-25.854c-.794-1.454-2.379-2.311-3.989-2.311zm-2.19-.537h.01z" fill="#111"/><path d="m708.128 255.381-96.71 43.264c-2.548 1.14-3.564 4.033-2.21 6.515l14.104 25.854c1.333 2.443 4.509 3.51 7.057 2.37l96.71-43.264c2.545-1.139 3.542-4.072 2.21-6.515l-14.104-25.854c-1.354-2.482-4.512-3.509-7.057-2.37" fill="#3658c1"/><path d="M628.203 334.84c-2.327 0-4.62-1.24-5.769-3.347l-14.104-25.854c-.783-1.435-.938-3.047-.436-4.538.506-1.5 1.612-2.696 3.114-3.369l96.711-43.264c3.021-1.35 6.764-.093 8.343 2.804l14.104 25.854c.778 1.426.928 3.038.421 4.538-.508 1.505-1.609 2.702-3.101 3.369l-96.71 43.264c-.823.368-1.7.543-2.573.543zm82.116-78.923a4.35 4.35 0 0 0-1.783.377l-96.711 43.264c-.986.441-1.71 1.217-2.035 2.183-.322.956-.218 2.001.296 2.94l14.104 25.855c1.072 1.967 3.714 2.852 5.771 1.935l96.71-43.264c.977-.437 1.694-1.212 2.022-2.183.325-.966.226-2.01-.282-2.941l-14.104-25.854c-.794-1.455-2.378-2.312-3.988-2.312zm-2.191-.536h.01z" fill="#111"/><path d="m239.091 389.131-24.781-45.424c-3.144-5.762-10.561-8.22-16.53-5.55l-73.128 32.715c-6.01 2.689-8.319 9.497-5.175 15.259l24.781 45.424c3.122 5.724 10.518 8.239 16.528 5.55l73.128-32.714c5.969-2.67 8.299-9.536 5.177-15.26z" fill="#fff"/><g fill="#111"><path d="M155.696 439.179c-4.968 0-9.862-2.646-12.316-7.145l-24.78-45.425c-1.652-3.028-1.979-6.425-.921-9.563 1.063-3.151 3.395-5.668 6.565-7.087l73.128-32.715c6.449-2.886 14.442-.201 17.816 5.984l24.78 45.424c1.642 3.009 1.96 6.402.896 9.556-1.068 3.166-3.393 5.687-6.544 7.097l-73.127 32.714a13.433 13.433 0 0 1-5.497 1.16zm47.2-101.102c-1.596 0-3.201.318-4.708.993l-73.128 32.715c-2.655 1.188-4.604 3.283-5.486 5.899-.879 2.604-.602 5.434.781 7.968l24.78 45.425c2.886 5.289 9.722 7.587 15.242 5.115l73.127-32.714c2.637-1.18 4.577-3.278 5.465-5.91.884-2.618.614-5.444-.757-7.959l-24.78-45.424c-2.097-3.845-6.285-6.108-10.536-6.108z"/><path d="M181.51 428.784a1 1 0 0 1-.879-.521L144.52 362.07a.999.999 0 1 1 1.755-.957l36.111 66.193a.999.999 0 0 1-.876 1.478zm31.596-14.134a1 1 0 0 1-.879-.521l-36.111-66.193a.999.999 0 1 1 1.755-.957l36.111 66.193a.999.999 0 0 1-.876 1.478z"/><path d="M137.884 420.869a1 1 0 0 1-.409-1.913l94.833-42.424a1 1 0 1 1 .816 1.826l-94.833 42.424a1.004 1.004 0 0 1-.407.087zm-12.031-22.051a1 1 0 0 1-.409-1.913l94.833-42.425a.999.999 0 1 1 .816 1.826l-94.833 42.425a1.014 1.014 0 0 1-.407.087z"/></g></g></svg></g><g transform="translate(498.0 574.8) rotate(7.973339202623523 982.2 816.6) scale(1.2009148080425347 1.2010510299608255)"><svg width="1635.753" height="1359.809" viewBox="0 0 1635.753 1359.809"><linearGradient id="a" gradientUnits="userSpaceOnUse" x1="985.695" x2="620.015" y1="1189.189" y2="218.358"><stop offset="0" stop-color="#111"/><stop offset=".49" stop-color="#3658c1"/><stop offset="1" stop-color="#b0c3ff"/></linearGradient><path d="M1584.6 967.922 433.682 1341.877c-40.651 13.208-86.537-9.918-102.523-51.669L20.225 478.157c-11.721-30.61-4.108-62.712 16.808-82.87L23.319 408.5C2.4 428.662-5.21 460.764 6.51 491.374l310.935 812.051c15.986 41.751 61.872 64.877 102.522 51.669l1150.916-373.955a71.958 71.958 0 0 0 27.837-16.617l13.714-13.217a71.944 71.944 0 0 1-27.834 16.617z" fill="url(#a)"/><path d="M396.485 1359.791c-33.9 0-66.9-21.867-79.975-56.009L5.577 491.731C-5.895 461.772.8 428.821 22.625 407.785l13.714-13.218a1 1 0 1 1 1.388 1.44C16.478 416.486 9.975 448.591 21.158 477.8l310.935 812.05c15.769 41.185 61.2 64.1 101.28 51.076l1150.915-373.955.309.951-.309-.951a70.645 70.645 0 0 0 27.452-16.386 1 1 0 1 1 1.388 1.44l-13.714 13.217a72.63 72.63 0 0 1-28.222 16.848L420.276 1356.045a76.854 76.854 0 0 1-23.791 3.746zM25.574 407.719l-1.562 1.506C2.763 429.7-3.74 461.808 7.444 491.017l310.934 812.05c15.77 41.185 61.2 64.1 101.28 51.076l1150.916-373.956a70.631 70.631 0 0 0 27.452-16.385l1.555-1.5a74.365 74.365 0 0 1-14.675 6.569L433.991 1342.828c-41.072 13.342-87.622-10.1-103.766-52.263L19.291 478.514c-9.296-24.278-6.665-50.52 6.283-70.795z" fill="#111"/><path d="M1215.786 4.715c40.65-13.208 86.536 9.917 102.522 51.669l310.934 812.051c15.987 41.751-3.995 86.279-44.645 99.487L433.682 1341.877c-40.651 13.208-86.537-9.918-102.523-51.669L20.225 478.157C4.238 436.405 24.22 391.878 64.87 378.67z" fill="#b0c3ff"/><path d="M410.2 1346.574c-33.894 0-66.9-21.867-79.975-56.009L19.291 478.514c-8.078-21.1-7.422-43.4 1.847-62.816a72.444 72.444 0 0 1 43.423-37.979L1215.477 3.764c41.072-13.343 87.621 10.1 103.765 52.262l310.934 812.052c8.078 21.1 7.422 43.4-1.847 62.815a72.44 72.44 0 0 1-43.423 37.98L433.991 1342.828a76.854 76.854 0 0 1-23.791 3.746zM1239.286 2.015a74.906 74.906 0 0 0-23.186 3.651L65.179 379.622a70.458 70.458 0 0 0-42.237 36.939c-9.029 18.911-9.663 40.659-1.784 61.238l310.935 812.052c12.771 33.354 45.007 54.724 78.088 54.727a74.859 74.859 0 0 0 23.192-3.652l1150.915-373.955a70.461 70.461 0 0 0 42.236-36.939c9.03-18.912 9.664-40.66 1.785-61.24L1317.374 56.741c-12.774-33.354-45.007-54.726-78.088-54.726z" fill="#111"/><path d="m1578.248 861.172-294.71-769.68c-11.884-31.035-46-48.229-76.216-38.411L104.385 411.447c-30.219 9.819-45.073 42.924-33.19 73.959l294.711 769.68c11.884 31.037 46.015 48.275 76.233 38.456l1102.937-358.366c30.224-9.818 45.056-42.967 33.172-74.004z" fill="#fff"/><g fill="#111"><path d="M424.7 1297.289c-25.308 0-49.959-16.339-59.726-41.845L70.261 485.763c-6.029-15.748-5.538-32.4 1.383-46.9a54.109 54.109 0 0 1 32.432-28.363L1207.013 52.13c30.661-9.964 65.408 7.535 77.459 39.005l294.709 769.68c6.037 15.764 5.544 32.439-1.387 46.953a54.075 54.075 0 0 1-32.409 28.359L442.448 1294.494a57.349 57.349 0 0 1-17.748 2.795zM1224.794 51.33a55.431 55.431 0 0 0-17.163 2.7L104.694 412.4a52.128 52.128 0 0 0-31.245 27.327c-6.683 14-7.152 30.092-1.32 45.323l294.71 769.681c11.685 30.515 45.324 47.5 74.991 37.862l1102.937-358.368a52.1 52.1 0 0 0 31.223-27.319c6.692-14.014 7.162-30.129 1.324-45.376L1282.6 91.85c-9.453-24.696-33.316-40.52-57.806-40.52zM193.549 867.866a9.21 9.21 0 0 0-5.563 12.311 10.475 10.475 0 0 0 12.734 6.423 9.242 9.242 0 0 0 5.5-12.343 10.42 10.42 0 0 0-12.672-6.386"/><path d="M197.812 888.053a11.7 11.7 0 0 1-10.76-7.519 10.605 10.605 0 0 1 .255-8.437 9.889 9.889 0 0 1 5.933-5.182 11.441 11.441 0 0 1 13.915 6.98 10.687 10.687 0 0 1-.261 8.5 9.8 9.8 0 0 1-5.865 5.146 10.408 10.408 0 0 1-3.217.512zm-3.954-19.236a7.907 7.907 0 0 0-4.746 4.141 8.624 8.624 0 0 0-.192 6.861 9.47 9.47 0 0 0 11.491 5.825 7.812 7.812 0 0 0 4.678-4.106 8.705 8.705 0 0 0 .2-6.929 9.421 9.421 0 0 0-11.429-5.792z"/></g></svg></g><g transform="translate(825.6 879.6) rotate(0.0 604.8 517.8) scale(1.1994276540658673 1.198981629739746)"><svg width="1008.481" height="863.733" viewBox="0 0 1008.481 863.733"><path d="M25.485 318.228C8.438 321.19-2.164 337.885 1.848 355.532l109.149 480.131c4.023 17.694 21.122 29.58 38.168 26.618l616.373-107.083c17.092-2.969 27.648-19.659 23.626-37.354l-108.62-477.802c-4.365-19.203-23.008-31.621-42.41-28.25z" fill="#b0c3ff"/><path d="M143.941 863.731c-15.638 0-30.216-11.562-33.918-27.847L.874 355.754c-2.06-9.062-.487-18.117 4.431-25.499 4.632-6.954 11.738-11.575 20.01-13.012l.171.985-.171-.985 612.65-106.437c19.943-3.463 39.07 9.281 43.556 29.014l108.621 477.802c2.069 9.101.499 18.18-4.421 25.565-4.624 6.942-11.73 11.557-20.008 12.995L149.34 863.265a31.625 31.625 0 0 1-5.396.465zm500.571-651.492c-2.048 0-4.121.175-6.205.537L25.657 319.213c-7.727 1.342-14.363 5.657-18.688 12.15-4.61 6.921-6.083 15.426-4.145 23.947l109.149 480.13c3.894 17.127 20.504 28.725 37.022 25.854l616.373-107.083c7.733-1.343 14.37-5.652 18.687-12.133 4.613-6.925 6.082-15.453 4.136-24.013L679.57 240.263c-3.781-16.631-18.545-28.023-35.058-28.023z" fill="#111"/><path d="M927.561 1.292 540.083 68.609c-10.941 1.901-17.736 12.644-15.15 24.019l54.143 238.166c2.994 13.168 15.778 21.684 29.083 19.373l383.565-66.637c10.985-1.908 17.78-12.652 15.205-23.979L952.111 18.414C949.525 7.04 938.547-.616 927.563 1.292" fill="#b0c3ff"/><path d="M603.783 351.545c-12.098 0-22.913-8.345-25.683-20.53L523.957 92.849c-1.353-5.951-.323-11.893 2.901-16.732 3.024-4.54 7.66-7.556 13.053-8.493L927.389.306c11.477-1.992 23 6.03 25.695 17.885l54.818 241.137c1.346 5.92.316 11.838-2.899 16.665-3.033 4.553-7.688 7.579-13.109 8.521L608.33 351.151a26.57 26.57 0 0 1-4.546.394zM927.561 1.292l.171.985-387.478 67.317c-4.848.842-9.014 3.552-11.731 7.631-2.917 4.378-3.846 9.77-2.616 15.18l54.143 238.166c2.877 12.657 15.146 20.829 27.936 18.609l383.564-66.637c4.875-.847 9.062-3.567 11.788-7.658 2.908-4.366 3.836-9.733 2.614-15.113L951.134 18.635C948.671 7.802 938.171.468 927.732 2.277l-.171-.985z" fill="#111"/><path d="M857.459 77.625 117.025 206.262c-16.433 2.855-26.599 18.989-22.732 36.002l112.409 494.47c3.867 17.012 20.307 28.477 36.741 25.622l740.435-128.637c16.433-2.855 26.653-18.952 22.785-35.964l-112.409-494.47c-3.867-17.012-20.361-28.515-36.795-25.66" fill="#fff"/><path d="M238.414 763.789c-15.07 0-29.12-11.141-32.687-26.834L93.318 242.485c-1.995-8.776-.474-17.542 4.283-24.683 4.459-6.695 11.297-11.144 19.252-12.526L857.288 76.639l.171.985-.171-.985c16.949-2.938 33.96 8.912 37.941 26.424l112.409 494.47c1.988 8.746.47 17.486-4.277 24.612-4.471 6.712-11.329 11.172-19.312 12.559L243.614 763.341a30.346 30.346 0 0 1-5.2.448zM862.508 78.19c-1.619 0-3.247.137-4.877.42L117.196 207.247c-7.41 1.287-13.778 5.43-17.931 11.664-4.45 6.68-5.869 14.895-3.997 23.13l112.409 494.47c3.36 14.779 16.569 25.277 30.725 25.278 1.616 0 3.242-.137 4.87-.419l740.435-128.637c7.438-1.292 13.827-5.446 17.99-11.697 4.439-6.664 5.857-14.854 3.991-23.06l-112.409-494.47c-3.365-14.802-16.594-25.316-30.771-25.316z" fill="#111"/><path d="M504.406 217.34c-54.526 9.473-88.466 63.135-75.634 119.583l11.949 52.562-2.413.419c-20.719 3.6-33.603 23.906-28.716 45.403l39.232 172.575c4.887 21.497 25.674 35.953 46.393 32.354l202.649-35.206c20.719-3.6 33.56-23.898 28.673-45.395L687.307 387.06c-4.887-21.497-25.63-35.961-46.349-32.361l-176.033 30.582-11.949-52.562c-9.69-42.625 15.963-83.123 57.137-90.277s82.546 21.701 92.236 64.326l2.207 9.706c1.577 6.935 8.308 11.629 14.96 10.473 6.699-1.164 10.819-7.743 9.243-14.678l-2.207-9.706c-12.832-56.447-67.622-94.695-122.145-85.222" fill="#3658c1"/><g fill="#111"><path d="M488.865 641.782c-18.908 0-36.539-13.984-41.017-33.679l-39.232-172.575c-2.498-10.987-.595-21.959 5.358-30.895 5.594-8.398 14.175-13.979 24.162-15.714l1.376-.239-11.716-51.535c-6.466-28.445-1.517-56.887 13.937-80.086 14.498-21.765 36.695-36.22 62.502-40.704 55.03-9.561 110.339 29.013 123.291 85.986l2.207 9.706c.852 3.747.202 7.49-1.829 10.539-1.903 2.857-4.822 4.756-8.217 5.346-7.189 1.249-14.414-3.792-16.107-11.237l-2.207-9.707c-9.573-42.111-50.438-70.621-91.089-63.562-19.023 3.305-35.382 13.957-46.065 29.995-11.394 17.104-15.04 38.084-10.268 59.075l11.739 51.636 175.097-30.42c21.194-3.68 42.506 11.176 47.496 33.125l39.232 172.575c2.501 11.001.601 21.98-5.351 30.916-5.583 8.382-14.152 13.953-24.125 15.686L495.391 641.22c-2.179.378-4.36.562-6.523.562zm32.277-424.883c-5.498 0-11.028.465-16.565 1.427-25.262 4.389-46.989 18.538-61.18 39.841-15.146 22.738-19.995 50.629-13.651 78.534l11.949 52.562a.999.999 0 0 1-.804 1.207l-2.413.419c-9.442 1.64-17.553 6.915-22.84 14.853-5.646 8.475-7.447 18.896-5.072 29.343l39.232 172.575c4.757 20.927 25.057 35.095 45.247 31.59l202.648-35.206c9.429-1.638 17.527-6.903 22.804-14.824 5.645-8.475 7.444-18.903 5.065-29.364L686.33 387.281c-4.757-20.926-25.03-35.102-45.203-31.598l-176.033 30.583a1 1 0 0 1-1.146-.764l-11.949-52.563c-4.895-21.531-1.146-43.062 10.554-60.627 10.99-16.498 27.819-27.457 47.387-30.856 41.688-7.245 83.577 21.957 93.382 65.089l2.207 9.707c1.461 6.423 7.655 10.779 13.814 9.709a10.33 10.33 0 0 0 6.895-4.484c1.724-2.588 2.272-5.78 1.543-8.987l-2.207-9.706c-11.416-50.215-56.315-85.885-104.434-85.885zm-16.736.441h.01z"/><path d="M557.408 452.733c-17.55 3.049-28.444 20.269-24.313 38.438 3.342 14.7 15.512 25.561 29.33 27.533l8.229 36.199c1.25 5.5 6.545 9.195 11.861 8.272 5.269-.915 8.592-6.107 7.342-11.608l-8.229-36.199c11.904-6.44 18.398-20.544 15.056-35.244-4.13-18.169-21.726-30.439-39.276-27.39"/><path d="M580.896 564.315c-5.174 0-9.995-3.814-11.217-9.189L561.6 519.59c-14.362-2.344-26.161-13.593-29.481-28.197-2.123-9.337-.501-18.668 4.564-26.273 4.761-7.147 12.06-11.896 20.553-13.371l.171.985-.171-.985c18.051-3.133 36.179 9.495 40.422 28.154 3.322 14.613-2.652 28.967-14.89 35.976l8.063 35.468c.683 3.004.157 6.013-1.481 8.472a9.99 9.99 0 0 1-6.665 4.343c-.598.104-1.197.154-1.791.154zm-18.1-111.045c-1.731 0-3.473.146-5.217.449-7.948 1.38-14.777 5.823-19.231 12.509-4.759 7.145-6.279 15.924-4.279 24.721 3.19 14.032 14.642 24.788 28.496 26.765a.999.999 0 0 1 .834.768l8.229 36.2c1.13 4.969 5.937 8.339 10.714 7.508a8.01 8.01 0 0 0 5.343-3.481c1.331-1.998 1.755-4.455 1.195-6.919l-8.229-36.199a.998.998 0 0 1 .499-1.101c11.888-6.432 17.738-20.153 14.557-34.144-3.599-15.831-17.749-27.076-32.912-27.076z"/></g></svg></g><g transform="translate(2695.2 1158.0) rotate(-18.659696761679864 -524.9999999999999 435.0) scale(-1.2952760665056409 1.2952673610490772)"><svg width="810.638" height="671.676" viewBox="0 0 810.638 671.676"><linearGradient id="b" gradientTransform="matrix(.99863865 -.05216166 .05216166 .99863865 -172.217 -50.032)" gradientUnits="userSpaceOnUse" x1="918.683" x2="748.451" y1="183.363" y2="539.294"><stop offset=".326" stop-color="#3658c1"/><stop offset=".769" stop-color="#b0c3ff"/><stop offset="1" stop-color="#3658c1"/></linearGradient><path d="M2.017 639.15c2.48-7.743 7.731-14.432 13.656-19.859a77.954 77.954 0 0 1 6.259-5.174l231.912-171.69c-1.144 8.841 24.627 43.659 33.282 44.96-2.058 1.476-232.032 171.871-233.967 173.163a79.16 79.16 0 0 1-8.349 5c-20.057 12.15-49.681 2.444-42.793-26.4z" fill="#3658c1"/><path d="M26.53 671.7a29.2 29.2 0 0 1-17.24-5.248c-8.139-5.939-11.067-15.717-8.245-27.534q.009-.036.021-.072c2.263-7.07 6.951-13.9 13.931-20.292a78.818 78.818 0 0 1 6.326-5.229l231.926-171.7a1 1 0 0 1 1.587.932c-1.064 8.217 24.4 42.635 32.439 43.843a1 1 0 0 1 .434 1.8c-.749.537-32.095 23.751-71.779 53.141-71.717 53.11-160.97 119.209-162.217 120.041a80.718 80.718 0 0 1-8.448 5.061A36.438 36.438 0 0 1 26.53 671.7zM2.982 639.419c-2.609 10.964.05 19.99 7.488 25.416 8.971 6.547 22.881 6.489 33.823-.138a79.376 79.376 0 0 0 8.3-4.97c1.456-.99 94.333-69.772 162.148-119.995 34.968-25.9 63.461-47 70.269-52.027-9.768-4.8-30.3-32.54-32.074-43.36L22.526 614.921a76.9 76.9 0 0 0-6.164 5.094C9.64 626.174 5.143 632.7 2.982 639.419z" fill="#111"/><ellipse cx="270.485" cy="464.907" fill="#fff" rx="4.85" ry="27.962" transform="matrix(.80372188 -.59500516 .59500516 .80372188 -223.533 252.195)"/><path d="M286.525 488.571a5.121 5.121 0 0 1-2.393-.777c-5.417-3.025-16.224-15.455-24.092-27.71-3.665-5.709-9.454-15.672-7.038-18.241.8-.855 2.095-.8 3.836.177 5.415 3.023 16.223 15.453 24.093 27.709 3.665 5.709 9.454 15.671 7.037 18.242a1.9 1.9 0 0 1-1.443.6zm-32.058-45.326a.315.315 0 0 0-.063 0c-.417.675.727 5.485 7.32 15.754 7.717 12.022 18.208 24.154 23.383 27.044 1.078.6 1.454.519 1.459.516.417-.675-.726-5.485-7.319-15.754-7.72-12.023-18.21-24.155-23.384-27.044a3.193 3.193 0 0 0-1.396-.516z" fill="#111"/><ellipse cx="412.824" cy="359.53" fill="#fff" rx="4.85" ry="27.962" transform="matrix(.80372188 -.59500516 .59500516 .80372188 -132.894 316.204)"/><path d="M428.863 383.194a5.121 5.121 0 0 1-2.392-.777c-5.417-3.024-16.225-15.455-24.092-27.709-3.666-5.709-9.455-15.671-7.038-18.242.8-.855 2.095-.8 3.836.177 5.417 3.025 16.223 15.455 24.092 27.71 3.666 5.709 9.455 15.671 7.038 18.241a1.9 1.9 0 0 1-1.444.6zm-32.057-45.326a.315.315 0 0 0-.063 0c-.417.675.726 5.486 7.32 15.754 7.717 12.022 18.208 24.154 23.382 27.044 1.079.6 1.454.518 1.459.516.417-.674-.725-5.485-7.319-15.754-7.718-12.022-18.208-24.154-23.383-27.044a3.2 3.2 0 0 0-1.396-.516z" fill="#111"/><path d="M253.406 443.97a1.694 1.694 0 0 1 .438-1.543L396.183 337.05c-3.586 6.5 27.038 47.1 33.282 44.96L287.126 487.387c-.464.344-1.294.211-2.507-.466-9.766-6.475-28.226-30.189-31.213-42.951z" fill="#fff"/><path d="M286.5 488.571a5.23 5.23 0 0 1-2.369-.777c-10.316-6.836-28.739-30.945-31.7-43.6a.94.94 0 0 1-.025-.159 2.585 2.585 0 0 1 .84-2.415l142.34-105.377a1 1 0 0 1 1.471 1.286c-1.657 3 7.222 18.286 18.268 31.453 8.665 10.327 12.823 12.418 13.815 12.078a1 1 0 0 1 .918 1.75L287.721 488.19a2 2 0 0 1-1.221.381zm-32.1-44.746c2.935 12.307 20.81 35.658 30.772 42.262 1.014.564 1.39.48 1.394.477l140.453-103.987c-3.749-1.683-9.019-7.294-13.224-12.306-6.383-7.608-17.983-23.617-18.834-31.072L254.439 443.23a2.148 2.148 0 0 0-.039.595z" fill="#111"/><path d="m494.321 398.164 24.727 11.265c-27.28-12.428-51.373-32.8-69.093-60.607-52.6-82.558-29.143-199.474 52.438-261.1 54.126-40.886 120.2-47.179 173.908-22.71l-24.726-11.261c-53.712-24.47-119.782-18.176-173.908 22.709-81.581 61.624-105.04 178.539-52.438 261.1 17.719 27.811 41.812 48.179 69.092 60.607" fill="#fff"/><path d="M519.047 410.429a1 1 0 0 1-.414-.09l-24.727-11.265a162.435 162.435 0 0 1-69.521-60.98c-52.805-82.877-29.173-200.6 52.68-262.432 26.26-19.837 56.549-32.306 87.59-36.058a163.272 163.272 0 0 1 87.334 13.237l24.727 11.264a1 1 0 0 1-.83 1.821 161.235 161.235 0 0 0-86.264-13.071C558.931 56.564 528.976 68.9 503 88.522c-81.039 61.216-104.454 177.744-52.2 259.763a160.444 160.444 0 0 0 68.664 60.234 1 1 0 0 1-.416 1.91zm65.745-370.04a165.743 165.743 0 0 0-19.9 1.2C534.2 45.3 504.25 57.633 478.27 77.258 397.23 138.473 373.814 255 426.072 337.02a160.431 160.431 0 0 0 68.664 60.234l1.961.894a164.574 164.574 0 0 1-47.586-48.789c-52.8-82.877-29.172-200.6 52.679-262.432 26.262-19.838 56.551-32.306 87.592-36.058a164.91 164.91 0 0 1 63.634 4.638l-1.857-.846a159.982 159.982 0 0 0-66.367-14.272z" fill="#111"/><path d="m494.321 398.164 24.727 11.265c-27.28-12.428-51.373-32.8-69.093-60.607-52.6-82.558-29.143-199.474 52.438-261.1 54.126-40.886 120.2-47.179 173.908-22.71l-24.726-11.261c-53.712-24.47-119.782-18.176-173.908 22.709-81.581 61.624-105.04 178.539-52.438 261.1 17.719 27.811 41.812 48.179 69.092 60.607" fill="#fff"/><path d="M519.047 410.429a1 1 0 0 1-.414-.09l-24.727-11.265a162.435 162.435 0 0 1-69.521-60.98c-52.805-82.877-29.173-200.6 52.68-262.432 26.26-19.837 56.549-32.306 87.59-36.058a163.272 163.272 0 0 1 87.334 13.237l24.727 11.264a1 1 0 0 1-.83 1.821 161.235 161.235 0 0 0-86.264-13.071C558.931 56.564 528.976 68.9 503 88.522c-81.039 61.216-104.454 177.744-52.2 259.763a160.444 160.444 0 0 0 68.664 60.234 1 1 0 0 1-.416 1.91zm65.745-370.04a165.743 165.743 0 0 0-19.9 1.2C534.2 45.3 504.25 57.633 478.27 77.258 397.23 138.473 373.814 255 426.072 337.02a160.431 160.431 0 0 0 68.664 60.234l1.961.894a164.574 164.574 0 0 1-47.586-48.789c-52.8-82.877-29.172-200.6 52.679-262.432 26.262-19.838 56.551-32.306 87.592-36.058a164.91 164.91 0 0 1 63.634 4.638l-1.857-.846a159.982 159.982 0 0 0-66.367-14.272z" fill="#111"/><path d="M477.667 76.46c-81.581 61.624-105.04 178.54-52.438 261.1s161.365 99.527 242.945 37.9C749.8 313.8 773.292 196.932 720.69 114.375S559.294 14.8 477.667 76.46z" fill="#fff"/><path d="M561.4 413.571a166.167 166.167 0 0 1-29.493-2.64c-44.525-8.023-82.712-33.89-107.526-72.836-52.805-82.877-29.173-200.6 52.68-262.433l.6.8-.6-.8c40.909-30.9 89.529-43.222 136.9-34.683 44.543 8.026 82.744 33.9 107.565 72.858 52.788 82.851 29.122 200.572-52.756 262.421-32.424 24.498-69.705 37.313-107.37 37.313zM478.27 77.258C397.231 138.473 373.815 255 426.072 337.021c24.511 38.469 62.224 64.019 106.194 71.942 46.805 8.433 94.858-3.747 135.306-34.3 81.065-61.235 104.515-177.758 52.274-259.75-24.518-38.482-62.246-64.039-106.233-71.966-46.818-8.438-94.883 3.753-135.343 34.311z" fill="#111"/><path d="m478.132 433.575 24.727 11.264c64.758 29.5 144.419 21.909 209.639-27.357 98.395-74.324 126.724-215.277 63.312-314.8-21.371-33.542-50.429-58.108-83.331-73.1l-24.727-11.263c32.9 14.989 61.96 39.554 83.332 73.1 63.412 99.524 35.082 240.477-63.312 314.8-65.221 49.265-144.881 56.858-209.64 27.357" fill="url(#b)"/><path d="M583.377 463.155a195.112 195.112 0 0 1-80.934-17.4l-24.725-11.265a1 1 0 1 1 .829-1.82 194.656 194.656 0 0 0 104.111 15.776c37.035-4.474 73.174-19.35 104.511-43.021 97.825-73.9 126.119-214.516 63.071-313.467-20.53-32.222-49.2-57.37-82.9-72.724a1 1 0 0 1 .829-1.821l24.727 11.265c34.057 15.515 63.021 40.921 83.76 73.47 30.81 48.356 41.165 107.872 29.159 167.585S760.882 382.187 713.1 418.28c-31.618 23.884-68.091 38.9-105.476 43.411a202.111 202.111 0 0 1-24.247 1.464zM503.654 444.1a194.707 194.707 0 0 0 103.731 15.6c37.035-4.475 73.174-19.351 104.511-43.022 97.825-73.894 126.119-214.515 63.071-313.466-20.475-32.135-49.045-57.235-82.632-72.6a197.994 197.994 0 0 1 59.593 60.261c30.809 48.356 41.165 107.872 29.158 167.586s-44.931 112.459-92.712 148.552c-31.618 23.889-68.091 38.9-105.474 43.416a198.482 198.482 0 0 1-79.246-6.327z" fill="#111"/><path d="M751.084 91.416c63.412 99.524 35.082 240.477-63.312 314.8-98.346 74.287-229.524 53.822-292.936-45.7-63.442-99.573-35.113-240.526 63.233-314.816 98.395-74.322 229.573-53.856 293.015 45.716zm-82.91 284.044C749.8 313.8 773.292 196.932 720.69 114.374S559.294 14.8 477.667 76.46c-81.581 61.624-105.04 178.539-52.438 261.1s161.365 99.527 242.945 37.9" fill="#b0c3ff"/><path d="M558.673 451.918a198.027 198.027 0 0 1-35.164-3.147c-53.637-9.666-99.634-40.818-129.517-87.718-30.821-48.374-41.188-107.9-29.19-167.623C376.8 133.73 409.7 80.982 457.467 44.9a221.544 221.544 0 0 1 81.055-38.97 200.659 200.659 0 0 1 83.857-2.811c53.644 9.667 99.651 40.832 129.549 87.755 30.809 48.356 41.165 107.872 29.158 167.586s-44.931 112.459-92.712 148.552a221.416 221.416 0 0 1-81.025 38.949 204.2 204.2 0 0 1-48.676 5.957zM587.219 1.977A202.213 202.213 0 0 0 539 7.876 219.555 219.555 0 0 0 458.672 46.5c-97.8 73.875-126.057 214.5-62.992 313.478 29.579 46.424 75.1 77.259 128.184 86.825a198.668 198.668 0 0 0 83.009-2.78 219.431 219.431 0 0 0 80.3-38.6c97.825-73.9 126.119-214.515 63.071-313.467-29.597-46.45-75.132-77.298-128.22-86.865a196.055 196.055 0 0 0-34.805-3.114zM561.4 413.571a166.167 166.167 0 0 1-29.493-2.64c-44.525-8.023-82.712-33.89-107.526-72.836-52.805-82.878-29.173-200.6 52.68-262.433 40.909-30.9 89.529-43.22 136.9-34.683 44.543 8.026 82.743 33.9 107.565 72.858 52.788 82.851 29.122 200.572-52.756 262.421-32.424 24.498-69.705 37.313-107.37 37.313zm23.07-373.232c-37.242 0-74.114 12.678-106.2 36.919C397.23 138.473 373.814 255 426.072 337.02c24.511 38.469 62.225 64.02 106.194 71.943 46.805 8.433 94.858-3.747 135.306-34.3l.6.8-.6-.8c81.065-61.235 104.515-177.758 52.274-259.75-24.518-38.482-62.246-64.039-106.233-71.966a164.227 164.227 0 0 0-29.139-2.608z" fill="#111"/></svg></g><g transform="translate(1765.2 1335.6) rotate(0.0 183.60000000000002 214.20000000000005) scale(1.199898047878285 1.1991434689507496)"><svg width="306.026" height="357.255" viewBox="0 0 306.026 357.255"><path d="M221.029 146.544c16.036 69.08-8.863 135.367-57.32 149.586-50.732 14.887-108.805-32.197-127.802-106.944-19.323-76.03 10.353-146.252 64.181-155.253 51.344-8.586 104.653 42.441 120.941 112.611z" fill="#3658c1"/><path d="M144.455 299.891c-13.594 0-27.526-3.923-41.108-11.668-31.71-18.083-57.283-55.013-68.408-98.791-11.416-44.917-6.152-90.246 14.08-121.255 12.802-19.62 30.404-31.802 50.904-35.23 25.007-4.183 51.452 5.418 74.465 27.029 22.737 21.352 39.646 52.015 47.614 86.341 16.3 70.216-9.182 136.443-58.012 150.772a69.143 69.143 0 0 1-19.535 2.802zM111.494 33.99a68.07 68.07 0 0 0-11.241.93c-19.935 3.333-37.071 15.211-49.56 34.351-19.933 30.549-25.098 75.285-13.817 119.67 10.995 43.261 36.214 79.727 67.461 97.545 19.714 11.241 40.147 14.244 59.091 8.685 23.065-6.769 41.601-25.81 52.191-53.617 10.593-27.813 12.168-61.474 4.436-94.784-7.88-33.945-24.584-64.251-47.035-85.335-19.107-17.944-40.583-27.444-61.525-27.444z" fill="#111"/><path d="M184.493 207.847c-5.555-16.751-31.793-29.979-50.824-27.707-20.133 2.403-39.835 20.469-38.035 37.019l3.297 31.622c16.944 24.554 40.365 41.1 56.17 39.446 15.804-1.653 31.828-22.325 38.533-49.353l-9.14-31.027" fill="#fff"/><path d="M152.84 289.342c-16.099 0-38.185-16.013-54.733-39.994a.995.995 0 0 1-.171-.464l-3.296-31.622c-1.813-16.673 17.46-35.555 38.911-38.116 20.225-2.411 46.426 11.91 51.891 28.386a.393.393 0 0 1 .01.032l9.141 31.027c.051.17.055.351.012.523-6.896 27.797-23.098 48.402-39.399 50.107-.771.081-1.563.121-2.364.121zm-52.942-40.92c16.697 24.097 39.856 40.403 55.098 38.81 15.186-1.588 30.972-21.897 37.602-48.336l-9.059-30.75c-5.219-15.702-30.304-29.33-49.751-27.013-20.08 2.396-38.833 20.523-37.159 35.918l3.27 31.372z" fill="#111"/><path d="M197.518 143.376c-1.28-11.257-4.428-22.265-8.862-33.101-15.22-33.41-54.007-46.172-77.555-43.708-23.582 2.467-55.874 22.705-57.408 57.946-.059 14.703 2.879 29.518 7.174 43.77 1.119.149 2.244.019 3.219-.54 6.25 16.939 16.201 36.318 31.549 49.416 24.13 22.574 71.98 20.448 88.859-9.312 9.616-15.702 11.627-36.315 11.038-53.827a5.314 5.314 0 0 0 3.32-.142 208.666 208.666 0 0 0-1.333-10.502z" fill="#fff"/><path d="M137.053 233.373c-16.013 0-31.505-5.57-42.103-15.484-12.799-10.922-23.384-27.353-31.438-48.816-.847.262-1.787.332-2.778.2a.999.999 0 0 1-.825-.703c-4.91-16.289-7.271-30.702-7.218-44.063 1.594-36.624 35.054-56.504 58.304-58.937 23.154-2.419 62.821 9.719 78.57 44.289 4.797 11.723 7.718 22.631 8.943 33.383.522 3.413.973 6.957 1.337 10.533.046.453-.22.88-.646 1.039a6.46 6.46 0 0 1-2.633.392c.592 22.152-3.182 40.033-11.222 53.163-7.266 12.813-21.108 21.652-37.961 24.223a68.614 68.614 0 0 1-10.331.781zm-72.968-66.63a1.007 1.007 0 0 1 .939.654c7.978 21.622 18.495 38.108 31.26 49.001 12.466 11.662 31.914 17.099 50.799 14.217 16.242-2.478 29.562-10.957 36.54-23.262 7.996-13.059 11.66-30.982 10.909-53.3a1 1 0 0 1 1.276-.994c.628.18 1.305.208 1.962.085a209.54 209.54 0 0 0-1.239-9.617l-.005-.038c-1.204-10.573-4.08-21.313-8.795-32.835-15.322-33.631-53.979-45.447-76.525-43.093-22.539 2.357-54.973 21.599-56.513 56.995-.052 12.942 2.217 26.955 6.937 42.784.737.01 1.398-.143 1.96-.464a.997.997 0 0 1 .497-.132z" fill="#111"/><path d="M119.112 106.931c-22.979 2.404-53.335 9.902-65.42 17.581a61.482 61.482 0 0 0 .063 6.468c.532 8.642 2.059 17.744 4.315 26.983l7.249 1.08-.006-.073c7.97 6.547 18.943 9.911 31.008 8.649 18.26-1.91 21.991-15.01 31.657-16.021s18.341 10.791 36.6 8.881c12.057-1.261 21.275-6.738 26.383-14.653l.014.073 6.541-2.524c-1.429-9.326-3.503-18.37-6.353-26.769a68.199 68.199 0 0 0-2.509-6.332c-14.821-4.754-46.838-5.719-69.543-3.344" fill="#3658c1"/><path d="M91.31 168.883c-9.9 0-19.085-3.075-26.306-8.875l-7.082-1.055a1 1 0 0 1-.824-.752c-2.368-9.698-3.828-18.836-4.341-27.159a62.767 62.767 0 0 1-.064-6.573.999.999 0 0 1 .463-.801c12.618-8.017 44.007-15.446 65.853-17.731 21.543-2.255 54.411-1.6 69.952 3.386a.999.999 0 0 1 .604.538 69.541 69.541 0 0 1 2.547 6.425c2.743 8.083 4.895 17.147 6.395 26.939a1 1 0 0 1-.628 1.084l-6.325 2.44c-5.516 8.264-15.038 13.487-26.869 14.725-10.849 1.137-18.506-2.495-24.658-5.413-4.374-2.075-8.158-3.865-11.942-3.468-3.764.394-6.672 2.871-10.04 5.738-4.785 4.075-10.74 9.145-21.617 10.283-1.722.18-3.43.269-5.116.269zm-25.948-10.891c.21 0 .416.065.586.205 8.073 6.632 18.826 9.623 30.27 8.427 10.262-1.073 15.717-5.718 20.529-9.816 3.621-3.084 6.749-5.747 11.128-6.205 4.354-.455 8.362 1.448 13.008 3.65 6.234 2.956 13.3 6.311 23.593 5.231 11.398-1.192 20.507-6.235 25.647-14.201.188-.293.533-.457.856-.458l5.427-2.094c-1.476-9.373-3.557-18.05-6.188-25.804a67.013 67.013 0 0 0-2.29-5.834c-15.461-4.785-47.565-5.381-68.71-3.168l-.104-.995.104.995c-21.368 2.235-51.892 9.398-64.547 17.154a61.279 61.279 0 0 0 .083 5.839c.494 8.019 1.883 16.814 4.13 26.155l6.286.937a1.04 1.04 0 0 1 .192-.018z" fill="#111"/><path d="M75.791 127.829c-3.474.363-6.301 1.939-8.438 4.32-.702 6.777 6.627 17.003 17.868 19.225 2.369.468 4.722.544 6.968.309 8.411-.88 15.313-6.123 15.86-11.471-4.355-.12-10.718-4.283-18.941-8.89-5.144-2.884-9.6-3.882-13.316-3.493" fill="#fff"/><path d="M89.718 152.812c-1.579 0-3.148-.153-4.691-.458-11.463-2.266-19.447-12.778-18.669-20.309a.996.996 0 0 1 .251-.565c2.396-2.669 5.534-4.276 9.077-4.646 4.161-.437 8.85.779 13.91 3.615 1.458.817 2.858 1.621 4.199 2.39 6.116 3.51 10.947 6.282 14.279 6.374a1.002 1.002 0 0 1 .968 1.101c-.614 6.014-7.972 11.445-16.75 12.363a24.72 24.72 0 0 1-2.575.135zm-21.397-20.239c-.408 6.541 6.978 15.819 17.095 17.819 2.181.431 4.428.531 6.669.295 7.229-.756 13.562-4.943 14.787-9.583-3.673-.565-8.327-3.235-14.07-6.531-1.336-.766-2.729-1.566-4.183-2.38-4.69-2.629-8.976-3.764-12.724-3.371-2.977.311-5.523 1.572-7.574 3.75z" fill="#111"/><path d="M168.795 118.1c-3.718.389-7.605 2.26-11.413 6.08-6.097 6.106-10.591 11.404-14.722 12.412 2.611 5.017 11.273 8.632 19.684 7.752 2.246-.235 4.474-.79 6.564-1.725 9.91-4.435 12.964-15.747 9.664-22.105-2.976-1.846-6.303-2.778-9.778-2.414" fill="#fff"/><g fill="#111"><path d="M159.752 145.477c-7.813 0-15.385-3.441-17.979-8.425a1 1 0 0 1 .65-1.434c3.126-.763 6.676-4.403 11.17-9.012a358.356 358.356 0 0 1 3.081-3.135c3.775-3.786 7.818-5.929 12.017-6.368 3.519-.368 7.117.517 10.41 2.559.152.095.277.229.36.389 1.711 3.297 1.843 7.813.354 12.082-1.786 5.119-5.515 9.167-10.497 11.396-2.107.942-4.418 1.55-6.869 1.807a25.88 25.88 0 0 1-2.696.139zm-15.578-8.339c3.072 4.233 10.824 6.967 18.066 6.21 2.24-.234 4.347-.787 6.261-1.643 4.475-2.002 7.822-5.635 9.425-10.229 1.274-3.651 1.226-7.461-.118-10.259-2.881-1.726-5.875-2.44-8.908-2.124-3.729.39-7.366 2.338-10.809 5.791a354.82 354.82 0 0 0-3.065 3.118c-4.174 4.281-7.571 7.766-10.851 9.135zm24.621-19.039h.01z"/><path d="M248.519 251.222c11.552-15.4 18.206-31.237 15.604-44.012C238.284 80.353 172.201-6.263 98.18 1.48 24.158 9.224-5.558 105.861 18.993 232.853c2.482 12.839 15.113 26.724 32.289 39.167C42.194 266.936 8.903 289.337 1 295.51c86.51 86.883 241.791 84.538 304.026-32.877-9.558-4.157-45.893-9.324-56.507-11.411zM53.755 130.981a61.756 61.756 0 0 1-.063-6.468c1.534-35.241 33.825-55.479 57.408-57.946 23.548-2.463 62.335 10.299 77.555 43.708a67.921 67.921 0 0 1 2.509 6.332c2.85 8.399 4.924 17.443 6.353 26.769.531 3.468.974 6.975 1.333 10.502 3.062 30.053.122 61.549-4.698 82.813-.166.732-.339 1.46-.519 2.183-6.705 27.028-22.729 47.7-38.533 49.353-15.805 1.653-39.225-14.892-56.17-39.446-.453-.657-.903-1.32-1.346-1.988-12.899-19.417-27.971-49.043-36.718-78.51a218.911 218.911 0 0 1-2.796-10.318c-2.256-9.239-3.783-18.341-4.315-26.983z"/><path d="M147.18 357.248c-21.653 0-43.581-3.521-64.637-10.459-31.059-10.235-59.5-27.723-82.252-50.573a1.002 1.002 0 0 1 .094-1.494c5.36-4.188 33.511-23.791 46.938-24.398-12.532-9.556-26.568-23.091-29.311-37.281C1.511 147.69 9.328 75.421 39.459 34.765 54.465 14.518 74.187 2.985 98.075.486c36.283-3.795 71.521 14.452 101.928 52.763 29.729 37.458 52.24 90.627 65.1 153.762 3.036 14.906-6.155 31.665-14.831 43.526 2.753.506 6.607 1.149 10.955 1.875 15.618 2.607 37.008 6.177 44.198 9.305a1 1 0 0 1 .485 1.385c-26.966 50.874-73.164 83.562-130.083 92.044a194.534 194.534 0 0 1-28.647 2.102zM2.513 295.607c45.052 44.724 111.236 66.766 173.02 57.561 55.908-8.331 101.354-40.286 128.087-90.022-7.895-2.948-28.728-6.426-42.723-8.762-5.26-.878-9.802-1.636-12.571-2.18a1 1 0 0 1-.606-1.581c12.286-16.377 17.764-31.724 15.425-43.212-12.797-62.828-35.173-115.706-64.707-152.918-29.961-37.75-64.603-55.738-100.154-52.018-23.31 2.438-42.561 13.703-57.219 33.481C11.268 76.163 3.58 147.859 19.975 232.663c2.238 11.578 13.565 25.268 31.895 38.548a1 1 0 0 1-1.075 1.682c-7.654-4.283-36.772 13.954-48.281 22.714zm150.326-6.264c-16.098 0-38.185-16.014-54.732-39.994-.457-.663-.909-1.33-1.355-2.003-11.762-17.704-27.617-47.697-36.844-78.778a222.135 222.135 0 0 1-2.809-10.366c-2.368-9.695-3.829-18.833-4.342-27.158a62.527 62.527 0 0 1-.063-6.574c1.592-36.584 35.052-56.465 58.302-58.897 23.154-2.419 62.821 9.719 78.57 44.289a69.715 69.715 0 0 1 2.546 6.425c2.743 8.083 4.895 17.147 6.395 26.939a212.6 212.6 0 0 1 1.34 10.552c3.229 31.702-.32 63.731-4.719 83.136-.168.739-.343 1.473-.523 2.203-6.896 27.796-23.098 48.401-39.399 50.106-.772.081-1.562.121-2.365.121zM117.008 67.272c-2.028 0-3.968.098-5.804.29-22.539 2.357-54.973 21.599-56.513 56.995-.091 2.089-.07 4.23.062 6.364.506 8.207 1.948 17.226 4.289 26.807.81 3.32 1.746 6.776 2.783 10.271 9.163 30.869 24.91 60.657 36.592 78.241.44.664.887 1.322 1.336 1.974 16.708 24.21 39.95 40.627 55.242 39.02 15.235-1.594 31.076-22.033 37.667-48.599.179-.717.35-1.438.514-2.164 4.364-19.25 7.885-51.029 4.68-82.49-.361-3.55-.808-7.067-1.326-10.453-1.482-9.677-3.606-18.626-6.313-26.599a67.043 67.043 0 0 0-2.472-6.239c-14.089-30.925-47.854-43.418-70.737-43.418z"/></g></svg></g><g transform="translate(373.2 706.8) rotate(0.0 223.20000000000002 210.60000000000002) scale(1.199538886933249 1.199501062236221)"><svg width="372.143" height="351.146" viewBox="0 0 372.143 351.146"><linearGradient id="c" gradientTransform="matrix(.95456336 -.29800803 .29800803 .95456336 -529.619 -1877.582)" gradientUnits="userSpaceOnUse" x1="-100.354" x2="157.632" y1="2166.743" y2="2371.511"><stop offset="0" stop-color="#b0c3ff"/><stop offset="1" stop-color="#3658c1"/></linearGradient><path d="m154.389 56.667 6.654 22.04 5.165 17.121 9.64-24.529-5.165-17.121-6.654-22.041z" fill="#3658c1"/><path d="M166.208 96.828h-.041a.998.998 0 0 1-.916-.71l-11.819-39.161a1.001 1.001 0 0 1 .026-.655l9.641-24.529c.155-.396.559-.636.972-.633a.999.999 0 0 1 .916.71l11.819 39.161c.065.215.056.446-.026.655l-9.641 24.529a.999.999 0 0 1-.931.634zM155.446 56.71l10.886 36.068 8.459-21.522-10.886-36.069z" fill="#111"/><path d="m219.236 91.048-9.64 24.529-43.388-19.749 9.64-24.529z" fill="#3658c1"/><path d="M209.596 116.577a.993.993 0 0 1-.414-.09l-43.389-19.749a1 1 0 0 1-.517-1.276l9.641-24.529a1.002 1.002 0 0 1 1.345-.544l43.388 19.749a1 1 0 0 1 .517 1.276l-9.64 24.529a1.002 1.002 0 0 1-.931.634zm-42.111-21.266 41.566 18.919 8.907-22.666-41.565-18.919z" fill="#111"/><path d="m225.9 158.767-9.64 24.53-6.664-67.72 9.64-24.529z" fill="#3658c1"/><path d="M216.261 184.297a.998.998 0 0 1-.996-.902l-6.664-67.72a1.006 1.006 0 0 1 .064-.464l9.64-24.529a.998.998 0 0 1 1.925.267l6.664 67.72c.016.158-.007.316-.064.464l-9.64 24.529a.998.998 0 0 1-.93.634zm-5.646-68.578 6.234 63.347 8.032-20.439-6.234-63.347z" fill="#111"/><path d="m34.323 176.614-9.64 24.529c15.348-39.053 18.313-94.152 10.408-142.452l9.64-24.529c7.906 48.3 4.94 103.399-10.408 142.452" fill="#b0c3ff"/><path d="M24.683 202.144a.998.998 0 0 1-.93-1.366c14.623-37.21 18.59-91.593 10.352-141.925a1.007 1.007 0 0 1 .057-.527l9.64-24.529a1 1 0 0 1 1.918.205c8.293 50.668 4.283 105.455-10.465 142.979l-9.64 24.529s0-.002 0 0a1 1 0 0 1-.931.635zM36.122 58.801c6.544 40.205 5.347 82.976-2.808 117.644l.077-.197c14.272-36.316 18.394-88.992 10.924-138.296z" fill="#111"/><path d="M69.287 56.024c21.901 2.648 45.25 3.329 67.65 1.958L154.724 95.4l49.571 5.085 21.607 58.283-6.664-67.72-43.388-19.749-5.165-17.12c28.002-4.769 51.955-13.39 65.869-26.114 106.504 94.819 123.704 237.672 96.369 262.668-27.329 24.99-185.872 11.383-292.376-83.435 29.559-27.029 38.001-94.689 28.742-151.273z" fill="#b0c3ff"/><path d="M283.094 302.637c-19.62 0-42.849-2.544-66.881-7.716-38.787-8.348-113.271-30.734-176.334-86.877a1.003 1.003 0 0 1-.01-1.485c30.288-27.695 37.229-96.611 28.43-150.374a1 1 0 0 1 1.108-1.155c21.848 2.642 45.178 3.315 67.468 1.952.396-.029.788.2.965.569l17.546 36.91 49.01 5.027a1 1 0 0 1 .836.647l18.916 51.024-5.85-59.442-42.863-19.51a.997.997 0 0 1-.543-.621l-5.165-17.12a1 1 0 0 1 .789-1.274c29.808-5.077 52.409-14.021 65.362-25.866a1 1 0 0 1 1.34-.009c34.973 31.136 63.681 70.742 83.02 114.536 15.81 35.802 24.995 74.082 25.201 105.024.144 21.641-4.063 37.477-11.843 44.592-8.086 7.394-26.617 11.167-50.501 11.167zM42.031 207.278c62.545 55.307 136.177 77.417 174.603 85.687 59.714 12.852 103.36 8.233 115.612-2.971 7.251-6.63 11.33-22.341 11.192-43.103-.406-61.065-33.624-151.889-106.883-217.484-13.167 11.654-35.455 20.477-64.588 25.564l4.707 15.604 42.976 19.562a1 1 0 0 1 .581.812l6.664 67.72a1 1 0 0 1-1.933.446l-21.391-57.7-48.95-5.021a1.003 1.003 0 0 1-.802-.565L136.322 59.02c-21.76 1.29-44.475.653-65.838-1.847 8.48 53.617 1.426 121.689-28.454 150.105z" fill="#111"/><path d="m365.402 300.126-9.64 24.529c-2.107 5.362-4.765 9.579-7.925 12.468C315.418 366.768 127.344 350.629 1 238.147l9.64-24.529C136.984 326.1 325.058 342.239 357.477 312.594c3.16-2.889 5.818-7.106 7.925-12.468" fill="url(#c)"/><path d="M288.758 351.064c-23.262 0-50.817-3.019-79.328-9.154C163.436 332.012 75.113 305.467.334 238.894a1.001 1.001 0 0 1-.266-1.113l9.641-24.529a1 1 0 0 1 1.595-.381C85.739 279.14 173.689 305.57 219.49 315.426c70.896 15.257 122.74 9.753 137.312-3.569 3.013-2.755 5.587-6.812 7.653-12.057l.016-.039a1 1 0 1 1 1.835.797l-9.614 24.463c-2.181 5.551-4.933 9.871-8.181 12.84-9.562 8.744-31.485 13.204-59.753 13.204zM2.185 237.863c74.325 65.93 161.971 92.258 207.665 102.092 70.899 15.257 122.743 9.753 137.312-3.57 3.021-2.762 5.601-6.832 7.669-12.096l4.958-12.615a23.342 23.342 0 0 1-1.637 1.658c-17.43 15.938-75.926 17.641-139.082 4.049-45.774-9.851-133.474-36.188-208.022-102.065l-8.862 22.548z" fill="#111"/><path d="M44.731 34.162c26.525 3.203 54.853 3.977 81.932 2.218l10.274 21.601c-22.4 1.371-45.749.69-67.65-1.958 9.26 56.584.817 124.244-28.742 151.273 106.504 94.819 265.046 108.426 292.376 83.435 27.336-24.996 10.136-167.849-96.369-262.668-13.914 12.723-37.868 21.345-65.869 26.114l-6.654-22.041c33.648-5.626 62.46-15.895 79.128-31.137 126.344 112.482 146.745 281.943 114.32 311.594-32.419 29.645-220.493 13.506-346.837-98.976 35.067-32.066 45.079-112.328 34.091-179.456z" fill="#fff"/><path d="M298.399 326.535c-23.262 0-50.818-3.019-79.329-9.155-45.993-9.898-134.317-36.443-209.095-103.016a1.003 1.003 0 0 1-.01-1.485C45.943 179.98 54.191 98.151 43.743 34.323a1 1 0 0 1 1.108-1.155c26.501 3.201 54.767 3.967 81.747 2.212a.996.996 0 0 1 .968.568l10.273 21.602a1 1 0 0 1-.842 1.428c-21.963 1.343-44.93.719-66.513-1.806 8.48 53.616 1.426 121.689-28.454 150.105 62.545 55.307 136.177 77.417 174.603 85.687 59.714 12.852 103.36 8.233 115.612-2.971 7.251-6.63 11.33-22.341 11.192-43.103-.406-61.065-33.624-151.889-106.883-217.484-13.335 11.803-36.022 20.701-65.704 25.757a.998.998 0 0 1-1.125-.697l-6.654-22.041a.999.999 0 0 1 .792-1.275c35.898-6.003 63.084-16.684 78.618-30.889a.999.999 0 0 1 1.34-.009c41.468 36.918 75.507 83.879 98.438 135.807 18.744 42.448 29.635 87.831 29.879 124.513.171 25.619-4.796 44.356-13.986 52.759-9.563 8.744-31.485 13.204-59.753 13.204zM12.128 213.6c74.26 65.735 161.729 92.005 207.363 101.825 70.896 15.257 122.74 9.753 137.312-3.569 8.64-7.901 13.501-26.588 13.336-51.271-.482-72.517-39.941-180.383-126.978-258.243-15.755 14.016-42.624 24.576-77.847 30.591l6.071 20.109c29.376-5.103 51.666-13.988 64.492-25.716a1 1 0 0 1 1.34-.009c34.973 31.136 63.681 70.742 83.02 114.536 15.81 35.802 24.995 74.082 25.201 105.024.144 21.641-4.063 37.478-11.843 44.592-14.729 13.468-64.095 14.919-117.382 3.451-38.787-8.348-113.271-30.734-176.334-86.877a1.003 1.003 0 0 1-.01-1.485c30.288-27.695 37.229-96.611 28.43-150.374a1 1 0 0 1 1.108-1.154c21.364 2.583 44.147 3.285 65.989 2.04l-9.346-19.649c-26.445 1.677-54.102.948-80.121-2.109 10.131 63.685 1.77 144.666-33.802 178.289z" fill="#111"/></svg></g></svg>